<?xml version="1.0" encoding="UTF-8"?>
<!DOCTYPE svg PUBLIC "-//W3C//DTD SVG 1.1//EN" "http://www.w3.org/Graphics/SVG/1.1/DTD/svg11.dtd">
<svg version="1.2" xmlns="http://www.w3.org/2000/svg" xmlns:xlink="http://www.w3.org/1999/xlink" x="0" y="0" width="1199" height="1300" viewBox="0 0 1199 1300">
<style type="text/css"><![CDATA[
text { font:12px Dialog; }
]]></style>
<rect x="-485" y="-485" width="2169" height="2270" style="fill:rgb(255,255,255);stroke:none" />
<clipPath id="clip1"><path d="M15,15 L1184,15 L1184,1285 L15,1285 Z M481,808 C476.5820313,808 473,811.5820313 473,816 L473,867 C473,871.4179688 476.5820313,875 481,875 L558,875 C562.4179688,875 566,871.4179688 566,867 L566,816 C566,811.5820313 562.4179688,808 558,808 Z M481,808 Z M481,808" /></clipPath>
<path d="M524.0429688,808 C534.2539063,582 549.5742188,469 570,469" style="fill:none;stroke:rgb(85,142,213)" clip-path="url(#clip1)" />
<clipPath id="clip2"><path d="M15,15 L1184,15 L1184,1285 L15,1285 Z M481,808 C476.5820313,808 473,811.5820313 473,816 L473,867 C473,871.4179688 476.5820313,875 481,875 L558,875 C562.4179688,875 566,871.4179688 566,867 L566,816 C566,811.5820313 562.4179688,808 558,808 Z M481,808 Z M481,808" /></clipPath>
<path d="M535.4921875,875 C554.2734375,993 582.4414063,1052 620,1052" style="fill:none;stroke:rgb(85,142,213)" clip-path="url(#clip2)" />
<clipPath id="clip3"><path d="M15,15 L1184,15 L1184,1285 L15,1285 Z M481,808 C476.5820313,808 473,811.5820313 473,816 L473,867 C473,871.4179688 476.5820313,875 481,875 L558,875 C562.4179688,875 566,871.4179688 566,867 L566,816 C566,811.5820313 562.4179688,808 558,808 Z M481,808 Z M481,808" /></clipPath>
<path d="M523.5117188,875 C533.84375,1133.6679688 549.3398438,1263 570,1263" style="fill:none;stroke:rgb(85,142,213)" clip-path="url(#clip3)" />
<clipPath id="clip4"><path d="M15,15 L1184,15 L1184,1285 L15,1285 Z M481,808 C476.5820313,808 473,811.5820313 473,816 L473,867 C473,871.4179688 476.5820313,875 481,875 L558,875 C562.4179688,875 566,871.4179688 566,867 L566,816 C566,811.5820313 562.4179688,808 558,808 Z M481,808 Z M481,808" /></clipPath>
<path d="M496.171875,875 C477.9101563,953.6679688 450.5195313,993 414,993" style="fill:none;stroke:rgb(85,142,213)" clip-path="url(#clip4)" />
<clipPath id="clip5"><path d="M15,15 L1184,15 L1184,1285 L15,1285 Z M481,808 C476.5820313,808 473,811.5820313 473,816 L473,867 C473,871.4179688 476.5820313,875 481,875 L558,875 C562.4179688,875 566,871.4179688 566,867 L566,816 C566,811.5820313 562.4179688,808 558,808 Z M481,808 Z M481,808" /></clipPath>
<path d="M473,834.1367188 C458.7773438,827.3789063 437.4453125,824 409,824" style="fill:none;stroke:rgb(85,142,213)" clip-path="url(#clip5)" />
<clipPath id="clip6"><path d="M15,15 L1184,15 L1184,1285 L15,1285 Z M481,808 C476.5820313,808 473,811.5820313 473,816 L473,867 C473,871.4179688 476.5820313,875 481,875 L558,875 C562.4179688,875 566,871.4179688 566,867 L566,816 C566,811.5820313 562.4179688,808 558,808 Z M481,808 Z M481,808" /></clipPath>
<path d="M491.78125,808 C474.4960938,745.3320313 448.5703125,714 414,714" style="fill:none;stroke:rgb(85,142,213)" clip-path="url(#clip6)" />
<clipPath id="clip7"><path d="M469,804 L571,804 L571,880 L469,880 L469,804 Z" /></clipPath>
<path d="M481,808 C476.5820313,808 473,811.5820313 473,816 L473,867 C473,871.4179688 476.5820313,875 481,875 L558,875 C562.4179688,875 566,871.4179688 566,867 L566,816 C566,811.5820313 562.4179688,808 558,808 Z M481,808" style="fill:rgb(220,230,242);stroke:none" clip-path="url(#clip7)" />
<clipPath id="clip8"><path d="M469,804 L571,804 L571,880 L469,880 L469,804 Z" /></clipPath>
<path d="M481,808 C476.5820313,808 473,811.5820313 473,816 L473,867 C473,871.4179688 476.5820313,875 481,875 L558,875 C562.4179688,875 566,871.4179688 566,867 L566,816 C566,811.5820313 562.4179688,808 558,808 Z M481,808" style="fill:none;stroke:rgb(85,142,213);stroke-width:5" clip-path="url(#clip8)" />
<text x="508" y="846" style="font:18px 微软雅黑">图</text>
<clipPath id="clip9"><path d="M569,15 L1080,15 L1080,851 L569,851 Z M575,449 C572.2382813,449 570,451.2382813 570,454 L570,484 C570,486.7617188 572.2382813,489 575,489 L713,489 C715.7617188,489 718,486.7617188 718,484 L718,454 C718,451.2382813 715.7617188,449 713,449 Z M575,449 Z M575,449" /></clipPath>
<path d="M731,469 C733.2226563,226.3320313 736.5546875,105 741,105" style="fill:none;stroke:rgb(85,142,213)" clip-path="url(#clip9)" />
<clipPath id="clip10"><path d="M569,15 L1080,15 L1080,851 L569,851 Z M575,449 C572.2382813,449 570,451.2382813 570,454 L570,484 C570,486.7617188 572.2382813,489 575,489 L713,489 C715.7617188,489 718,486.7617188 718,484 L718,454 C718,451.2382813 715.7617188,449 713,449 Z M575,449 Z M575,449" /></clipPath>
<path d="M731,469 C733.2226563,319 736.5546875,244 741,244" style="fill:none;stroke:rgb(85,142,213)" clip-path="url(#clip10)" />
<clipPath id="clip11"><path d="M569,15 L1080,15 L1080,851 L569,851 Z M575,449 C572.2382813,449 570,451.2382813 570,454 L570,484 C570,486.7617188 572.2382813,489 575,489 L713,489 C715.7617188,489 718,486.7617188 718,484 L718,454 C718,451.2382813 715.7617188,449 713,449 Z M575,449 Z M575,449" /></clipPath>
<path d="M731,469 C733.2226563,371 736.5546875,322 741,322" style="fill:none;stroke:rgb(85,142,213)" clip-path="url(#clip11)" />
<clipPath id="clip12"><path d="M569,15 L1080,15 L1080,851 L569,851 Z M575,449 C572.2382813,449 570,451.2382813 570,454 L570,484 C570,486.7617188 572.2382813,489 575,489 L713,489 C715.7617188,489 718,486.7617188 718,484 L718,454 C718,451.2382813 715.7617188,449 713,449 Z M575,449 Z M575,449" /></clipPath>
<path d="M731,469 C733.2226563,407 736.5546875,376 741,376" style="fill:none;stroke:rgb(85,142,213)" clip-path="url(#clip12)" />
<clipPath id="clip13"><path d="M569,15 L1080,15 L1080,851 L569,851 Z M575,449 C572.2382813,449 570,451.2382813 570,454 L570,484 C570,486.7617188 572.2382813,489 575,489 L713,489 C715.7617188,489 718,486.7617188 718,484 L718,454 C718,451.2382813 715.7617188,449 713,449 Z M575,449 Z M575,449" /></clipPath>
<path d="M731,469 C733.2226563,484.3320313 736.5546875,492 741,492" style="fill:none;stroke:rgb(85,142,213)" clip-path="url(#clip13)" />
<clipPath id="clip14"><path d="M569,15 L1080,15 L1080,851 L569,851 Z M575,449 C572.2382813,449 570,451.2382813 570,454 L570,484 C570,486.7617188 572.2382813,489 575,489 L713,489 C715.7617188,489 718,486.7617188 718,484 L718,454 C718,451.2382813 715.7617188,449 713,449 Z M575,449 Z M575,449" /></clipPath>
<path d="M731,469 C733.2226563,577.6679688 736.5546875,632 741,632" style="fill:none;stroke:rgb(85,142,213)" clip-path="url(#clip14)" />
<clipPath id="clip15"><path d="M569,15 L1080,15 L1080,851 L569,851 Z M575,449 C572.2382813,449 570,451.2382813 570,454 L570,484 C570,486.7617188 572.2382813,489 575,489 L713,489 C715.7617188,489 718,486.7617188 718,484 L718,454 C718,451.2382813 715.7617188,449 713,449 Z M575,449 Z M575,449" /></clipPath>
<path d="M731,469 C733.2226563,665 736.5546875,763 741,763" style="fill:none;stroke:rgb(85,142,213)" clip-path="url(#clip15)" />
<clipPath id="clip16"><path d="M569,15 L1080,15 L1080,851 L569,851 Z M575,449 C572.2382813,449 570,451.2382813 570,454 L570,484 C570,486.7617188 572.2382813,489 575,489 L713,489 C715.7617188,489 718,486.7617188 718,484 L718,454 C718,451.2382813 715.7617188,449 713,449 Z M575,449 Z M575,449" /></clipPath>
<path d="M731,469 C733.2226563,711.6679688 736.5546875,833 741,833" style="fill:none;stroke:rgb(85,142,213)" clip-path="url(#clip16)" />
<clipPath id="clip17"><path d="M568,14 L1081,14 L1081,852 L568,852 L568,14 Z" /></clipPath>
<path d="M718,469 L731,469" style="fill:none;stroke:rgb(85,142,213)" clip-path="url(#clip17)" />
<clipPath id="clip18"><path d="M568,447 L721,447 L721,492 L568,492 L568,447 Z" /></clipPath>
<path d="M575,449 C572.2382813,449 570,451.2382813 570,454 L570,484 C570,486.7617188 572.2382813,489 575,489 L713,489 C715.7617188,489 718,486.7617188 718,484 L718,454 C718,451.2382813 715.7617188,449 713,449 Z M575,449" style="fill:rgb(220,230,242);stroke:none" clip-path="url(#clip18)" />
<clipPath id="clip19"><path d="M568,447 L721,447 L721,492 L568,492 L568,447 Z" /></clipPath>
<path d="M575,449 C572.2382813,449 570,451.2382813 570,454 L570,484 C570,486.7617188 572.2382813,489 575,489 L713,489 C715.7617188,489 718,486.7617188 718,484 L718,454 C718,451.2382813 715.7617188,449 713,449 Z M575,449" style="fill:none;stroke:rgb(85,142,213);stroke-width:2" clip-path="url(#clip19)" />
<text x="584" y="473" style="font:13px 微软雅黑">图的定义和术语</text>
<clipPath id="clip20"><path d="M719,463 L732,463 L732,476 L719,476 L719,463 Z" /></clipPath>
<path d="M729.5,469 C729.5,466.515625 727.484375,464.5 725,464.5 C722.515625,464.5 720.5,466.515625 720.5,469 C720.5,471.484375 722.515625,473.5 725,473.5 C727.484375,473.5 729.5,471.484375 729.5,469 Z M729.5,469" style="fill:rgb(250,250,250);stroke:none" clip-path="url(#clip20)" />
<clipPath id="clip21"><path d="M719,463 L732,463 L732,476 L719,476 L719,463 Z" /></clipPath>
<path d="M729.5,469 C729.5,466.515625 727.484375,464.5 725,464.5 C722.515625,464.5 720.5,466.515625 720.5,469 C720.5,471.484375 722.515625,473.5 725,473.5 C727.484375,473.5 729.5,471.484375 729.5,469 Z M729.5,469" style="fill:none;stroke:rgb(85,142,213)" clip-path="url(#clip21)" />
<clipPath id="clip22"><path d="M719,463 L732,463 L732,476 L719,476 L719,463 Z" /></clipPath>
<path d="M723,469 L727,469" style="fill:none;stroke:rgb(150,160,200)" clip-path="url(#clip22)" />
<clipPath id="clip23"><path d="M739,15 L926,15 L926,169 L739,169 Z M741,79 L741,104 L777,104 L777,79 Z M741,79 Z M741,79" /></clipPath>
<path d="M790,105 C792.4453125,63.6679688 796.109375,43 801,43" style="fill:none;stroke:rgb(85,142,213)" clip-path="url(#clip23)" />
<clipPath id="clip24"><path d="M739,15 L926,15 L926,169 L739,169 Z M741,79 L741,104 L777,104 L777,79 Z M741,79 Z M741,79" /></clipPath>
<path d="M790,105 C792.4453125,105 796.109375,105 801,105" style="fill:none;stroke:rgb(85,142,213)" clip-path="url(#clip24)" />
<clipPath id="clip25"><path d="M739,15 L926,15 L926,169 L739,169 Z M741,79 L741,104 L777,104 L777,79 Z M741,79 Z M741,79" /></clipPath>
<path d="M790,105 C792.4453125,146.3320313 796.109375,167 801,167" style="fill:none;stroke:rgb(85,142,213)" clip-path="url(#clip25)" />
<clipPath id="clip26"><path d="M738,14 L927,14 L927,170 L738,170 L738,14 Z" /></clipPath>
<path d="M777,105 L790,105" style="fill:none;stroke:rgb(85,142,213)" clip-path="url(#clip26)" />
<clipPath id="clip27"><path d="M738,76 L781,76 L781,108 L738,108 L738,76 Z" /></clipPath>
<path d="M741,105 L777,105 Z M741,105" style="fill:none;stroke:rgb(85,142,213);stroke-width:3" clip-path="url(#clip27)" />
<text x="752" y="95" style="font:10px 微软雅黑">图</text>
<clipPath id="clip28"><path d="M779,86 L792,86 L792,99 L779,99 L779,86 Z" /></clipPath>
<path d="M789.5,92 C789.5,89.515625 787.484375,87.5 785,87.5 C782.515625,87.5 780.5,89.515625 780.5,92 C780.5,94.484375 782.515625,96.5 785,96.5 C787.484375,96.5 789.5,94.484375 789.5,92 Z M789.5,92" style="fill:rgb(250,250,250);stroke:none" clip-path="url(#clip28)" />
<clipPath id="clip29"><path d="M779,86 L792,86 L792,99 L779,99 L779,86 Z" /></clipPath>
<path d="M789.5,92 C789.5,89.515625 787.484375,87.5 785,87.5 C782.515625,87.5 780.5,89.515625 780.5,92 C780.5,94.484375 782.515625,96.5 785,96.5 C787.484375,96.5 789.5,94.484375 789.5,92 Z M789.5,92" style="fill:none;stroke:rgb(85,142,213)" clip-path="url(#clip29)" />
<clipPath id="clip30"><path d="M779,86 L792,86 L792,99 L779,99 L779,86 Z" /></clipPath>
<path d="M783,92 L787,92" style="fill:none;stroke:rgb(150,160,200)" clip-path="url(#clip30)" />
<clipPath id="clip31"><path d="M798,14 L854,14 L854,46 L798,46 L798,14 Z" /></clipPath>
<path d="M801,43 L850,43 Z M801,43" style="fill:none;stroke:rgb(85,142,213);stroke-width:3" clip-path="url(#clip31)" />
<text x="812" y="33" style="font:10px 微软雅黑">顶点</text>
<clipPath id="clip32"><path d="M799,46 L926,46 L926,138 L799,138 Z M801,79 L801,104 L837,104 L837,79 Z M801,79 Z M801,79" /></clipPath>
<path d="M850,105 C852.4453125,84.3320313 856.109375,74 861,74" style="fill:none;stroke:rgb(85,142,213)" clip-path="url(#clip32)" />
<clipPath id="clip33"><path d="M799,46 L926,46 L926,138 L799,138 Z M801,79 L801,104 L837,104 L837,79 Z M801,79 Z M801,79" /></clipPath>
<path d="M850,105 C852.4453125,105 856.109375,105 861,105" style="fill:none;stroke:rgb(85,142,213)" clip-path="url(#clip33)" />
<clipPath id="clip34"><path d="M799,46 L926,46 L926,138 L799,138 Z M801,79 L801,104 L837,104 L837,79 Z M801,79 Z M801,79" /></clipPath>
<path d="M850,105 C852.4453125,125.6679688 856.109375,136 861,136" style="fill:none;stroke:rgb(85,142,213)" clip-path="url(#clip34)" />
<clipPath id="clip35"><path d="M798,45 L927,45 L927,139 L798,139 L798,45 Z" /></clipPath>
<path d="M837,105 L850,105" style="fill:none;stroke:rgb(85,142,213)" clip-path="url(#clip35)" />
<clipPath id="clip36"><path d="M798,76 L841,76 L841,108 L798,108 L798,76 Z" /></clipPath>
<path d="M801,105 L837,105 Z M801,105" style="fill:none;stroke:rgb(85,142,213);stroke-width:3" clip-path="url(#clip36)" />
<text x="812" y="95" style="font:10px 微软雅黑">弧</text>
<clipPath id="clip37"><path d="M839,86 L852,86 L852,99 L839,99 L839,86 Z" /></clipPath>
<path d="M849.5,92 C849.5,89.515625 847.484375,87.5 845,87.5 C842.515625,87.5 840.5,89.515625 840.5,92 C840.5,94.484375 842.515625,96.5 845,96.5 C847.484375,96.5 849.5,94.484375 849.5,92 Z M849.5,92" style="fill:rgb(250,250,250);stroke:none" clip-path="url(#clip37)" />
<clipPath id="clip38"><path d="M839,86 L852,86 L852,99 L839,99 L839,86 Z" /></clipPath>
<path d="M849.5,92 C849.5,89.515625 847.484375,87.5 845,87.5 C842.515625,87.5 840.5,89.515625 840.5,92 C840.5,94.484375 842.515625,96.5 845,96.5 C847.484375,96.5 849.5,94.484375 849.5,92 Z M849.5,92" style="fill:none;stroke:rgb(85,142,213)" clip-path="url(#clip38)" />
<clipPath id="clip39"><path d="M839,86 L852,86 L852,99 L839,99 L839,86 Z" /></clipPath>
<path d="M843,92 L847,92" style="fill:none;stroke:rgb(150,160,200)" clip-path="url(#clip39)" />
<clipPath id="clip40"><path d="M858,45 L914,45 L914,77 L858,77 L858,45 Z" /></clipPath>
<path d="M861,74 L910,74 Z M861,74" style="fill:none;stroke:rgb(85,142,213);stroke-width:3" clip-path="url(#clip40)" />
<text x="872" y="64" style="font:10px 微软雅黑">弧尾</text>
<clipPath id="clip41"><path d="M858,76 L914,76 L914,108 L858,108 L858,76 Z" /></clipPath>
<path d="M861,105 L910,105 Z M861,105" style="fill:none;stroke:rgb(85,142,213);stroke-width:3" clip-path="url(#clip41)" />
<text x="872" y="95" style="font:10px 微软雅黑">弧头</text>
<clipPath id="clip42"><path d="M858,107 L927,107 L927,139 L858,139 L858,107 Z" /></clipPath>
<path d="M861,136 L923,136 Z M861,136" style="fill:none;stroke:rgb(85,142,213);stroke-width:3" clip-path="url(#clip42)" />
<text x="872" y="126" style="font:10px 微软雅黑">有向图</text>
<clipPath id="clip43"><path d="M799,139 L926,139 L926,169 L799,169 Z M801,141 L801,166 L837,166 L837,141 Z M801,141 Z M801,141" /></clipPath>
<path d="M850,167 C852.4453125,167 856.109375,167 861,167" style="fill:none;stroke:rgb(85,142,213)" clip-path="url(#clip43)" />
<clipPath id="clip44"><path d="M798,138 L927,138 L927,170 L798,170 L798,138 Z" /></clipPath>
<path d="M837,167 L850,167" style="fill:none;stroke:rgb(85,142,213)" clip-path="url(#clip44)" />
<clipPath id="clip45"><path d="M798,138 L841,138 L841,170 L798,170 L798,138 Z" /></clipPath>
<path d="M801,167 L837,167 Z M801,167" style="fill:none;stroke:rgb(85,142,213);stroke-width:3" clip-path="url(#clip45)" />
<text x="812" y="157" style="font:10px 微软雅黑">边</text>
<clipPath id="clip46"><path d="M839,148 L852,148 L852,161 L839,161 L839,148 Z" /></clipPath>
<path d="M849.5,154 C849.5,151.515625 847.484375,149.5 845,149.5 C842.515625,149.5 840.5,151.515625 840.5,154 C840.5,156.484375 842.515625,158.5 845,158.5 C847.484375,158.5 849.5,156.484375 849.5,154 Z M849.5,154" style="fill:rgb(250,250,250);stroke:none" clip-path="url(#clip46)" />
<clipPath id="clip47"><path d="M839,148 L852,148 L852,161 L839,161 L839,148 Z" /></clipPath>
<path d="M849.5,154 C849.5,151.515625 847.484375,149.5 845,149.5 C842.515625,149.5 840.5,151.515625 840.5,154 C840.5,156.484375 842.515625,158.5 845,158.5 C847.484375,158.5 849.5,156.484375 849.5,154 Z M849.5,154" style="fill:none;stroke:rgb(85,142,213)" clip-path="url(#clip47)" />
<clipPath id="clip48"><path d="M839,148 L852,148 L852,161 L839,161 L839,148 Z" /></clipPath>
<path d="M843,154 L847,154" style="fill:none;stroke:rgb(150,160,200)" clip-path="url(#clip48)" />
<clipPath id="clip49"><path d="M858,138 L927,138 L927,170 L858,170 L858,138 Z" /></clipPath>
<path d="M861,167 L923,167 Z M861,167" style="fill:none;stroke:rgb(85,142,213);stroke-width:3" clip-path="url(#clip49)" />
<text x="872" y="157" style="font:10px 微软雅黑">无向图</text>
<clipPath id="clip50"><path d="M739,170 L1080,170 L1080,293 L739,293 Z M741,218 L741,243 L855,243 L855,218 Z M741,218 Z M741,218" /></clipPath>
<path d="M868,244 C870.4453125,213.3320313 874.109375,198 879,198" style="fill:none;stroke:rgb(85,142,213)" clip-path="url(#clip50)" />
<clipPath id="clip51"><path d="M739,170 L1080,170 L1080,293 L739,293 Z M741,218 L741,243 L855,243 L855,218 Z M741,218 Z M741,218" /></clipPath>
<path d="M868,244 C870.4453125,234 874.109375,229 879,229" style="fill:none;stroke:rgb(85,142,213)" clip-path="url(#clip51)" />
<clipPath id="clip52"><path d="M739,170 L1080,170 L1080,293 L739,293 Z M741,218 L741,243 L855,243 L855,218 Z M741,218 Z M741,218" /></clipPath>
<path d="M868,244 C870.4453125,254.6679688 874.109375,260 879,260" style="fill:none;stroke:rgb(85,142,213)" clip-path="url(#clip52)" />
<clipPath id="clip53"><path d="M739,170 L1080,170 L1080,293 L739,293 Z M741,218 L741,243 L855,243 L855,218 Z M741,218 Z M741,218" /></clipPath>
<path d="M868,244 C870.4453125,275.3320313 874.109375,291 879,291" style="fill:none;stroke:rgb(85,142,213)" clip-path="url(#clip53)" />
<clipPath id="clip54"><path d="M738,169 L1081,169 L1081,294 L738,294 L738,169 Z" /></clipPath>
<path d="M855,244 L868,244" style="fill:none;stroke:rgb(85,142,213)" clip-path="url(#clip54)" />
<clipPath id="clip55"><path d="M738,215 L859,215 L859,247 L738,247 L738,215 Z" /></clipPath>
<path d="M741,244 L855,244 Z M741,244" style="fill:none;stroke:rgb(85,142,213);stroke-width:3" clip-path="url(#clip55)" />
<text x="752" y="234" style="font:10px 微软雅黑">边（弧）的数量</text>
<clipPath id="clip56"><path d="M857,225 L870,225 L870,238 L857,238 L857,225 Z" /></clipPath>
<path d="M867.5,231 C867.5,228.515625 865.484375,226.5 863,226.5 C860.515625,226.5 858.5,228.515625 858.5,231 C858.5,233.484375 860.515625,235.5 863,235.5 C865.484375,235.5 867.5,233.484375 867.5,231 Z M867.5,231" style="fill:rgb(250,250,250);stroke:none" clip-path="url(#clip56)" />
<clipPath id="clip57"><path d="M857,225 L870,225 L870,238 L857,238 L857,225 Z" /></clipPath>
<path d="M867.5,231 C867.5,228.515625 865.484375,226.5 863,226.5 C860.515625,226.5 858.5,228.515625 858.5,231 C858.5,233.484375 860.515625,235.5 863,235.5 C865.484375,235.5 867.5,233.484375 867.5,231 Z M867.5,231" style="fill:none;stroke:rgb(85,142,213)" clip-path="url(#clip57)" />
<clipPath id="clip58"><path d="M857,225 L870,225 L870,238 L857,238 L857,225 Z" /></clipPath>
<path d="M861,231 L865,231" style="fill:none;stroke:rgb(150,160,200)" clip-path="url(#clip58)" />
<clipPath id="clip59"><path d="M877,170 L1068,170 L1068,200 L877,200 Z M879,172 L879,197 L941,197 L941,172 Z M879,172 Z M879,172" /></clipPath>
<path d="M954,198 C956.4453125,198 960.109375,198 965,198" style="fill:none;stroke:rgb(85,142,213)" clip-path="url(#clip59)" />
<clipPath id="clip60"><path d="M876,169 L1069,169 L1069,201 L876,201 L876,169 Z" /></clipPath>
<path d="M941,198 L954,198" style="fill:none;stroke:rgb(85,142,213)" clip-path="url(#clip60)" />
<clipPath id="clip61"><path d="M876,169 L945,169 L945,201 L876,201 L876,169 Z" /></clipPath>
<path d="M879,198 L941,198 Z M879,198" style="fill:none;stroke:rgb(85,142,213);stroke-width:3" clip-path="url(#clip61)" />
<text x="890" y="188" style="font:10px 微软雅黑">完全图</text>
<clipPath id="clip62"><path d="M943,179 L956,179 L956,192 L943,192 L943,179 Z" /></clipPath>
<path d="M953.5,185 C953.5,182.515625 951.484375,180.5 949,180.5 C946.515625,180.5 944.5,182.515625 944.5,185 C944.5,187.484375 946.515625,189.5 949,189.5 C951.484375,189.5 953.5,187.484375 953.5,185 Z M953.5,185" style="fill:rgb(250,250,250);stroke:none" clip-path="url(#clip62)" />
<clipPath id="clip63"><path d="M943,179 L956,179 L956,192 L943,192 L943,179 Z" /></clipPath>
<path d="M953.5,185 C953.5,182.515625 951.484375,180.5 949,180.5 C946.515625,180.5 944.5,182.515625 944.5,185 C944.5,187.484375 946.515625,189.5 949,189.5 C951.484375,189.5 953.5,187.484375 953.5,185 Z M953.5,185" style="fill:none;stroke:rgb(85,142,213)" clip-path="url(#clip63)" />
<clipPath id="clip64"><path d="M943,179 L956,179 L956,192 L943,192 L943,179 Z" /></clipPath>
<path d="M947,185 L951,185" style="fill:none;stroke:rgb(150,160,200)" clip-path="url(#clip64)" />
<clipPath id="clip65"><path d="M962,169 L1069,169 L1069,201 L962,201 L962,169 Z" /></clipPath>
<path d="M965,198 L1065,198 Z M965,198" style="fill:none;stroke:rgb(85,142,213);stroke-width:3" clip-path="url(#clip65)" />
<text x="976" y="188" style="font:10px 微软雅黑">e = n(n-1)/2</text>
<clipPath id="clip66"><path d="M877,201 L1080,201 L1080,231 L877,231 Z M879,203 L879,228 L967,228 L967,203 Z M879,203 Z M879,203" /></clipPath>
<path d="M980,229 C982.4453125,229 986.109375,229 991,229" style="fill:none;stroke:rgb(85,142,213)" clip-path="url(#clip66)" />
<clipPath id="clip67"><path d="M876,200 L1081,200 L1081,232 L876,232 L876,200 Z" /></clipPath>
<path d="M967,229 L980,229" style="fill:none;stroke:rgb(85,142,213)" clip-path="url(#clip67)" />
<clipPath id="clip68"><path d="M876,200 L971,200 L971,232 L876,232 L876,200 Z" /></clipPath>
<path d="M879,229 L967,229 Z M879,229" style="fill:none;stroke:rgb(85,142,213);stroke-width:3" clip-path="url(#clip68)" />
<text x="890" y="219" style="font:10px 微软雅黑">有向完全图</text>
<clipPath id="clip69"><path d="M969,210 L982,210 L982,223 L969,223 L969,210 Z" /></clipPath>
<path d="M979.5,216 C979.5,213.515625 977.484375,211.5 975,211.5 C972.515625,211.5 970.5,213.515625 970.5,216 C970.5,218.484375 972.515625,220.5 975,220.5 C977.484375,220.5 979.5,218.484375 979.5,216 Z M979.5,216" style="fill:rgb(250,250,250);stroke:none" clip-path="url(#clip69)" />
<clipPath id="clip70"><path d="M969,210 L982,210 L982,223 L969,223 L969,210 Z" /></clipPath>
<path d="M979.5,216 C979.5,213.515625 977.484375,211.5 975,211.5 C972.515625,211.5 970.5,213.515625 970.5,216 C970.5,218.484375 972.515625,220.5 975,220.5 C977.484375,220.5 979.5,218.484375 979.5,216 Z M979.5,216" style="fill:none;stroke:rgb(85,142,213)" clip-path="url(#clip70)" />
<clipPath id="clip71"><path d="M969,210 L982,210 L982,223 L969,223 L969,210 Z" /></clipPath>
<path d="M973,216 L977,216" style="fill:none;stroke:rgb(150,160,200)" clip-path="url(#clip71)" />
<clipPath id="clip72"><path d="M988,200 L1081,200 L1081,232 L988,232 L988,200 Z" /></clipPath>
<path d="M991,229 L1077,229 Z M991,229" style="fill:none;stroke:rgb(85,142,213);stroke-width:3" clip-path="url(#clip72)" />
<text x="1002" y="219" style="font:10px 微软雅黑">e = n(n-1)</text>
<clipPath id="clip73"><path d="M876,231 L945,231 L945,263 L876,263 L876,231 Z" /></clipPath>
<path d="M879,260 L941,260 Z M879,260" style="fill:none;stroke:rgb(85,142,213);stroke-width:3" clip-path="url(#clip73)" />
<text x="890" y="250" style="font:10px 微软雅黑">稀疏图</text>
<clipPath id="clip74"><path d="M876,262 L945,262 L945,294 L876,294 L876,262 Z" /></clipPath>
<path d="M879,291 L941,291 Z M879,291" style="fill:none;stroke:rgb(85,142,213);stroke-width:3" clip-path="url(#clip74)" />
<text x="890" y="281" style="font:10px 微软雅黑">稠密图</text>
<clipPath id="clip75"><path d="M738,293 L794,293 L794,325 L738,325 L738,293 Z" /></clipPath>
<path d="M741,322 L790,322 Z M741,322" style="fill:none;stroke:rgb(85,142,213);stroke-width:3" clip-path="url(#clip75)" />
<text x="752" y="312" style="font:10px 微软雅黑">子图</text>
<clipPath id="clip76"><path d="M739,325 L991,325 L991,417 L739,417 Z M741,350 L741,375 L816,375 L816,350 Z M741,350 Z M741,350" /></clipPath>
<path d="M829,376 C831.4453125,360.6679688 835.109375,353 840,353" style="fill:none;stroke:rgb(85,142,213)" clip-path="url(#clip76)" />
<clipPath id="clip77"><path d="M739,325 L991,325 L991,417 L739,417 Z M741,350 L741,375 L816,375 L816,350 Z M741,350 Z M741,350" /></clipPath>
<path d="M829,376 C831.4453125,391.3320313 835.109375,399 840,399" style="fill:none;stroke:rgb(85,142,213)" clip-path="url(#clip77)" />
<clipPath id="clip78"><path d="M738,324 L992,324 L992,418 L738,418 L738,324 Z" /></clipPath>
<path d="M816,376 L829,376" style="fill:none;stroke:rgb(85,142,213)" clip-path="url(#clip78)" />
<clipPath id="clip79"><path d="M738,347 L820,347 L820,379 L738,379 L738,347 Z" /></clipPath>
<path d="M741,376 L816,376 Z M741,376" style="fill:none;stroke:rgb(85,142,213);stroke-width:3" clip-path="url(#clip79)" />
<text x="752" y="366" style="font:10px 微软雅黑">顶点的度</text>
<clipPath id="clip80"><path d="M818,357 L831,357 L831,370 L818,370 L818,357 Z" /></clipPath>
<path d="M828.5,363 C828.5,360.515625 826.484375,358.5 824,358.5 C821.515625,358.5 819.5,360.515625 819.5,363 C819.5,365.484375 821.515625,367.5 824,367.5 C826.484375,367.5 828.5,365.484375 828.5,363 Z M828.5,363" style="fill:rgb(250,250,250);stroke:none" clip-path="url(#clip80)" />
<clipPath id="clip81"><path d="M818,357 L831,357 L831,370 L818,370 L818,357 Z" /></clipPath>
<path d="M828.5,363 C828.5,360.515625 826.484375,358.5 824,358.5 C821.515625,358.5 819.5,360.515625 819.5,363 C819.5,365.484375 821.515625,367.5 824,367.5 C826.484375,367.5 828.5,365.484375 828.5,363 Z M828.5,363" style="fill:none;stroke:rgb(85,142,213)" clip-path="url(#clip81)" />
<clipPath id="clip82"><path d="M818,357 L831,357 L831,370 L818,370 L818,357 Z" /></clipPath>
<path d="M822,363 L826,363" style="fill:none;stroke:rgb(150,160,200)" clip-path="url(#clip82)" />
<clipPath id="clip83"><path d="M837,324 L906,324 L906,356 L837,356 L837,324 Z" /></clipPath>
<path d="M840,353 L902,353 Z M840,353" style="fill:none;stroke:rgb(85,142,213);stroke-width:3" clip-path="url(#clip83)" />
<text x="851" y="343" style="font:10px 微软雅黑">邻接点</text>
<clipPath id="clip84"><path d="M838,356 L991,356 L991,417 L838,417 Z M840,373 L840,398 L915,398 L915,373 Z M840,373 Z M840,373" /></clipPath>
<path d="M928,399 C930.4453125,389 934.109375,384 939,384" style="fill:none;stroke:rgb(85,142,213)" clip-path="url(#clip84)" />
<clipPath id="clip85"><path d="M838,356 L991,356 L991,417 L838,417 Z M840,373 L840,398 L915,398 L915,373 Z M840,373 Z M840,373" /></clipPath>
<path d="M928,399 C930.4453125,409.6679688 934.109375,415 939,415" style="fill:none;stroke:rgb(85,142,213)" clip-path="url(#clip85)" />
<clipPath id="clip86"><path d="M837,355 L992,355 L992,418 L837,418 L837,355 Z" /></clipPath>
<path d="M915,399 L928,399" style="fill:none;stroke:rgb(85,142,213)" clip-path="url(#clip86)" />
<clipPath id="clip87"><path d="M837,370 L919,370 L919,402 L837,402 L837,370 Z" /></clipPath>
<path d="M840,399 L915,399 Z M840,399" style="fill:none;stroke:rgb(85,142,213);stroke-width:3" clip-path="url(#clip87)" />
<text x="851" y="389" style="font:10px 微软雅黑">顶点的度</text>
<clipPath id="clip88"><path d="M917,380 L930,380 L930,393 L917,393 L917,380 Z" /></clipPath>
<path d="M927.5,386 C927.5,383.515625 925.484375,381.5 923,381.5 C920.515625,381.5 918.5,383.515625 918.5,386 C918.5,388.484375 920.515625,390.5 923,390.5 C925.484375,390.5 927.5,388.484375 927.5,386 Z M927.5,386" style="fill:rgb(250,250,250);stroke:none" clip-path="url(#clip88)" />
<clipPath id="clip89"><path d="M917,380 L930,380 L930,393 L917,393 L917,380 Z" /></clipPath>
<path d="M927.5,386 C927.5,383.515625 925.484375,381.5 923,381.5 C920.515625,381.5 918.5,383.515625 918.5,386 C918.5,388.484375 920.515625,390.5 923,390.5 C925.484375,390.5 927.5,388.484375 927.5,386 Z M927.5,386" style="fill:none;stroke:rgb(85,142,213)" clip-path="url(#clip89)" />
<clipPath id="clip90"><path d="M917,380 L930,380 L930,393 L917,393 L917,380 Z" /></clipPath>
<path d="M921,386 L925,386" style="fill:none;stroke:rgb(150,160,200)" clip-path="url(#clip90)" />
<clipPath id="clip91"><path d="M936,355 L992,355 L992,387 L936,387 L936,355 Z" /></clipPath>
<path d="M939,384 L988,384 Z M939,384" style="fill:none;stroke:rgb(85,142,213);stroke-width:3" clip-path="url(#clip91)" />
<text x="950" y="374" style="font:10px 微软雅黑">入度</text>
<clipPath id="clip92"><path d="M936,386 L992,386 L992,418 L936,418 L936,386 Z" /></clipPath>
<path d="M939,415 L988,415 Z M939,415" style="fill:none;stroke:rgb(85,142,213);stroke-width:3" clip-path="url(#clip92)" />
<text x="950" y="405" style="font:10px 微软雅黑">出度</text>
<clipPath id="clip93"><path d="M739,418 L965,418 L965,541 L739,541 Z M741,466 L741,491 L790,491 L790,466 Z M741,466 Z M741,466" /></clipPath>
<path d="M803,492 C805.4453125,461.3320313 809.109375,446 814,446" style="fill:none;stroke:rgb(85,142,213)" clip-path="url(#clip93)" />
<clipPath id="clip94"><path d="M739,418 L965,418 L965,541 L739,541 Z M741,466 L741,491 L790,491 L790,466 Z M741,466 Z M741,466" /></clipPath>
<path d="M803,492 C805.4453125,482 809.109375,477 814,477" style="fill:none;stroke:rgb(85,142,213)" clip-path="url(#clip94)" />
<clipPath id="clip95"><path d="M739,418 L965,418 L965,541 L739,541 Z M741,466 L741,491 L790,491 L790,466 Z M741,466 Z M741,466" /></clipPath>
<path d="M803,492 C805.4453125,502.6679688 809.109375,508 814,508" style="fill:none;stroke:rgb(85,142,213)" clip-path="url(#clip95)" />
<clipPath id="clip96"><path d="M739,418 L965,418 L965,541 L739,541 Z M741,466 L741,491 L790,491 L790,466 Z M741,466 Z M741,466" /></clipPath>
<path d="M803,492 C805.4453125,523.3320313 809.109375,539 814,539" style="fill:none;stroke:rgb(85,142,213)" clip-path="url(#clip96)" />
<clipPath id="clip97"><path d="M738,417 L966,417 L966,542 L738,542 L738,417 Z" /></clipPath>
<path d="M790,492 L803,492" style="fill:none;stroke:rgb(85,142,213)" clip-path="url(#clip97)" />
<clipPath id="clip98"><path d="M738,463 L794,463 L794,495 L738,495 L738,463 Z" /></clipPath>
<path d="M741,492 L790,492 Z M741,492" style="fill:none;stroke:rgb(85,142,213);stroke-width:3" clip-path="url(#clip98)" />
<text x="752" y="482" style="font:10px 微软雅黑">路径</text>
<clipPath id="clip99"><path d="M792,473 L805,473 L805,486 L792,486 L792,473 Z" /></clipPath>
<path d="M802.5,479 C802.5,476.515625 800.484375,474.5 798,474.5 C795.515625,474.5 793.5,476.515625 793.5,479 C793.5,481.484375 795.515625,483.5 798,483.5 C800.484375,483.5 802.5,481.484375 802.5,479 Z M802.5,479" style="fill:rgb(250,250,250);stroke:none" clip-path="url(#clip99)" />
<clipPath id="clip100"><path d="M792,473 L805,473 L805,486 L792,486 L792,473 Z" /></clipPath>
<path d="M802.5,479 C802.5,476.515625 800.484375,474.5 798,474.5 C795.515625,474.5 793.5,476.515625 793.5,479 C793.5,481.484375 795.515625,483.5 798,483.5 C800.484375,483.5 802.5,481.484375 802.5,479 Z M802.5,479" style="fill:none;stroke:rgb(85,142,213)" clip-path="url(#clip100)" />
<clipPath id="clip101"><path d="M792,473 L805,473 L805,486 L792,486 L792,473 Z" /></clipPath>
<path d="M796,479 L800,479" style="fill:none;stroke:rgb(150,160,200)" clip-path="url(#clip101)" />
<clipPath id="clip102"><path d="M812,418 L965,418 L965,448 L812,448 Z M814,420 L814,445 L863,445 L863,420 Z M814,420 Z M814,420" /></clipPath>
<path d="M876,446 C878.4453125,446 882.109375,446 887,446" style="fill:none;stroke:rgb(85,142,213)" clip-path="url(#clip102)" />
<clipPath id="clip103"><path d="M811,417 L966,417 L966,449 L811,449 L811,417 Z" /></clipPath>
<path d="M863,446 L876,446" style="fill:none;stroke:rgb(85,142,213)" clip-path="url(#clip103)" />
<clipPath id="clip104"><path d="M811,417 L867,417 L867,449 L811,449 L811,417 Z" /></clipPath>
<path d="M814,446 L863,446 Z M814,446" style="fill:none;stroke:rgb(85,142,213);stroke-width:3" clip-path="url(#clip104)" />
<text x="825" y="436" style="font:10px 微软雅黑">路径</text>
<clipPath id="clip105"><path d="M865,427 L878,427 L878,440 L865,440 L865,427 Z" /></clipPath>
<path d="M875.5,433 C875.5,430.515625 873.484375,428.5 871,428.5 C868.515625,428.5 866.5,430.515625 866.5,433 C866.5,435.484375 868.515625,437.5 871,437.5 C873.484375,437.5 875.5,435.484375 875.5,433 Z M875.5,433" style="fill:rgb(250,250,250);stroke:none" clip-path="url(#clip105)" />
<clipPath id="clip106"><path d="M865,427 L878,427 L878,440 L865,440 L865,427 Z" /></clipPath>
<path d="M875.5,433 C875.5,430.515625 873.484375,428.5 871,428.5 C868.515625,428.5 866.5,430.515625 866.5,433 C866.5,435.484375 868.515625,437.5 871,437.5 C873.484375,437.5 875.5,435.484375 875.5,433 Z M875.5,433" style="fill:none;stroke:rgb(85,142,213)" clip-path="url(#clip106)" />
<clipPath id="clip107"><path d="M865,427 L878,427 L878,440 L865,440 L865,427 Z" /></clipPath>
<path d="M869,433 L873,433" style="fill:none;stroke:rgb(150,160,200)" clip-path="url(#clip107)" />
<clipPath id="clip108"><path d="M884,417 L966,417 L966,449 L884,449 L884,417 Z" /></clipPath>
<path d="M887,446 L962,446 Z M887,446" style="fill:none;stroke:rgb(85,142,213);stroke-width:3" clip-path="url(#clip108)" />
<text x="898" y="436" style="font:10px 微软雅黑">路径长度</text>
<clipPath id="clip109"><path d="M811,448 L906,448 L906,480 L811,480 L811,448 Z" /></clipPath>
<path d="M814,477 L902,477 Z M814,477" style="fill:none;stroke:rgb(85,142,213);stroke-width:3" clip-path="url(#clip109)" />
<text x="825" y="467" style="font:10px 微软雅黑">回路（环）</text>
<clipPath id="clip110"><path d="M811,479 L893,479 L893,511 L811,511 L811,479 Z" /></clipPath>
<path d="M814,508 L889,508 Z M814,508" style="fill:none;stroke:rgb(85,142,213);stroke-width:3" clip-path="url(#clip110)" />
<text x="825" y="498" style="font:10px 微软雅黑">简单路径</text>
<clipPath id="clip111"><path d="M811,510 L932,510 L932,542 L811,542 L811,510 Z" /></clipPath>
<path d="M814,539 L928,539 Z M814,539" style="fill:none;stroke:rgb(85,142,213);stroke-width:3" clip-path="url(#clip111)" />
<text x="825" y="529" style="font:10px 微软雅黑">简单回路（环）</text>
<clipPath id="clip112"><path d="M739,542 L1043,542 L1043,696 L739,696 Z M741,606 L741,631 L816,631 L816,606 Z M741,606 Z M741,606" /></clipPath>
<path d="M829,632 C831.4453125,590.6679688 835.109375,570 840,570" style="fill:none;stroke:rgb(85,142,213)" clip-path="url(#clip112)" />
<clipPath id="clip113"><path d="M739,542 L1043,542 L1043,696 L739,696 Z M741,606 L741,631 L816,631 L816,606 Z M741,606 Z M741,606" /></clipPath>
<path d="M829,632 C831.4453125,611.3320313 835.109375,601 840,601" style="fill:none;stroke:rgb(85,142,213)" clip-path="url(#clip113)" />
<clipPath id="clip114"><path d="M739,542 L1043,542 L1043,696 L739,696 Z M741,606 L741,631 L816,631 L816,606 Z M741,606 Z M741,606" /></clipPath>
<path d="M829,632 C831.4453125,632 835.109375,632 840,632" style="fill:none;stroke:rgb(85,142,213)" clip-path="url(#clip114)" />
<clipPath id="clip115"><path d="M739,542 L1043,542 L1043,696 L739,696 Z M741,606 L741,631 L816,631 L816,606 Z M741,606 Z M741,606" /></clipPath>
<path d="M829,632 C831.4453125,652.6679688 835.109375,663 840,663" style="fill:none;stroke:rgb(85,142,213)" clip-path="url(#clip115)" />
<clipPath id="clip116"><path d="M739,542 L1043,542 L1043,696 L739,696 Z M741,606 L741,631 L816,631 L816,606 Z M741,606 Z M741,606" /></clipPath>
<path d="M829,632 C831.4453125,673.3320313 835.109375,694 840,694" style="fill:none;stroke:rgb(85,142,213)" clip-path="url(#clip116)" />
<clipPath id="clip117"><path d="M738,541 L1044,541 L1044,697 L738,697 L738,541 Z" /></clipPath>
<path d="M816,632 L829,632" style="fill:none;stroke:rgb(85,142,213)" clip-path="url(#clip117)" />
<clipPath id="clip118"><path d="M738,603 L820,603 L820,635 L738,635 L738,603 Z" /></clipPath>
<path d="M741,632 L816,632 Z M741,632" style="fill:none;stroke:rgb(85,142,213);stroke-width:3" clip-path="url(#clip118)" />
<text x="752" y="622" style="font:10px 微软雅黑">连通分量</text>
<clipPath id="clip119"><path d="M818,613 L831,613 L831,626 L818,626 L818,613 Z" /></clipPath>
<path d="M828.5,619 C828.5,616.515625 826.484375,614.5 824,614.5 C821.515625,614.5 819.5,616.515625 819.5,619 C819.5,621.484375 821.515625,623.5 824,623.5 C826.484375,623.5 828.5,621.484375 828.5,619 Z M828.5,619" style="fill:rgb(250,250,250);stroke:none" clip-path="url(#clip119)" />
<clipPath id="clip120"><path d="M818,613 L831,613 L831,626 L818,626 L818,613 Z" /></clipPath>
<path d="M828.5,619 C828.5,616.515625 826.484375,614.5 824,614.5 C821.515625,614.5 819.5,616.515625 819.5,619 C819.5,621.484375 821.515625,623.5 824,623.5 C826.484375,623.5 828.5,621.484375 828.5,619 Z M828.5,619" style="fill:none;stroke:rgb(85,142,213)" clip-path="url(#clip120)" />
<clipPath id="clip121"><path d="M818,613 L831,613 L831,626 L818,626 L818,613 Z" /></clipPath>
<path d="M822,619 L826,619" style="fill:none;stroke:rgb(150,160,200)" clip-path="url(#clip121)" />
<clipPath id="clip122"><path d="M837,541 L893,541 L893,573 L837,573 L837,541 Z" /></clipPath>
<path d="M840,570 L889,570 Z M840,570" style="fill:none;stroke:rgb(85,142,213);stroke-width:3" clip-path="url(#clip122)" />
<text x="851" y="560" style="font:10px 微软雅黑">连通</text>
<clipPath id="clip123"><path d="M837,572 L906,572 L906,604 L837,604 L837,572 Z" /></clipPath>
<path d="M840,601 L902,601 Z M840,601" style="fill:none;stroke:rgb(85,142,213);stroke-width:3" clip-path="url(#clip123)" />
<text x="851" y="591" style="font:10px 微软雅黑">连通图</text>
<clipPath id="clip124"><path d="M838,604 L1043,604 L1043,634 L838,634 Z M840,606 L840,631 L915,631 L915,606 Z M840,606 Z M840,606" /></clipPath>
<path d="M928,632 C930.4453125,632 934.109375,632 939,632" style="fill:none;stroke:rgb(85,142,213)" clip-path="url(#clip124)" />
<clipPath id="clip125"><path d="M837,603 L1044,603 L1044,635 L837,635 L837,603 Z" /></clipPath>
<path d="M915,632 L928,632" style="fill:none;stroke:rgb(85,142,213)" clip-path="url(#clip125)" />
<clipPath id="clip126"><path d="M837,603 L919,603 L919,635 L837,635 L837,603 Z" /></clipPath>
<path d="M840,632 L915,632 Z M840,632" style="fill:none;stroke:rgb(85,142,213);stroke-width:3" clip-path="url(#clip126)" />
<text x="851" y="622" style="font:10px 微软雅黑">连通分量</text>
<clipPath id="clip127"><path d="M917,613 L930,613 L930,626 L917,626 L917,613 Z" /></clipPath>
<path d="M927.5,619 C927.5,616.515625 925.484375,614.5 923,614.5 C920.515625,614.5 918.5,616.515625 918.5,619 C918.5,621.484375 920.515625,623.5 923,623.5 C925.484375,623.5 927.5,621.484375 927.5,619 Z M927.5,619" style="fill:rgb(250,250,250);stroke:none" clip-path="url(#clip127)" />
<clipPath id="clip128"><path d="M917,613 L930,613 L930,626 L917,626 L917,613 Z" /></clipPath>
<path d="M927.5,619 C927.5,616.515625 925.484375,614.5 923,614.5 C920.515625,614.5 918.5,616.515625 918.5,619 C918.5,621.484375 920.515625,623.5 923,623.5 C925.484375,623.5 927.5,621.484375 927.5,619 Z M927.5,619" style="fill:none;stroke:rgb(85,142,213)" clip-path="url(#clip128)" />
<clipPath id="clip129"><path d="M917,613 L930,613 L930,626 L917,626 L917,613 Z" /></clipPath>
<path d="M921,619 L925,619" style="fill:none;stroke:rgb(150,160,200)" clip-path="url(#clip129)" />
<clipPath id="clip130"><path d="M936,603 L1044,603 L1044,635 L936,635 L936,603 Z" /></clipPath>
<path d="M939,632 L1040,632 Z M939,632" style="fill:none;stroke:rgb(85,142,213);stroke-width:3" clip-path="url(#clip130)" />
<text x="950" y="622" style="font:10px 微软雅黑">极大连通子图</text>
<clipPath id="clip131"><path d="M837,634 L919,634 L919,666 L837,666 L837,634 Z" /></clipPath>
<path d="M840,663 L915,663 Z M840,663" style="fill:none;stroke:rgb(85,142,213);stroke-width:3" clip-path="url(#clip131)" />
<text x="851" y="653" style="font:10px 微软雅黑">强连通图</text>
<clipPath id="clip132"><path d="M837,665 L932,665 L932,697 L837,697 L837,665 Z" /></clipPath>
<path d="M840,694 L928,694 Z M840,694" style="fill:none;stroke:rgb(85,142,213);stroke-width:3" clip-path="url(#clip132)" />
<text x="851" y="684" style="font:10px 微软雅黑">强连通分量</text>
<clipPath id="clip133"><path d="M739,697 L1055,697 L1055,789 L739,789 Z M741,737 L741,762 L803,762 L803,737 Z M741,737 Z M741,737" /></clipPath>
<path d="M816,763 C818.4453125,747.6679688 822.109375,740 827,740" style="fill:none;stroke:rgb(85,142,213)" clip-path="url(#clip133)" />
<clipPath id="clip134"><path d="M739,697 L1055,697 L1055,789 L739,789 Z M741,737 L741,762 L803,762 L803,737 Z M741,737 Z M741,737" /></clipPath>
<path d="M816,763 C818.4453125,779 822.109375,787 827,787" style="fill:none;stroke:rgb(85,142,213)" clip-path="url(#clip134)" />
<clipPath id="clip135"><path d="M738,696 L1056,696 L1056,790 L738,790 L738,696 Z" /></clipPath>
<path d="M803,763 L816,763" style="fill:none;stroke:rgb(85,142,213)" clip-path="url(#clip135)" />
<clipPath id="clip136"><path d="M738,734 L807,734 L807,766 L738,766 L738,734 Z" /></clipPath>
<path d="M741,763 L803,763 Z M741,763" style="fill:none;stroke:rgb(85,142,213);stroke-width:3" clip-path="url(#clip136)" />
<text x="752" y="753" style="font:10px 微软雅黑">生成树</text>
<clipPath id="clip137"><path d="M805,744 L818,744 L818,757 L805,757 L805,744 Z" /></clipPath>
<path d="M815.5,750 C815.5,747.515625 813.484375,745.5 811,745.5 C808.515625,745.5 806.5,747.515625 806.5,750 C806.5,752.484375 808.515625,754.5 811,754.5 C813.484375,754.5 815.5,752.484375 815.5,750 Z M815.5,750" style="fill:rgb(250,250,250);stroke:none" clip-path="url(#clip137)" />
<clipPath id="clip138"><path d="M805,744 L818,744 L818,757 L805,757 L805,744 Z" /></clipPath>
<path d="M815.5,750 C815.5,747.515625 813.484375,745.5 811,745.5 C808.515625,745.5 806.5,747.515625 806.5,750 C806.5,752.484375 808.515625,754.5 811,754.5 C813.484375,754.5 815.5,752.484375 815.5,750 Z M815.5,750" style="fill:none;stroke:rgb(85,142,213)" clip-path="url(#clip138)" />
<clipPath id="clip139"><path d="M805,744 L818,744 L818,757 L805,757 L805,744 Z" /></clipPath>
<path d="M809,750 L813,750" style="fill:none;stroke:rgb(150,160,200)" clip-path="url(#clip139)" />
<clipPath id="clip140"><path d="M825,697 L1055,697 L1055,758 L825,758 Z M827,714 L827,739 L889,739 L889,714 Z M827,714 Z M827,714" /></clipPath>
<path d="M902,740 C904.4453125,730 908.109375,725 913,725" style="fill:none;stroke:rgb(85,142,213)" clip-path="url(#clip140)" />
<clipPath id="clip141"><path d="M825,697 L1055,697 L1055,758 L825,758 Z M827,714 L827,739 L889,739 L889,714 Z M827,714 Z M827,714" /></clipPath>
<path d="M902,740 C904.4453125,750.6679688 908.109375,756 913,756" style="fill:none;stroke:rgb(85,142,213)" clip-path="url(#clip141)" />
<clipPath id="clip142"><path d="M824,696 L1056,696 L1056,759 L824,759 L824,696 Z" /></clipPath>
<path d="M889,740 L902,740" style="fill:none;stroke:rgb(85,142,213)" clip-path="url(#clip142)" />
<clipPath id="clip143"><path d="M824,711 L893,711 L893,743 L824,743 L824,711 Z" /></clipPath>
<path d="M827,740 L889,740 Z M827,740" style="fill:none;stroke:rgb(85,142,213);stroke-width:3" clip-path="url(#clip143)" />
<text x="838" y="730" style="font:10px 微软雅黑">无向图</text>
<clipPath id="clip144"><path d="M891,721 L904,721 L904,734 L891,734 L891,721 Z" /></clipPath>
<path d="M901.5,727 C901.5,724.515625 899.484375,722.5 897,722.5 C894.515625,722.5 892.5,724.515625 892.5,727 C892.5,729.484375 894.515625,731.5 897,731.5 C899.484375,731.5 901.5,729.484375 901.5,727 Z M901.5,727" style="fill:rgb(250,250,250);stroke:none" clip-path="url(#clip144)" />
<clipPath id="clip145"><path d="M891,721 L904,721 L904,734 L891,734 L891,721 Z" /></clipPath>
<path d="M901.5,727 C901.5,724.515625 899.484375,722.5 897,722.5 C894.515625,722.5 892.5,724.515625 892.5,727 C892.5,729.484375 894.515625,731.5 897,731.5 C899.484375,731.5 901.5,729.484375 901.5,727 Z M901.5,727" style="fill:none;stroke:rgb(85,142,213)" clip-path="url(#clip145)" />
<clipPath id="clip146"><path d="M891,721 L904,721 L904,734 L891,734 L891,721 Z" /></clipPath>
<path d="M895,727 L899,727" style="fill:none;stroke:rgb(150,160,200)" clip-path="url(#clip146)" />
<clipPath id="clip147"><path d="M910,696 L1018,696 L1018,728 L910,728 L910,696 Z" /></clipPath>
<path d="M913,725 L1014,725 Z M913,725" style="fill:none;stroke:rgb(85,142,213);stroke-width:3" clip-path="url(#clip147)" />
<text x="924" y="715" style="font:10px 微软雅黑">极小连通子图</text>
<clipPath id="clip148"><path d="M910,727 L1056,727 L1056,759 L910,759 L910,727 Z" /></clipPath>
<path d="M913,756 L1052,756 Z M913,756" style="fill:none;stroke:rgb(85,142,213);stroke-width:3" clip-path="url(#clip148)" />
<text x="924" y="746" style="font:10px 微软雅黑">n 个顶点，n-1 条边</text>
<clipPath id="clip149"><path d="M824,758 L958,758 L958,790 L824,790 L824,758 Z" /></clipPath>
<path d="M827,787 L954,787 Z M827,787" style="fill:none;stroke:rgb(85,142,213);stroke-width:3" clip-path="url(#clip149)" />
<text x="838" y="777" style="font:10px 微软雅黑">有向图的生成森林</text>
<clipPath id="clip150"><path d="M739,790 L918,790 L918,851 L739,851 Z M741,807 L741,832 L790,832 L790,807 Z M741,807 Z M741,807" /></clipPath>
<path d="M803,833 C805.4453125,823 809.109375,818 814,818" style="fill:none;stroke:rgb(85,142,213)" clip-path="url(#clip150)" />
<clipPath id="clip151"><path d="M739,790 L918,790 L918,851 L739,851 Z M741,807 L741,832 L790,832 L790,807 Z M741,807 Z M741,807" /></clipPath>
<path d="M803,833 C805.4453125,843.6679688 809.109375,849 814,849" style="fill:none;stroke:rgb(85,142,213)" clip-path="url(#clip151)" />
<clipPath id="clip152"><path d="M738,789 L919,789 L919,852 L738,852 L738,789 Z" /></clipPath>
<path d="M790,833 L803,833" style="fill:none;stroke:rgb(85,142,213)" clip-path="url(#clip152)" />
<clipPath id="clip153"><path d="M738,804 L794,804 L794,836 L738,836 L738,804 Z" /></clipPath>
<path d="M741,833 L790,833 Z M741,833" style="fill:none;stroke:rgb(85,142,213);stroke-width:3" clip-path="url(#clip153)" />
<text x="752" y="823" style="font:10px 微软雅黑">编号</text>
<clipPath id="clip154"><path d="M792,814 L805,814 L805,827 L792,827 L792,814 Z" /></clipPath>
<path d="M802.5,820 C802.5,817.515625 800.484375,815.5 798,815.5 C795.515625,815.5 793.5,817.515625 793.5,820 C793.5,822.484375 795.515625,824.5 798,824.5 C800.484375,824.5 802.5,822.484375 802.5,820 Z M802.5,820" style="fill:rgb(250,250,250);stroke:none" clip-path="url(#clip154)" />
<clipPath id="clip155"><path d="M792,814 L805,814 L805,827 L792,827 L792,814 Z" /></clipPath>
<path d="M802.5,820 C802.5,817.515625 800.484375,815.5 798,815.5 C795.515625,815.5 793.5,817.515625 793.5,820 C793.5,822.484375 795.515625,824.5 798,824.5 C800.484375,824.5 802.5,822.484375 802.5,820 Z M802.5,820" style="fill:none;stroke:rgb(85,142,213)" clip-path="url(#clip155)" />
<clipPath id="clip156"><path d="M792,814 L805,814 L805,827 L792,827 L792,814 Z" /></clipPath>
<path d="M796,820 L800,820" style="fill:none;stroke:rgb(150,160,200)" clip-path="url(#clip156)" />
<clipPath id="clip157"><path d="M811,789 L906,789 L906,821 L811,821 L811,789 Z" /></clipPath>
<path d="M814,818 L902,818 Z M814,818" style="fill:none;stroke:rgb(85,142,213);stroke-width:3" clip-path="url(#clip157)" />
<text x="825" y="808" style="font:10px 微软雅黑">对顶点编号</text>
<clipPath id="clip158"><path d="M811,820 L919,820 L919,852 L811,852 L811,820 Z" /></clipPath>
<path d="M814,849 L915,849 Z M814,849" style="fill:none;stroke:rgb(85,142,213);stroke-width:3" clip-path="url(#clip158)" />
<text x="825" y="839" style="font:10px 微软雅黑">对邻接点编号</text>
<clipPath id="clip159"><path d="M619,881 L1184,881 L1184,1190 L619,1190 Z M625,1032 C622.2382813,1032 620,1034.2382813 620,1037 L620,1067 C620,1069.7617188 622.2382813,1072 625,1072 L746,1072 C748.7617188,1072 751,1069.7617188 751,1067 L751,1037 C751,1034.2382813 748.7617188,1032 746,1032 Z M625,1032 Z M625,1032" /></clipPath>
<path d="M764,1052 C766.2226563,972 769.5546875,932 774,932" style="fill:none;stroke:rgb(85,142,213)" clip-path="url(#clip159)" />
<clipPath id="clip160"><path d="M619,881 L1184,881 L1184,1190 L619,1190 Z M625,1032 C622.2382813,1032 620,1034.2382813 620,1037 L620,1067 C620,1069.7617188 622.2382813,1072 625,1072 L746,1072 C748.7617188,1072 751,1069.7617188 751,1067 L751,1037 C751,1034.2382813 748.7617188,1032 746,1032 Z M625,1032 Z M625,1032" /></clipPath>
<path d="M764,1052 C766.2226563,1028.6679688 769.5546875,1017 774,1017" style="fill:none;stroke:rgb(85,142,213)" clip-path="url(#clip160)" />
<clipPath id="clip161"><path d="M619,881 L1184,881 L1184,1190 L619,1190 Z M625,1032 C622.2382813,1032 620,1034.2382813 620,1037 L620,1067 C620,1069.7617188 622.2382813,1072 625,1072 L746,1072 C748.7617188,1072 751,1069.7617188 751,1067 L751,1037 C751,1034.2382813 748.7617188,1032 746,1032 Z M625,1032 Z M625,1032" /></clipPath>
<path d="M764,1052 C766.2226563,1060 769.5546875,1064 774,1064" style="fill:none;stroke:rgb(85,142,213)" clip-path="url(#clip161)" />
<clipPath id="clip162"><path d="M619,881 L1184,881 L1184,1190 L619,1190 Z M625,1032 C622.2382813,1032 620,1034.2382813 620,1037 L620,1067 C620,1069.7617188 622.2382813,1072 625,1072 L746,1072 C748.7617188,1072 751,1069.7617188 751,1067 L751,1037 C751,1034.2382813 748.7617188,1032 746,1032 Z M625,1032 Z M625,1032" /></clipPath>
<path d="M764,1052 C766.2226563,1090.6679688 769.5546875,1110 774,1110" style="fill:none;stroke:rgb(85,142,213)" clip-path="url(#clip162)" />
<clipPath id="clip163"><path d="M619,881 L1184,881 L1184,1190 L619,1190 Z M625,1032 C622.2382813,1032 620,1034.2382813 620,1037 L620,1067 C620,1069.7617188 622.2382813,1072 625,1072 L746,1072 C748.7617188,1072 751,1069.7617188 751,1067 L751,1037 C751,1034.2382813 748.7617188,1032 746,1032 Z M625,1032 Z M625,1032" /></clipPath>
<path d="M764,1052 C766.2226563,1132 769.5546875,1172 774,1172" style="fill:none;stroke:rgb(85,142,213)" clip-path="url(#clip163)" />
<clipPath id="clip164"><path d="M618,880 L1185,880 L1185,1191 L618,1191 L618,880 Z" /></clipPath>
<path d="M751,1052 L764,1052" style="fill:none;stroke:rgb(85,142,213)" clip-path="url(#clip164)" />
<clipPath id="clip165"><path d="M618,1030 L754,1030 L754,1075 L618,1075 L618,1030 Z" /></clipPath>
<path d="M625,1032 C622.2382813,1032 620,1034.2382813 620,1037 L620,1067 C620,1069.7617188 622.2382813,1072 625,1072 L746,1072 C748.7617188,1072 751,1069.7617188 751,1067 L751,1037 C751,1034.2382813 748.7617188,1032 746,1032 Z M625,1032" style="fill:rgb(220,230,242);stroke:none" clip-path="url(#clip165)" />
<clipPath id="clip166"><path d="M618,1030 L754,1030 L754,1075 L618,1075 L618,1030 Z" /></clipPath>
<path d="M625,1032 C622.2382813,1032 620,1034.2382813 620,1037 L620,1067 C620,1069.7617188 622.2382813,1072 625,1072 L746,1072 C748.7617188,1072 751,1069.7617188 751,1067 L751,1037 C751,1034.2382813 748.7617188,1032 746,1032 Z M625,1032" style="fill:none;stroke:rgb(85,142,213);stroke-width:2" clip-path="url(#clip166)" />
<text x="634" y="1055" style="font:13px 微软雅黑">图的存储结构</text>
<clipPath id="clip167"><path d="M752,1046 L765,1046 L765,1059 L752,1059 L752,1046 Z" /></clipPath>
<path d="M762.5,1052 C762.5,1049.515625 760.484375,1047.5 758,1047.5 C755.515625,1047.5 753.5,1049.515625 753.5,1052 C753.5,1054.484375 755.515625,1056.5 758,1056.5 C760.484375,1056.5 762.5,1054.484375 762.5,1052 Z M762.5,1052" style="fill:rgb(250,250,250);stroke:none" clip-path="url(#clip167)" />
<clipPath id="clip168"><path d="M752,1046 L765,1046 L765,1059 L752,1059 L752,1046 Z" /></clipPath>
<path d="M762.5,1052 C762.5,1049.515625 760.484375,1047.5 758,1047.5 C755.515625,1047.5 753.5,1049.515625 753.5,1052 C753.5,1054.484375 755.515625,1056.5 758,1056.5 C760.484375,1056.5 762.5,1054.484375 762.5,1052 Z M762.5,1052" style="fill:none;stroke:rgb(85,142,213)" clip-path="url(#clip168)" />
<clipPath id="clip169"><path d="M752,1046 L765,1046 L765,1059 L752,1059 L752,1046 Z" /></clipPath>
<path d="M756,1052 L760,1052" style="fill:none;stroke:rgb(150,160,200)" clip-path="url(#clip169)" />
<clipPath id="clip170"><path d="M772,881 L1184,881 L1184,973 L772,973 Z M774,906 L774,931 L849,931 L849,906 Z M774,906 Z M774,906" /></clipPath>
<path d="M862,932 C864.4453125,916.6679688 868.109375,909 873,909" style="fill:none;stroke:rgb(85,142,213)" clip-path="url(#clip170)" />
<clipPath id="clip171"><path d="M772,881 L1184,881 L1184,973 L772,973 Z M774,906 L774,931 L849,931 L849,906 Z M774,906 Z M774,906" /></clipPath>
<path d="M862,932 C864.4453125,947.3320313 868.109375,955 873,955" style="fill:none;stroke:rgb(85,142,213)" clip-path="url(#clip171)" />
<clipPath id="clip172"><path d="M771,880 L1185,880 L1185,974 L771,974 L771,880 Z" /></clipPath>
<path d="M849,932 L862,932" style="fill:none;stroke:rgb(85,142,213)" clip-path="url(#clip172)" />
<clipPath id="clip173"><path d="M771,903 L853,903 L853,935 L771,935 L771,903 Z" /></clipPath>
<path d="M774,932 L849,932 Z M774,932" style="fill:none;stroke:rgb(85,142,213);stroke-width:3" clip-path="url(#clip173)" />
<text x="785" y="921" style="font:10px 微软雅黑">邻接矩阵</text>
<clipPath id="clip174"><path d="M851,913 L864,913 L864,926 L851,926 L851,913 Z" /></clipPath>
<path d="M861.5,919 C861.5,916.515625 859.484375,914.5 857,914.5 C854.515625,914.5 852.5,916.515625 852.5,919 C852.5,921.484375 854.515625,923.5 857,923.5 C859.484375,923.5 861.5,921.484375 861.5,919 Z M861.5,919" style="fill:rgb(250,250,250);stroke:none" clip-path="url(#clip174)" />
<clipPath id="clip175"><path d="M851,913 L864,913 L864,926 L851,926 L851,913 Z" /></clipPath>
<path d="M861.5,919 C861.5,916.515625 859.484375,914.5 857,914.5 C854.515625,914.5 852.5,916.515625 852.5,919 C852.5,921.484375 854.515625,923.5 857,923.5 C859.484375,923.5 861.5,921.484375 861.5,919 Z M861.5,919" style="fill:none;stroke:rgb(85,142,213)" clip-path="url(#clip175)" />
<clipPath id="clip176"><path d="M851,913 L864,913 L864,926 L851,926 L851,913 Z" /></clipPath>
<path d="M855,919 L859,919" style="fill:none;stroke:rgb(150,160,200)" clip-path="url(#clip176)" />
<clipPath id="clip177"><path d="M870,880 L1115,880 L1115,912 L870,912 L870,880 Z" /></clipPath>
<path d="M873,909 L1111,909 Z M873,909" style="fill:none;stroke:rgb(85,142,213);stroke-width:3" clip-path="url(#clip177)" />
<text x="884" y="898" style="font:10px 微软雅黑">数组（顶点）+二维数组（弧）+个数</text>
<clipPath id="clip178"><path d="M871,912 L1184,912 L1184,973 L871,973 Z M873,929 L873,954 L948,954 L948,929 Z M873,929 Z M873,929" /></clipPath>
<path d="M961,955 C963.4453125,945 967.109375,940 972,940" style="fill:none;stroke:rgb(85,142,213)" clip-path="url(#clip178)" />
<clipPath id="clip179"><path d="M871,912 L1184,912 L1184,973 L871,973 Z M873,929 L873,954 L948,954 L948,929 Z M873,929 Z M873,929" /></clipPath>
<path d="M961,955 C963.4453125,965.6679688 967.109375,971 972,971" style="fill:none;stroke:rgb(85,142,213)" clip-path="url(#clip179)" />
<clipPath id="clip180"><path d="M870,911 L1185,911 L1185,974 L870,974 L870,911 Z" /></clipPath>
<path d="M948,955 L961,955" style="fill:none;stroke:rgb(85,142,213)" clip-path="url(#clip180)" />
<clipPath id="clip181"><path d="M870,926 L952,926 L952,958 L870,958 L870,926 Z" /></clipPath>
<path d="M873,955 L948,955 Z M873,955" style="fill:none;stroke:rgb(85,142,213);stroke-width:3" clip-path="url(#clip181)" />
<text x="884" y="944" style="font:10px 微软雅黑">邻接矩阵</text>
<clipPath id="clip182"><path d="M950,936 L963,936 L963,949 L950,949 L950,936 Z" /></clipPath>
<path d="M960.5,942 C960.5,939.515625 958.484375,937.5 956,937.5 C953.515625,937.5 951.5,939.515625 951.5,942 C951.5,944.484375 953.515625,946.5 956,946.5 C958.484375,946.5 960.5,944.484375 960.5,942 Z M960.5,942" style="fill:rgb(250,250,250);stroke:none" clip-path="url(#clip182)" />
<clipPath id="clip183"><path d="M950,936 L963,936 L963,949 L950,949 L950,936 Z" /></clipPath>
<path d="M960.5,942 C960.5,939.515625 958.484375,937.5 956,937.5 C953.515625,937.5 951.5,939.515625 951.5,942 C951.5,944.484375 953.515625,946.5 956,946.5 C958.484375,946.5 960.5,944.484375 960.5,942 Z M960.5,942" style="fill:none;stroke:rgb(85,142,213)" clip-path="url(#clip183)" />
<clipPath id="clip184"><path d="M950,936 L963,936 L963,949 L950,949 L950,936 Z" /></clipPath>
<path d="M954,942 L958,942" style="fill:none;stroke:rgb(150,160,200)" clip-path="url(#clip184)" />
<clipPath id="clip185"><path d="M969,911 L1185,911 L1185,943 L969,943 L969,911 Z" /></clipPath>
<path d="M972,940 L1181,940 Z M972,940" style="fill:none;stroke:rgb(85,142,213);stroke-width:3" clip-path="url(#clip185)" />
<text x="983" y="929" style="font:10px 微软雅黑">图：用 1/0 表示是否有边（弧）</text>
<clipPath id="clip186"><path d="M969,942 L1103,942 L1103,974 L969,974 L969,942 Z" /></clipPath>
<path d="M972,971 L1099,971 Z M972,971" style="fill:none;stroke:rgb(85,142,213);stroke-width:3" clip-path="url(#clip186)" />
<text x="983" y="960" style="font:10px 微软雅黑">网：权值或无穷大</text>
<clipPath id="clip187"><path d="M772,974 L1127,974 L1127,1035 L772,1035 Z M774,991 L774,1016 L836,1016 L836,991 Z M774,991 Z M774,991" /></clipPath>
<path d="M849,1017 C851.4453125,1007 855.109375,1002 860,1002" style="fill:none;stroke:rgb(85,142,213)" clip-path="url(#clip187)" />
<clipPath id="clip188"><path d="M772,974 L1127,974 L1127,1035 L772,1035 Z M774,991 L774,1016 L836,1016 L836,991 Z M774,991 Z M774,991" /></clipPath>
<path d="M849,1017 C851.4453125,1027.6679688 855.109375,1033 860,1033" style="fill:none;stroke:rgb(85,142,213)" clip-path="url(#clip188)" />
<clipPath id="clip189"><path d="M771,973 L1128,973 L1128,1036 L771,1036 L771,973 Z" /></clipPath>
<path d="M836,1017 L849,1017" style="fill:none;stroke:rgb(85,142,213)" clip-path="url(#clip189)" />
<clipPath id="clip190"><path d="M771,988 L840,988 L840,1020 L771,1020 L771,988 Z" /></clipPath>
<path d="M774,1017 L836,1017 Z M774,1017" style="fill:none;stroke:rgb(85,142,213);stroke-width:3" clip-path="url(#clip190)" />
<text x="785" y="1006" style="font:10px 微软雅黑">邻接表</text>
<clipPath id="clip191"><path d="M838,998 L851,998 L851,1011 L838,1011 L838,998 Z" /></clipPath>
<path d="M848.5,1004 C848.5,1001.515625 846.484375,999.5 844,999.5 C841.515625,999.5 839.5,1001.515625 839.5,1004 C839.5,1006.484375 841.515625,1008.5 844,1008.5 C846.484375,1008.5 848.5,1006.484375 848.5,1004 Z M848.5,1004" style="fill:rgb(250,250,250);stroke:none" clip-path="url(#clip191)" />
<clipPath id="clip192"><path d="M838,998 L851,998 L851,1011 L838,1011 L838,998 Z" /></clipPath>
<path d="M848.5,1004 C848.5,1001.515625 846.484375,999.5 844,999.5 C841.515625,999.5 839.5,1001.515625 839.5,1004 C839.5,1006.484375 841.515625,1008.5 844,1008.5 C846.484375,1008.5 848.5,1006.484375 848.5,1004 Z M848.5,1004" style="fill:none;stroke:rgb(85,142,213)" clip-path="url(#clip192)" />
<clipPath id="clip193"><path d="M838,998 L851,998 L851,1011 L838,1011 L838,998 Z" /></clipPath>
<path d="M842,1004 L846,1004" style="fill:none;stroke:rgb(150,160,200)" clip-path="url(#clip193)" />
<clipPath id="clip194"><path d="M857,973 L1128,973 L1128,1005 L857,1005 L857,973 Z" /></clipPath>
<path d="M860,1002 L1124,1002 Z M860,1002" style="fill:none;stroke:rgb(85,142,213);stroke-width:3" clip-path="url(#clip194)" />
<text x="871" y="991" style="font:10px 微软雅黑">数组（弧尾顶点）+链表（邻接点）+个数</text>
<clipPath id="clip195"><path d="M857,1004 L1108,1004 L1108,1036 L857,1036 L857,1004 Z" /></clipPath>
<path d="M860,1033 L1104,1033 Z M860,1033" style="fill:none;stroke:rgb(85,142,213);stroke-width:3" clip-path="url(#clip195)" />
<text x="871" y="1022" style="font:10px 微软雅黑">每个顶点对应一个存储邻接点的单链表</text>
<clipPath id="clip196"><path d="M771,1035 L853,1035 L853,1067 L771,1067 L771,1035 Z" /></clipPath>
<path d="M774,1064 L849,1064 Z M774,1064" style="fill:none;stroke:rgb(85,142,213);stroke-width:3" clip-path="url(#clip196)" />
<text x="785" y="1053" style="font:10px 微软雅黑">逆邻接表</text>
<clipPath id="clip197"><path d="M772,1067 L1166,1067 L1166,1128 L772,1128 Z M774,1084 L774,1109 L849,1109 L849,1084 Z M774,1084 Z M774,1084" /></clipPath>
<path d="M862,1110 C864.4453125,1100 868.109375,1095 873,1095" style="fill:none;stroke:rgb(85,142,213)" clip-path="url(#clip197)" />
<clipPath id="clip198"><path d="M772,1067 L1166,1067 L1166,1128 L772,1128 Z M774,1084 L774,1109 L849,1109 L849,1084 Z M774,1084 Z M774,1084" /></clipPath>
<path d="M862,1110 C864.4453125,1120.6679688 868.109375,1126 873,1126" style="fill:none;stroke:rgb(85,142,213)" clip-path="url(#clip198)" />
<clipPath id="clip199"><path d="M771,1066 L1167,1066 L1167,1129 L771,1129 L771,1066 Z" /></clipPath>
<path d="M849,1110 L862,1110" style="fill:none;stroke:rgb(85,142,213)" clip-path="url(#clip199)" />
<clipPath id="clip200"><path d="M771,1081 L853,1081 L853,1113 L771,1113 L771,1081 Z" /></clipPath>
<path d="M774,1110 L849,1110 Z M774,1110" style="fill:none;stroke:rgb(85,142,213);stroke-width:3" clip-path="url(#clip200)" />
<text x="785" y="1099" style="font:10px 微软雅黑">十字链表</text>
<clipPath id="clip201"><path d="M851,1091 L864,1091 L864,1104 L851,1104 L851,1091 Z" /></clipPath>
<path d="M861.5,1097 C861.5,1094.515625 859.484375,1092.5 857,1092.5 C854.515625,1092.5 852.5,1094.515625 852.5,1097 C852.5,1099.484375 854.515625,1101.5 857,1101.5 C859.484375,1101.5 861.5,1099.484375 861.5,1097 Z M861.5,1097" style="fill:rgb(250,250,250);stroke:none" clip-path="url(#clip201)" />
<clipPath id="clip202"><path d="M851,1091 L864,1091 L864,1104 L851,1104 L851,1091 Z" /></clipPath>
<path d="M861.5,1097 C861.5,1094.515625 859.484375,1092.5 857,1092.5 C854.515625,1092.5 852.5,1094.515625 852.5,1097 C852.5,1099.484375 854.515625,1101.5 857,1101.5 C859.484375,1101.5 861.5,1099.484375 861.5,1097 Z M861.5,1097" style="fill:none;stroke:rgb(85,142,213)" clip-path="url(#clip202)" />
<clipPath id="clip203"><path d="M851,1091 L864,1091 L864,1104 L851,1104 L851,1091 Z" /></clipPath>
<path d="M855,1097 L859,1097" style="fill:none;stroke:rgb(150,160,200)" clip-path="url(#clip203)" />
<clipPath id="clip204"><path d="M870,1066 L1043,1066 L1043,1098 L870,1098 L870,1066 Z" /></clipPath>
<path d="M873,1095 L1039,1095 Z M873,1095" style="fill:none;stroke:rgb(85,142,213);stroke-width:3" clip-path="url(#clip204)" />
<text x="884" y="1084" style="font:10px 微软雅黑">邻接表与逆邻接表的结合</text>
<clipPath id="clip205"><path d="M870,1097 L1167,1097 L1167,1129 L870,1129 L870,1097 Z" /></clipPath>
<path d="M873,1126 L1163,1126 Z M873,1126" style="fill:none;stroke:rgb(85,142,213);stroke-width:3" clip-path="url(#clip205)" />
<text x="884" y="1115" style="font:10px 微软雅黑">数组（顶点）+弧结点（含弧头和弧尾）+个数</text>
<clipPath id="clip206"><path d="M772,1129 L1039,1129 L1039,1190 L772,1190 Z M774,1146 L774,1171 L862,1171 L862,1146 Z M774,1146 Z M774,1146" /></clipPath>
<path d="M875,1172 C877.4453125,1162 881.109375,1157 886,1157" style="fill:none;stroke:rgb(85,142,213)" clip-path="url(#clip206)" />
<clipPath id="clip207"><path d="M772,1129 L1039,1129 L1039,1190 L772,1190 Z M774,1146 L774,1171 L862,1171 L862,1146 Z M774,1146 Z M774,1146" /></clipPath>
<path d="M875,1172 C877.4453125,1182.6679688 881.109375,1188 886,1188" style="fill:none;stroke:rgb(85,142,213)" clip-path="url(#clip207)" />
<clipPath id="clip208"><path d="M771,1128 L1040,1128 L1040,1191 L771,1191 L771,1128 Z" /></clipPath>
<path d="M862,1172 L875,1172" style="fill:none;stroke:rgb(85,142,213)" clip-path="url(#clip208)" />
<clipPath id="clip209"><path d="M771,1143 L866,1143 L866,1175 L771,1175 L771,1143 Z" /></clipPath>
<path d="M774,1172 L862,1172 Z M774,1172" style="fill:none;stroke:rgb(85,142,213);stroke-width:3" clip-path="url(#clip209)" />
<text x="785" y="1161" style="font:10px 微软雅黑">邻接多重表</text>
<clipPath id="clip210"><path d="M864,1153 L877,1153 L877,1166 L864,1166 L864,1153 Z" /></clipPath>
<path d="M874.5,1159 C874.5,1156.515625 872.484375,1154.5 870,1154.5 C867.515625,1154.5 865.5,1156.515625 865.5,1159 C865.5,1161.484375 867.515625,1163.5 870,1163.5 C872.484375,1163.5 874.5,1161.484375 874.5,1159 Z M874.5,1159" style="fill:rgb(250,250,250);stroke:none" clip-path="url(#clip210)" />
<clipPath id="clip211"><path d="M864,1153 L877,1153 L877,1166 L864,1166 L864,1153 Z" /></clipPath>
<path d="M874.5,1159 C874.5,1156.515625 872.484375,1154.5 870,1154.5 C867.515625,1154.5 865.5,1156.515625 865.5,1159 C865.5,1161.484375 867.515625,1163.5 870,1163.5 C872.484375,1163.5 874.5,1161.484375 874.5,1159 Z M874.5,1159" style="fill:none;stroke:rgb(85,142,213)" clip-path="url(#clip211)" />
<clipPath id="clip212"><path d="M864,1153 L877,1153 L877,1166 L864,1166 L864,1153 Z" /></clipPath>
<path d="M868,1159 L872,1159" style="fill:none;stroke:rgb(150,160,200)" clip-path="url(#clip212)" />
<clipPath id="clip213"><path d="M883,1128 L991,1128 L991,1160 L883,1160 L883,1128 Z" /></clipPath>
<path d="M886,1157 L987,1157 Z M886,1157" style="fill:none;stroke:rgb(85,142,213);stroke-width:3" clip-path="url(#clip213)" />
<text x="897" y="1146" style="font:10px 微软雅黑">只用于无向图</text>
<clipPath id="clip214"><path d="M883,1159 L1040,1159 L1040,1191 L883,1191 L883,1159 Z" /></clipPath>
<path d="M886,1188 L1036,1188 Z M886,1188" style="fill:none;stroke:rgb(85,142,213);stroke-width:3" clip-path="url(#clip214)" />
<text x="897" y="1177" style="font:10px 微软雅黑">数组（顶点）+边结点</text>
<clipPath id="clip215"><path d="M569,1220 L794,1220 L794,1285 L569,1285 Z M575,1243 C572.2382813,1243 570,1245.2382813 570,1248 L570,1278 C570,1280.7617188 572.2382813,1283 575,1283 L662,1283 C664.7617188,1283 667,1280.7617188 667,1278 L667,1248 C667,1245.2382813 664.7617188,1243 662,1243 Z M575,1243 Z M575,1243" /></clipPath>
<path d="M680,1263 C682.2226563,1253 685.5546875,1248 690,1248" style="fill:none;stroke:rgb(85,142,213)" clip-path="url(#clip215)" />
<clipPath id="clip216"><path d="M569,1220 L794,1220 L794,1285 L569,1285 Z M575,1243 C572.2382813,1243 570,1245.2382813 570,1248 L570,1278 C570,1280.7617188 572.2382813,1283 575,1283 L662,1283 C664.7617188,1283 667,1280.7617188 667,1278 L667,1248 C667,1245.2382813 664.7617188,1243 662,1243 Z M575,1243 Z M575,1243" /></clipPath>
<path d="M680,1263 C682.2226563,1273.6679688 685.5546875,1279 690,1279" style="fill:none;stroke:rgb(85,142,213)" clip-path="url(#clip216)" />
<clipPath id="clip217"><path d="M568,1219 L795,1219 L795,1286 L568,1286 L568,1219 Z" /></clipPath>
<path d="M667,1263 L680,1263" style="fill:none;stroke:rgb(85,142,213)" clip-path="url(#clip217)" />
<clipPath id="clip218"><path d="M568,1241 L670,1241 L670,1286 L568,1286 L568,1241 Z" /></clipPath>
<path d="M575,1243 C572.2382813,1243 570,1245.2382813 570,1248 L570,1278 C570,1280.7617188 572.2382813,1283 575,1283 L662,1283 C664.7617188,1283 667,1280.7617188 667,1278 L667,1248 C667,1245.2382813 664.7617188,1243 662,1243 Z M575,1243" style="fill:rgb(220,230,242);stroke:none" clip-path="url(#clip218)" />
<clipPath id="clip219"><path d="M568,1241 L670,1241 L670,1286 L568,1286 L568,1241 Z" /></clipPath>
<path d="M575,1243 C572.2382813,1243 570,1245.2382813 570,1248 L570,1278 C570,1280.7617188 572.2382813,1283 575,1283 L662,1283 C664.7617188,1283 667,1280.7617188 667,1278 L667,1248 C667,1245.2382813 664.7617188,1243 662,1243 Z M575,1243" style="fill:none;stroke:rgb(85,142,213);stroke-width:2" clip-path="url(#clip219)" />
<text x="584" y="1266" style="font:13px 微软雅黑">图的遍历</text>
<clipPath id="clip220"><path d="M668,1257 L681,1257 L681,1270 L668,1270 L668,1257 Z" /></clipPath>
<path d="M678.5,1263 C678.5,1260.515625 676.484375,1258.5 674,1258.5 C671.515625,1258.5 669.5,1260.515625 669.5,1263 C669.5,1265.484375 671.515625,1267.5 674,1267.5 C676.484375,1267.5 678.5,1265.484375 678.5,1263 Z M678.5,1263" style="fill:rgb(250,250,250);stroke:none" clip-path="url(#clip220)" />
<clipPath id="clip221"><path d="M668,1257 L681,1257 L681,1270 L668,1270 L668,1257 Z" /></clipPath>
<path d="M678.5,1263 C678.5,1260.515625 676.484375,1258.5 674,1258.5 C671.515625,1258.5 669.5,1260.515625 669.5,1263 C669.5,1265.484375 671.515625,1267.5 674,1267.5 C676.484375,1267.5 678.5,1265.484375 678.5,1263 Z M678.5,1263" style="fill:none;stroke:rgb(85,142,213)" clip-path="url(#clip221)" />
<clipPath id="clip222"><path d="M668,1257 L681,1257 L681,1270 L668,1270 L668,1257 Z" /></clipPath>
<path d="M672,1263 L676,1263" style="fill:none;stroke:rgb(150,160,200)" clip-path="url(#clip222)" />
<clipPath id="clip223"><path d="M687,1219 L795,1219 L795,1251 L687,1251 L687,1219 Z" /></clipPath>
<path d="M690,1248 L791,1248 Z M690,1248" style="fill:none;stroke:rgb(85,142,213);stroke-width:3" clip-path="url(#clip223)" />
<text x="701" y="1237" style="font:10px 微软雅黑">深度优先搜索</text>
<clipPath id="clip224"><path d="M687,1250 L795,1250 L795,1282 L687,1282 L687,1250 Z" /></clipPath>
<path d="M690,1279 L791,1279 Z M690,1279" style="fill:none;stroke:rgb(85,142,213);stroke-width:3" clip-path="url(#clip224)" />
<text x="701" y="1268" style="font:10px 微软雅黑">广度优先搜索</text>
<clipPath id="clip225"><path d="M15,888 L416,888 L416,1073 L15,1073 Z M271,973 C268.2382813,973 266,975.2382813 266,978 L266,1008 C266,1010.7617188 268.2382813,1013 271,1013 L409,1013 C411.7617188,1013 414,1010.7617188 414,1008 L414,978 C414,975.2382813 411.7617188,973 409,973 Z M271,973 Z M271,973" /></clipPath>
<path d="M253,993 C250.7773438,941.6679688 247.4453125,916 243,916" style="fill:none;stroke:rgb(85,142,213)" clip-path="url(#clip225)" />
<clipPath id="clip226"><path d="M15,888 L416,888 L416,1073 L15,1073 Z M271,973 C268.2382813,973 266,975.2382813 266,978 L266,1008 C266,1010.7617188 268.2382813,1013 271,1013 L409,1013 C411.7617188,1013 414,1010.7617188 414,1008 L414,978 C414,975.2382813 411.7617188,973 409,973 Z M271,973 Z M271,973" /></clipPath>
<path d="M253,993 C250.7773438,962.3320313 247.4453125,947 243,947" style="fill:none;stroke:rgb(85,142,213)" clip-path="url(#clip226)" />
<clipPath id="clip227"><path d="M15,888 L416,888 L416,1073 L15,1073 Z M271,973 C268.2382813,973 266,975.2382813 266,978 L266,1008 C266,1010.7617188 268.2382813,1013 271,1013 L409,1013 C411.7617188,1013 414,1010.7617188 414,1008 L414,978 C414,975.2382813 411.7617188,973 409,973 Z M271,973 Z M271,973" /></clipPath>
<path d="M253,993 C250.7773438,1003.6679688 247.4453125,1009 243,1009" style="fill:none;stroke:rgb(85,142,213)" clip-path="url(#clip227)" />
<clipPath id="clip228"><path d="M15,888 L416,888 L416,1073 L15,1073 Z M271,973 C268.2382813,973 266,975.2382813 266,978 L266,1008 C266,1010.7617188 268.2382813,1013 271,1013 L409,1013 C411.7617188,1013 414,1010.7617188 414,1008 L414,978 C414,975.2382813 411.7617188,973 409,973 Z M271,973 Z M271,973" /></clipPath>
<path d="M253,993 C250.7773438,1045 247.4453125,1071 243,1071" style="fill:none;stroke:rgb(85,142,213)" clip-path="url(#clip228)" />
<clipPath id="clip229"><path d="M14,887 L417,887 L417,1074 L14,1074 L14,887 Z" /></clipPath>
<path d="M266,993 L253,993" style="fill:none;stroke:rgb(85,142,213)" clip-path="url(#clip229)" />
<clipPath id="clip230"><path d="M264,971 L417,971 L417,1016 L264,1016 L264,971 Z" /></clipPath>
<path d="M271,973 C268.2382813,973 266,975.2382813 266,978 L266,1008 C266,1010.7617188 268.2382813,1013 271,1013 L409,1013 C411.7617188,1013 414,1010.7617188 414,1008 L414,978 C414,975.2382813 411.7617188,973 409,973 Z M271,973" style="fill:rgb(220,230,242);stroke:none" clip-path="url(#clip230)" />
<clipPath id="clip231"><path d="M264,971 L417,971 L417,1016 L264,1016 L264,971 Z" /></clipPath>
<path d="M271,973 C268.2382813,973 266,975.2382813 266,978 L266,1008 C266,1010.7617188 268.2382813,1013 271,1013 L409,1013 C411.7617188,1013 414,1010.7617188 414,1008 L414,978 C414,975.2382813 411.7617188,973 409,973 Z M271,973" style="fill:none;stroke:rgb(85,142,213);stroke-width:2" clip-path="url(#clip231)" />
<text x="281" y="996" style="font:13px 微软雅黑">图的连通性问题</text>
<clipPath id="clip232"><path d="M253,987 L266,987 L266,1000 L253,1000 L253,987 Z" /></clipPath>
<path d="M263.5,993 C263.5,990.515625 261.484375,988.5 259,988.5 C256.515625,988.5 254.5,990.515625 254.5,993 C254.5,995.484375 256.515625,997.5 259,997.5 C261.484375,997.5 263.5,995.484375 263.5,993 Z M263.5,993" style="fill:rgb(250,250,250);stroke:none" clip-path="url(#clip232)" />
<clipPath id="clip233"><path d="M253,987 L266,987 L266,1000 L253,1000 L253,987 Z" /></clipPath>
<path d="M263.5,993 C263.5,990.515625 261.484375,988.5 259,988.5 C256.515625,988.5 254.5,990.515625 254.5,993 C254.5,995.484375 256.515625,997.5 259,997.5 C261.484375,997.5 263.5,995.484375 263.5,993 Z M263.5,993" style="fill:none;stroke:rgb(85,142,213)" clip-path="url(#clip233)" />
<clipPath id="clip234"><path d="M253,987 L266,987 L266,1000 L253,1000 L253,987 Z" /></clipPath>
<path d="M257,993 L261,993" style="fill:none;stroke:rgb(150,160,200)" clip-path="url(#clip234)" />
<clipPath id="clip235"><path d="M61,887 L247,887 L247,919 L61,919 L61,887 Z" /></clipPath>
<path d="M64,916 L243,916 Z M64,916" style="fill:none;stroke:rgb(85,142,213);stroke-width:3" clip-path="url(#clip235)" />
<text x="76" y="905" style="font:10px 微软雅黑">无向图的连通分量和生成树</text>
<clipPath id="clip236"><path d="M100,918 L247,918 L247,950 L100,950 L100,918 Z" /></clipPath>
<path d="M103,947 L243,947 Z M103,947" style="fill:none;stroke:rgb(85,142,213);stroke-width:3" clip-path="url(#clip236)" />
<text x="115" y="936" style="font:10px 微软雅黑">有向图的强连通分量</text>
<clipPath id="clip237"><path d="M15,950 L246,950 L246,1042 L15,1042 Z M155,983 L155,1008 L243,1008 L243,983 Z M155,983 Z M155,983" /></clipPath>
<path d="M142,1009 C139.5546875,988.3320313 135.890625,978 131,978" style="fill:none;stroke:rgb(85,142,213)" clip-path="url(#clip237)" />
<clipPath id="clip238"><path d="M15,950 L246,950 L246,1042 L15,1042 Z M155,983 L155,1008 L243,1008 L243,983 Z M155,983 Z M155,983" /></clipPath>
<path d="M142,1009 C139.5546875,1009 135.890625,1009 131,1009" style="fill:none;stroke:rgb(85,142,213)" clip-path="url(#clip238)" />
<clipPath id="clip239"><path d="M15,950 L246,950 L246,1042 L15,1042 Z M155,983 L155,1008 L243,1008 L243,983 Z M155,983 Z M155,983" /></clipPath>
<path d="M142,1009 C139.5546875,1029.6679688 135.890625,1040 131,1040" style="fill:none;stroke:rgb(85,142,213)" clip-path="url(#clip239)" />
<clipPath id="clip240"><path d="M14,949 L247,949 L247,1043 L14,1043 L14,949 Z" /></clipPath>
<path d="M155,1009 L142,1009" style="fill:none;stroke:rgb(85,142,213)" clip-path="url(#clip240)" />
<clipPath id="clip241"><path d="M152,980 L247,980 L247,1012 L152,1012 L152,980 Z" /></clipPath>
<path d="M155,1009 L243,1009 Z M155,1009" style="fill:none;stroke:rgb(85,142,213);stroke-width:3" clip-path="url(#clip241)" />
<text x="167" y="998" style="font:10px 微软雅黑">最小生成树</text>
<clipPath id="clip242"><path d="M141,990 L154,990 L154,1003 L141,1003 L141,990 Z" /></clipPath>
<path d="M151.5,996 C151.5,993.515625 149.484375,991.5 147,991.5 C144.515625,991.5 142.5,993.515625 142.5,996 C142.5,998.484375 144.515625,1000.5 147,1000.5 C149.484375,1000.5 151.5,998.484375 151.5,996 Z M151.5,996" style="fill:rgb(250,250,250);stroke:none" clip-path="url(#clip242)" />
<clipPath id="clip243"><path d="M141,990 L154,990 L154,1003 L141,1003 L141,990 Z" /></clipPath>
<path d="M151.5,996 C151.5,993.515625 149.484375,991.5 147,991.5 C144.515625,991.5 142.5,993.515625 142.5,996 C142.5,998.484375 144.515625,1000.5 147,1000.5 C149.484375,1000.5 151.5,998.484375 151.5,996 Z M151.5,996" style="fill:none;stroke:rgb(85,142,213)" clip-path="url(#clip243)" />
<clipPath id="clip244"><path d="M141,990 L154,990 L154,1003 L141,1003 L141,990 Z" /></clipPath>
<path d="M145,996 L149,996" style="fill:none;stroke:rgb(150,160,200)" clip-path="url(#clip244)" />
<clipPath id="clip245"><path d="M47,949 L135,949 L135,981 L47,981 L47,949 Z" /></clipPath>
<path d="M50,978 L131,978 Z M50,978" style="fill:none;stroke:rgb(85,142,213);stroke-width:3" clip-path="url(#clip245)" />
<text x="62" y="967" style="font:10px 微软雅黑">MST 性质</text>
<clipPath id="clip246"><path d="M40,980 L135,980 L135,1012 L40,1012 L40,980 Z" /></clipPath>
<path d="M43,1009 L131,1009 Z M43,1009" style="fill:none;stroke:rgb(85,142,213);stroke-width:3" clip-path="url(#clip246)" />
<text x="55" y="998" style="font:10px 微软雅黑">普里姆算法</text>
<clipPath id="clip247"><path d="M14,1011 L135,1011 L135,1043 L14,1043 L14,1011 Z" /></clipPath>
<path d="M17,1040 L131,1040 Z M17,1040" style="fill:none;stroke:rgb(85,142,213);stroke-width:3" clip-path="url(#clip247)" />
<text x="29" y="1029" style="font:10px 微软雅黑">克鲁斯卡尔算法</text>
<clipPath id="clip248"><path d="M100,1042 L247,1042 L247,1074 L100,1074 L100,1042 Z" /></clipPath>
<path d="M103,1071 L243,1071 Z M103,1071" style="fill:none;stroke:rgb(85,142,213);stroke-width:3" clip-path="url(#clip248)" />
<text x="115" y="1060" style="font:10px 微软雅黑">关节点和重连通分量</text>
<clipPath id="clip249"><path d="M114,765 L411,765 L411,857 L114,857 Z M232,804 C229.2382813,804 227,806.2382813 227,809 L227,839 C227,841.7617188 229.2382813,844 232,844 L404,844 C406.7617188,844 409,841.7617188 409,839 L409,809 C409,806.2382813 406.7617188,804 404,804 Z M232,804 Z M232,804" /></clipPath>
<path d="M214,824 C211.7773438,803.3320313 208.4453125,793 204,793" style="fill:none;stroke:rgb(85,142,213)" clip-path="url(#clip249)" />
<clipPath id="clip250"><path d="M114,765 L411,765 L411,857 L114,857 Z M232,804 C229.2382813,804 227,806.2382813 227,809 L227,839 C227,841.7617188 229.2382813,844 232,844 L404,844 C406.7617188,844 409,841.7617188 409,839 L409,809 C409,806.2382813 406.7617188,804 404,804 Z M232,804 Z M232,804" /></clipPath>
<path d="M214,824 C211.7773438,824 208.4453125,824 204,824" style="fill:none;stroke:rgb(85,142,213)" clip-path="url(#clip250)" />
<clipPath id="clip251"><path d="M114,765 L411,765 L411,857 L114,857 Z M232,804 C229.2382813,804 227,806.2382813 227,809 L227,839 C227,841.7617188 229.2382813,844 232,844 L404,844 C406.7617188,844 409,841.7617188 409,839 L409,809 C409,806.2382813 406.7617188,804 404,804 Z M232,804 Z M232,804" /></clipPath>
<path d="M214,824 C211.7773438,844.6679688 208.4453125,855 204,855" style="fill:none;stroke:rgb(85,142,213)" clip-path="url(#clip251)" />
<clipPath id="clip252"><path d="M113,764 L412,764 L412,858 L113,858 L113,764 Z" /></clipPath>
<path d="M227,824 L214,824" style="fill:none;stroke:rgb(85,142,213)" clip-path="url(#clip252)" />
<clipPath id="clip253"><path d="M225,802 L412,802 L412,847 L225,847 L225,802 Z" /></clipPath>
<path d="M232,804 C229.2382813,804 227,806.2382813 227,809 L227,839 C227,841.7617188 229.2382813,844 232,844 L404,844 C406.7617188,844 409,841.7617188 409,839 L409,809 C409,806.2382813 406.7617188,804 404,804 Z M232,804" style="fill:rgb(220,230,242);stroke:none" clip-path="url(#clip253)" />
<clipPath id="clip254"><path d="M225,802 L412,802 L412,847 L225,847 L225,802 Z" /></clipPath>
<path d="M232,804 C229.2382813,804 227,806.2382813 227,809 L227,839 C227,841.7617188 229.2382813,844 232,844 L404,844 C406.7617188,844 409,841.7617188 409,839 L409,809 C409,806.2382813 406.7617188,804 404,804 Z M232,804" style="fill:none;stroke:rgb(85,142,213);stroke-width:2" clip-path="url(#clip254)" />
<text x="242" y="828" style="font:13px 微软雅黑">有向无环图及其应用</text>
<clipPath id="clip255"><path d="M214,818 L227,818 L227,831 L214,831 L214,818 Z" /></clipPath>
<path d="M224.5,824 C224.5,821.515625 222.484375,819.5 220,819.5 C217.515625,819.5 215.5,821.515625 215.5,824 C215.5,826.484375 217.515625,828.5 220,828.5 C222.484375,828.5 224.5,826.484375 224.5,824 Z M224.5,824" style="fill:rgb(250,250,250);stroke:none" clip-path="url(#clip255)" />
<clipPath id="clip256"><path d="M214,818 L227,818 L227,831 L214,831 L214,818 Z" /></clipPath>
<path d="M224.5,824 C224.5,821.515625 222.484375,819.5 220,819.5 C217.515625,819.5 215.5,821.515625 215.5,824 C215.5,826.484375 217.515625,828.5 220,828.5 C222.484375,828.5 224.5,826.484375 224.5,824 Z M224.5,824" style="fill:none;stroke:rgb(85,142,213)" clip-path="url(#clip256)" />
<clipPath id="clip257"><path d="M214,818 L227,818 L227,831 L214,831 L214,818 Z" /></clipPath>
<path d="M218,824 L222,824" style="fill:none;stroke:rgb(150,160,200)" clip-path="url(#clip257)" />
<clipPath id="clip258"><path d="M113,764 L208,764 L208,796 L113,796 L113,764 Z" /></clipPath>
<path d="M116,793 L204,793 Z M116,793" style="fill:none;stroke:rgb(85,142,213);stroke-width:3" clip-path="url(#clip258)" />
<text x="128" y="783" style="font:10px 微软雅黑">有向无环图</text>
<clipPath id="clip259"><path d="M126,795 L208,795 L208,827 L126,827 L126,795 Z" /></clipPath>
<path d="M129,824 L204,824 Z M129,824" style="fill:none;stroke:rgb(85,142,213);stroke-width:3" clip-path="url(#clip259)" />
<text x="141" y="814" style="font:10px 微软雅黑">拓扑排序</text>
<clipPath id="clip260"><path d="M126,826 L208,826 L208,858 L126,858 L126,826 Z" /></clipPath>
<path d="M129,855 L204,855 Z M129,855" style="fill:none;stroke:rgb(85,142,213);stroke-width:3" clip-path="url(#clip260)" />
<text x="141" y="845" style="font:10px 微软雅黑">关键路径</text>
<clipPath id="clip261"><path d="M178,671 L416,671 L416,736 L178,736 Z M322,694 C319.2382813,694 317,696.2382813 317,699 L317,729 C317,731.7617188 319.2382813,734 322,734 L409,734 C411.7617188,734 414,731.7617188 414,729 L414,699 C414,696.2382813 411.7617188,694 409,694 Z M322,694 Z M322,694" /></clipPath>
<path d="M304,714 C301.7773438,704 298.4453125,699 294,699" style="fill:none;stroke:rgb(85,142,213)" clip-path="url(#clip261)" />
<clipPath id="clip262"><path d="M178,671 L416,671 L416,736 L178,736 Z M322,694 C319.2382813,694 317,696.2382813 317,699 L317,729 C317,731.7617188 319.2382813,734 322,734 L409,734 C411.7617188,734 414,731.7617188 414,729 L414,699 C414,696.2382813 411.7617188,694 409,694 Z M322,694 Z M322,694" /></clipPath>
<path d="M304,714 C301.7773438,724.6679688 298.4453125,730 294,730" style="fill:none;stroke:rgb(85,142,213)" clip-path="url(#clip262)" />
<clipPath id="clip263"><path d="M177,670 L417,670 L417,737 L177,737 L177,670 Z" /></clipPath>
<path d="M317,714 L304,714" style="fill:none;stroke:rgb(85,142,213)" clip-path="url(#clip263)" />
<clipPath id="clip264"><path d="M315,692 L417,692 L417,737 L315,737 L315,692 Z" /></clipPath>
<path d="M322,694 C319.2382813,694 317,696.2382813 317,699 L317,729 C317,731.7617188 319.2382813,734 322,734 L409,734 C411.7617188,734 414,731.7617188 414,729 L414,699 C414,696.2382813 411.7617188,694 409,694 Z M322,694" style="fill:rgb(220,230,242);stroke:none" clip-path="url(#clip264)" />
<clipPath id="clip265"><path d="M315,692 L417,692 L417,737 L315,737 L315,692 Z" /></clipPath>
<path d="M322,694 C319.2382813,694 317,696.2382813 317,699 L317,729 C317,731.7617188 319.2382813,734 322,734 L409,734 C411.7617188,734 414,731.7617188 414,729 L414,699 C414,696.2382813 411.7617188,694 409,694 Z M322,694" style="fill:none;stroke:rgb(85,142,213);stroke-width:2" clip-path="url(#clip265)" />
<text x="332" y="718" style="font:13px 微软雅黑">最短路径</text>
<clipPath id="clip266"><path d="M304,708 L317,708 L317,721 L304,721 L304,708 Z" /></clipPath>
<path d="M314.5,714 C314.5,711.515625 312.484375,709.5 310,709.5 C307.515625,709.5 305.5,711.515625 305.5,714 C305.5,716.484375 307.515625,718.5 310,718.5 C312.484375,718.5 314.5,716.484375 314.5,714 Z M314.5,714" style="fill:rgb(250,250,250);stroke:none" clip-path="url(#clip266)" />
<clipPath id="clip267"><path d="M304,708 L317,708 L317,721 L304,721 L304,708 Z" /></clipPath>
<path d="M314.5,714 C314.5,711.515625 312.484375,709.5 310,709.5 C307.515625,709.5 305.5,711.515625 305.5,714 C305.5,716.484375 307.515625,718.5 310,718.5 C312.484375,718.5 314.5,716.484375 314.5,714 Z M314.5,714" style="fill:none;stroke:rgb(85,142,213)" clip-path="url(#clip267)" />
<clipPath id="clip268"><path d="M304,708 L317,708 L317,721 L304,721 L304,708 Z" /></clipPath>
<path d="M308,714 L312,714" style="fill:none;stroke:rgb(150,160,200)" clip-path="url(#clip268)" />
<clipPath id="clip269"><path d="M177,670 L298,670 L298,702 L177,702 L177,670 Z" /></clipPath>
<path d="M180,699 L294,699 Z M180,699" style="fill:none;stroke:rgb(85,142,213);stroke-width:3" clip-path="url(#clip269)" />
<text x="192" y="689" style="font:10px 微软雅黑">迪杰斯特拉算法</text>
<clipPath id="clip270"><path d="M190,701 L298,701 L298,733 L190,733 L190,701 Z" /></clipPath>
<path d="M193,730 L294,730 Z M193,730" style="fill:none;stroke:rgb(85,142,213);stroke-width:3" clip-path="url(#clip270)" />
<text x="205" y="720" style="font:10px 微软雅黑">弗洛伊德算法</text>
</svg>
