<?xml version="1.0" encoding="UTF-8"?>
<!DOCTYPE svg PUBLIC "-//W3C//DTD SVG 1.1//EN" "http://www.w3.org/Graphics/SVG/1.1/DTD/svg11.dtd">
<svg version="1.2" xmlns="http://www.w3.org/2000/svg" xmlns:xlink="http://www.w3.org/1999/xlink" x="0" y="0" width="902" height="986" viewBox="0 0 902 986">
<style type="text/css"><![CDATA[
text { font:12px Dialog; }
]]></style>
<rect x="-485" y="-485" width="1872" height="1956" style="fill:rgb(255,255,255);stroke:none" />
<clipPath id="clip1"><path d="M15,15 L887,15 L887,971 L15,971 Z M26,482 C21.5820313,482 18,485.5820313 18,490 L18,541 C18,545.4179688 21.5820313,549 26,549 L151,549 C155.4179688,549 159,545.4179688 159,541 L159,490 C159,485.5820313 155.4179688,482 151,482 Z M26,482 Z M26,482" /></clipPath>
<path d="M96.75,482 C111.4726563,302.6679688 133.5546875,213 163,213" style="fill:none;stroke:rgb(85,142,213)" clip-path="url(#clip1)" />
<clipPath id="clip2"><path d="M15,15 L887,15 L887,971 L15,971 Z M26,482 C21.5820313,482 18,485.5820313 18,490 L18,541 C18,545.4179688 21.5820313,549 26,549 L151,549 C155.4179688,549 159,545.4179688 159,541 L159,490 C159,485.5820313 155.4179688,482 151,482 Z M26,482 Z M26,482" /></clipPath>
<path d="M159,534.6328125 C173.2226563,546.2109375 194.5546875,552 223,552" style="fill:none;stroke:rgb(85,142,213)" clip-path="url(#clip2)" />
<clipPath id="clip3"><path d="M15,15 L887,15 L887,971 L15,971 Z M26,482 C21.5820313,482 18,485.5820313 18,490 L18,541 C18,545.4179688 21.5820313,549 26,549 L151,549 C155.4179688,549 159,545.4179688 159,541 L159,490 C159,485.5820313 155.4179688,482 151,482 Z M26,482 Z M26,482" /></clipPath>
<path d="M98.421875,549 C112.7734375,694.3320313 134.3007813,767 163,767" style="fill:none;stroke:rgb(85,142,213)" clip-path="url(#clip3)" />
<clipPath id="clip4"><path d="M14,478 L164,478 L164,554 L14,554 L14,478 Z" /></clipPath>
<path d="M26,482 C21.5820313,482 18,485.5820313 18,490 L18,541 C18,545.4179688 21.5820313,549 26,549 L151,549 C155.4179688,549 159,545.4179688 159,541 L159,490 C159,485.5820313 155.4179688,482 151,482 Z M26,482" style="fill:rgb(220,230,242);stroke:none" clip-path="url(#clip4)" />
<clipPath id="clip5"><path d="M14,478 L164,478 L164,554 L14,554 L14,478 Z" /></clipPath>
<path d="M26,482 C21.5820313,482 18,485.5820313 18,490 L18,541 C18,545.4179688 21.5820313,549 26,549 L151,549 C155.4179688,549 159,545.4179688 159,541 L159,490 C159,485.5820313 155.4179688,482 151,482 Z M26,482" style="fill:none;stroke:rgb(85,142,213);stroke-width:5" clip-path="url(#clip5)" />
<text x="53" y="520" style="font:18px 微软雅黑">广义表</text>
<clipPath id="clip6"><path d="M162,15 L714,15 L714,417 L162,417 Z M168,193 C165.2382813,193 163,195.2382813 163,198 L163,228 C163,230.7617188 165.2382813,233 168,233 L289,233 C291.7617188,233 294,230.7617188 294,228 L294,198 C294,195.2382813 291.7617188,193 289,193 Z M168,193 Z M168,193" /></clipPath>
<path d="M307,213 C309.2226563,99.6679688 312.5546875,43 317,43" style="fill:none;stroke:rgb(85,142,213)" clip-path="url(#clip6)" />
<clipPath id="clip7"><path d="M162,15 L714,15 L714,417 L162,417 Z M168,193 C165.2382813,193 163,195.2382813 163,198 L163,228 C163,230.7617188 165.2382813,233 168,233 L289,233 C291.7617188,233 294,230.7617188 294,228 L294,198 C294,195.2382813 291.7617188,193 289,193 Z M168,193 Z M168,193" /></clipPath>
<path d="M307,213 C309.2226563,141 312.5546875,105 317,105" style="fill:none;stroke:rgb(85,142,213)" clip-path="url(#clip7)" />
<clipPath id="clip8"><path d="M162,15 L714,15 L714,417 L162,417 Z M168,193 C165.2382813,193 163,195.2382813 163,198 L163,228 C163,230.7617188 165.2382813,233 168,233 L289,233 C291.7617188,233 294,230.7617188 294,228 L294,198 C294,195.2382813 291.7617188,193 289,193 Z M168,193 Z M168,193" /></clipPath>
<path d="M307,213 C309.2226563,233.6679688 312.5546875,244 317,244" style="fill:none;stroke:rgb(85,142,213)" clip-path="url(#clip8)" />
<clipPath id="clip9"><path d="M162,15 L714,15 L714,417 L162,417 Z M168,193 C165.2382813,193 163,195.2382813 163,198 L163,228 C163,230.7617188 165.2382813,233 168,233 L289,233 C291.7617188,233 294,230.7617188 294,228 L294,198 C294,195.2382813 291.7617188,193 289,193 Z M168,193 Z M168,193" /></clipPath>
<path d="M307,213 C309.2226563,327 312.5546875,384 317,384" style="fill:none;stroke:rgb(85,142,213)" clip-path="url(#clip9)" />
<clipPath id="clip10"><path d="M161,14 L715,14 L715,418 L161,418 L161,14 Z" /></clipPath>
<path d="M294,213 L307,213" style="fill:none;stroke:rgb(85,142,213)" clip-path="url(#clip10)" />
<clipPath id="clip11"><path d="M161,191 L297,191 L297,236 L161,236 L161,191 Z" /></clipPath>
<path d="M168,193 C165.2382813,193 163,195.2382813 163,198 L163,228 C163,230.7617188 165.2382813,233 168,233 L289,233 C291.7617188,233 294,230.7617188 294,228 L294,198 C294,195.2382813 291.7617188,193 289,193 Z M168,193" style="fill:rgb(220,230,242);stroke:none" clip-path="url(#clip11)" />
<clipPath id="clip12"><path d="M161,191 L297,191 L297,236 L161,236 L161,191 Z" /></clipPath>
<path d="M168,193 C165.2382813,193 163,195.2382813 163,198 L163,228 C163,230.7617188 165.2382813,233 168,233 L289,233 C291.7617188,233 294,230.7617188 294,228 L294,198 C294,195.2382813 291.7617188,193 289,193 Z M168,193" style="fill:none;stroke:rgb(85,142,213);stroke-width:2" clip-path="url(#clip12)" />
<text x="177" y="217" style="font:13px 微软雅黑">广义表的定义</text>
<clipPath id="clip13"><path d="M295,207 L308,207 L308,220 L295,220 L295,207 Z" /></clipPath>
<path d="M305.5,213 C305.5,210.515625 303.484375,208.5 301,208.5 C298.515625,208.5 296.5,210.515625 296.5,213 C296.5,215.484375 298.515625,217.5 301,217.5 C303.484375,217.5 305.5,215.484375 305.5,213 Z M305.5,213" style="fill:rgb(250,250,250);stroke:none" clip-path="url(#clip13)" />
<clipPath id="clip14"><path d="M295,207 L308,207 L308,220 L295,220 L295,207 Z" /></clipPath>
<path d="M305.5,213 C305.5,210.515625 303.484375,208.5 301,208.5 C298.515625,208.5 296.5,210.515625 296.5,213 C296.5,215.484375 298.515625,217.5 301,217.5 C303.484375,217.5 305.5,215.484375 305.5,213 Z M305.5,213" style="fill:none;stroke:rgb(85,142,213)" clip-path="url(#clip14)" />
<clipPath id="clip15"><path d="M295,207 L308,207 L308,220 L295,220 L295,207 Z" /></clipPath>
<path d="M299,213 L303,213" style="fill:none;stroke:rgb(150,160,200)" clip-path="url(#clip15)" />
<clipPath id="clip16"><path d="M315,15 L507,15 L507,45 L315,45 Z M317,17 L317,42 L379,42 L379,17 Z M317,17 Z M317,17" /></clipPath>
<path d="M392,43 C394.4453125,43 398.109375,43 403,43" style="fill:none;stroke:rgb(85,142,213)" clip-path="url(#clip16)" />
<clipPath id="clip17"><path d="M314,14 L508,14 L508,46 L314,46 L314,14 Z" /></clipPath>
<path d="M379,43 L392,43" style="fill:none;stroke:rgb(85,142,213)" clip-path="url(#clip17)" />
<clipPath id="clip18"><path d="M314,14 L383,14 L383,46 L314,46 L314,14 Z" /></clipPath>
<path d="M317,43 L379,43 Z M317,43" style="fill:none;stroke:rgb(85,142,213);stroke-width:3" clip-path="url(#clip18)" />
<text x="328" y="33" style="font:10px 微软雅黑">广义表</text>
<clipPath id="clip19"><path d="M381,24 L394,24 L394,37 L381,37 L381,24 Z" /></clipPath>
<path d="M391.5,30 C391.5,27.515625 389.484375,25.5 387,25.5 C384.515625,25.5 382.5,27.515625 382.5,30 C382.5,32.484375 384.515625,34.5 387,34.5 C389.484375,34.5 391.5,32.484375 391.5,30 Z M391.5,30" style="fill:rgb(250,250,250);stroke:none" clip-path="url(#clip19)" />
<clipPath id="clip20"><path d="M381,24 L394,24 L394,37 L381,37 L381,24 Z" /></clipPath>
<path d="M391.5,30 C391.5,27.515625 389.484375,25.5 387,25.5 C384.515625,25.5 382.5,27.515625 382.5,30 C382.5,32.484375 384.515625,34.5 387,34.5 C389.484375,34.5 391.5,32.484375 391.5,30 Z M391.5,30" style="fill:none;stroke:rgb(85,142,213)" clip-path="url(#clip20)" />
<clipPath id="clip21"><path d="M381,24 L394,24 L394,37 L381,37 L381,24 Z" /></clipPath>
<path d="M385,30 L389,30" style="fill:none;stroke:rgb(150,160,200)" clip-path="url(#clip21)" />
<clipPath id="clip22"><path d="M400,14 L508,14 L508,46 L400,46 L400,14 Z" /></clipPath>
<path d="M403,43 L504,43 Z M403,43" style="fill:none;stroke:rgb(85,142,213);stroke-width:3" clip-path="url(#clip22)" />
<text x="414" y="33" style="font:10px 微软雅黑">线性表的推广</text>
<clipPath id="clip23"><path d="M315,46 L714,46 L714,138 L315,138 Z M317,79 L317,104 L396,104 L396,79 Z M317,79 Z M317,79" /></clipPath>
<path d="M409,105 C411.4453125,84.3320313 415.109375,74 420,74" style="fill:none;stroke:rgb(85,142,213)" clip-path="url(#clip23)" />
<clipPath id="clip24"><path d="M315,46 L714,46 L714,138 L315,138 Z M317,79 L317,104 L396,104 L396,79 Z M317,79 Z M317,79" /></clipPath>
<path d="M409,105 C411.4453125,105 415.109375,105 420,105" style="fill:none;stroke:rgb(85,142,213)" clip-path="url(#clip24)" />
<clipPath id="clip25"><path d="M315,46 L714,46 L714,138 L315,138 Z M317,79 L317,104 L396,104 L396,79 Z M317,79 Z M317,79" /></clipPath>
<path d="M409,105 C411.4453125,125.6679688 415.109375,136 420,136" style="fill:none;stroke:rgb(85,142,213)" clip-path="url(#clip25)" />
<clipPath id="clip26"><path d="M314,45 L715,45 L715,139 L314,139 L314,45 Z" /></clipPath>
<path d="M396,105 L409,105" style="fill:none;stroke:rgb(85,142,213)" clip-path="url(#clip26)" />
<clipPath id="clip27"><path d="M314,76 L400,76 L400,108 L314,108 L314,76 Z" /></clipPath>
<path d="M317,105 L396,105 Z M317,105" style="fill:none;stroke:rgb(85,142,213);stroke-width:3" clip-path="url(#clip27)" />
<text x="328" y="95" style="font:10px 微软雅黑">ADT 定义</text>
<clipPath id="clip28"><path d="M398,86 L411,86 L411,99 L398,99 L398,86 Z" /></clipPath>
<path d="M408.5,92 C408.5,89.515625 406.484375,87.5 404,87.5 C401.515625,87.5 399.5,89.515625 399.5,92 C399.5,94.484375 401.515625,96.5 404,96.5 C406.484375,96.5 408.5,94.484375 408.5,92 Z M408.5,92" style="fill:rgb(250,250,250);stroke:none" clip-path="url(#clip28)" />
<clipPath id="clip29"><path d="M398,86 L411,86 L411,99 L398,99 L398,86 Z" /></clipPath>
<path d="M408.5,92 C408.5,89.515625 406.484375,87.5 404,87.5 C401.515625,87.5 399.5,89.515625 399.5,92 C399.5,94.484375 401.515625,96.5 404,96.5 C406.484375,96.5 408.5,94.484375 408.5,92 Z M408.5,92" style="fill:none;stroke:rgb(85,142,213)" clip-path="url(#clip29)" />
<clipPath id="clip30"><path d="M398,86 L411,86 L411,99 L398,99 L398,86 Z" /></clipPath>
<path d="M402,92 L406,92" style="fill:none;stroke:rgb(150,160,200)" clip-path="url(#clip30)" />
<clipPath id="clip31"><path d="M418,46 L714,46 L714,76 L418,76 Z M420,48 L420,73 L495,73 L495,48 Z M420,48 Z M420,48" /></clipPath>
<path d="M508,74 C510.4453125,74 514.109375,74 519,74" style="fill:none;stroke:rgb(85,142,213)" clip-path="url(#clip31)" />
<clipPath id="clip32"><path d="M417,45 L715,45 L715,77 L417,77 L417,45 Z" /></clipPath>
<path d="M495,74 L508,74" style="fill:none;stroke:rgb(85,142,213)" clip-path="url(#clip32)" />
<clipPath id="clip33"><path d="M417,45 L499,45 L499,77 L417,77 L417,45 Z" /></clipPath>
<path d="M420,74 L495,74 Z M420,74" style="fill:none;stroke:rgb(85,142,213);stroke-width:3" clip-path="url(#clip33)" />
<text x="431" y="64" style="font:10px 微软雅黑">数据对象</text>
<clipPath id="clip34"><path d="M497,55 L510,55 L510,68 L497,68 L497,55 Z" /></clipPath>
<path d="M507.5,61 C507.5,58.515625 505.484375,56.5 503,56.5 C500.515625,56.5 498.5,58.515625 498.5,61 C498.5,63.484375 500.515625,65.5 503,65.5 C505.484375,65.5 507.5,63.484375 507.5,61 Z M507.5,61" style="fill:rgb(250,250,250);stroke:none" clip-path="url(#clip34)" />
<clipPath id="clip35"><path d="M497,55 L510,55 L510,68 L497,68 L497,55 Z" /></clipPath>
<path d="M507.5,61 C507.5,58.515625 505.484375,56.5 503,56.5 C500.515625,56.5 498.5,58.515625 498.5,61 C498.5,63.484375 500.515625,65.5 503,65.5 C505.484375,65.5 507.5,63.484375 507.5,61 Z M507.5,61" style="fill:none;stroke:rgb(85,142,213)" clip-path="url(#clip35)" />
<clipPath id="clip36"><path d="M497,55 L510,55 L510,68 L497,68 L497,55 Z" /></clipPath>
<path d="M501,61 L505,61" style="fill:none;stroke:rgb(150,160,200)" clip-path="url(#clip36)" />
<clipPath id="clip37"><path d="M516,45 L715,45 L715,77 L516,77 L516,45 Z" /></clipPath>
<path d="M519,74 L711,74 Z M519,74" style="fill:none;stroke:rgb(85,142,213);stroke-width:3" clip-path="url(#clip37)" />
<text x="530" y="64" style="font:10px 微软雅黑">数据元素可以是原子或广义表</text>
<clipPath id="clip38"><path d="M418,77 L597,77 L597,107 L418,107 Z M420,79 L420,104 L495,104 L495,79 Z M420,79 Z M420,79" /></clipPath>
<path d="M508,105 C510.4453125,105 514.109375,105 519,105" style="fill:none;stroke:rgb(85,142,213)" clip-path="url(#clip38)" />
<clipPath id="clip39"><path d="M417,76 L598,76 L598,108 L417,108 L417,76 Z" /></clipPath>
<path d="M495,105 L508,105" style="fill:none;stroke:rgb(85,142,213)" clip-path="url(#clip39)" />
<clipPath id="clip40"><path d="M417,76 L499,76 L499,108 L417,108 L417,76 Z" /></clipPath>
<path d="M420,105 L495,105 Z M420,105" style="fill:none;stroke:rgb(85,142,213);stroke-width:3" clip-path="url(#clip40)" />
<text x="431" y="95" style="font:10px 微软雅黑">数据关系</text>
<clipPath id="clip41"><path d="M497,86 L510,86 L510,99 L497,99 L497,86 Z" /></clipPath>
<path d="M507.5,92 C507.5,89.515625 505.484375,87.5 503,87.5 C500.515625,87.5 498.5,89.515625 498.5,92 C498.5,94.484375 500.515625,96.5 503,96.5 C505.484375,96.5 507.5,94.484375 507.5,92 Z M507.5,92" style="fill:rgb(250,250,250);stroke:none" clip-path="url(#clip41)" />
<clipPath id="clip42"><path d="M497,86 L510,86 L510,99 L497,99 L497,86 Z" /></clipPath>
<path d="M507.5,92 C507.5,89.515625 505.484375,87.5 503,87.5 C500.515625,87.5 498.5,89.515625 498.5,92 C498.5,94.484375 500.515625,96.5 503,96.5 C505.484375,96.5 507.5,94.484375 507.5,92 Z M507.5,92" style="fill:none;stroke:rgb(85,142,213)" clip-path="url(#clip42)" />
<clipPath id="clip43"><path d="M497,86 L510,86 L510,99 L497,99 L497,86 Z" /></clipPath>
<path d="M501,92 L505,92" style="fill:none;stroke:rgb(150,160,200)" clip-path="url(#clip43)" />
<clipPath id="clip44"><path d="M516,76 L598,76 L598,108 L516,108 L516,76 Z" /></clipPath>
<path d="M519,105 L594,105 Z M519,105" style="fill:none;stroke:rgb(85,142,213);stroke-width:3" clip-path="url(#clip44)" />
<text x="530" y="95" style="font:10px 微软雅黑">线性关系</text>
<clipPath id="clip45"><path d="M417,107 L499,107 L499,139 L417,139 L417,107 Z" /></clipPath>
<path d="M420,136 L495,136 Z M420,136" style="fill:none;stroke:rgb(85,142,213);stroke-width:3" clip-path="url(#clip45)" />
<text x="431" y="126" style="font:10px 微软雅黑">基本操作</text>
<clipPath id="clip46"><path d="M315,139 L684,139 L684,324 L315,324 Z M317,218 L317,243 L366,243 L366,218 Z M317,218 Z M317,218" /></clipPath>
<path d="M379,244 C381.4453125,202.6679688 385.109375,182 390,182" style="fill:none;stroke:rgb(85,142,213)" clip-path="url(#clip46)" />
<clipPath id="clip47"><path d="M315,139 L684,139 L684,324 L315,324 Z M317,218 L317,243 L366,243 L366,218 Z M317,218 Z M317,218" /></clipPath>
<path d="M379,244 C381.4453125,244 385.109375,244 390,244" style="fill:none;stroke:rgb(85,142,213)" clip-path="url(#clip47)" />
<clipPath id="clip48"><path d="M315,139 L684,139 L684,324 L315,324 Z M317,218 L317,243 L366,243 L366,218 Z M317,218 Z M317,218" /></clipPath>
<path d="M379,244 C381.4453125,285.3320313 385.109375,306 390,306" style="fill:none;stroke:rgb(85,142,213)" clip-path="url(#clip48)" />
<clipPath id="clip49"><path d="M314,138 L685,138 L685,325 L314,325 L314,138 Z" /></clipPath>
<path d="M366,244 L379,244" style="fill:none;stroke:rgb(85,142,213)" clip-path="url(#clip49)" />
<clipPath id="clip50"><path d="M314,215 L370,215 L370,247 L314,247 L314,215 Z" /></clipPath>
<path d="M317,244 L366,244 Z M317,244" style="fill:none;stroke:rgb(85,142,213);stroke-width:3" clip-path="url(#clip50)" />
<text x="328" y="234" style="font:10px 微软雅黑">概念</text>
<clipPath id="clip51"><path d="M368,225 L381,225 L381,238 L368,238 L368,225 Z" /></clipPath>
<path d="M378.5,231 C378.5,228.515625 376.484375,226.5 374,226.5 C371.515625,226.5 369.5,228.515625 369.5,231 C369.5,233.484375 371.515625,235.5 374,235.5 C376.484375,235.5 378.5,233.484375 378.5,231 Z M378.5,231" style="fill:rgb(250,250,250);stroke:none" clip-path="url(#clip51)" />
<clipPath id="clip52"><path d="M368,225 L381,225 L381,238 L368,238 L368,225 Z" /></clipPath>
<path d="M378.5,231 C378.5,228.515625 376.484375,226.5 374,226.5 C371.515625,226.5 369.5,228.515625 369.5,231 C369.5,233.484375 371.515625,235.5 374,235.5 C376.484375,235.5 378.5,233.484375 378.5,231 Z M378.5,231" style="fill:none;stroke:rgb(85,142,213)" clip-path="url(#clip52)" />
<clipPath id="clip53"><path d="M368,225 L381,225 L381,238 L368,238 L368,225 Z" /></clipPath>
<path d="M372,231 L376,231" style="fill:none;stroke:rgb(150,160,200)" clip-path="url(#clip53)" />
<clipPath id="clip54"><path d="M388,139 L645,139 L645,200 L388,200 Z M390,156 L390,181 L439,181 L439,156 Z M390,156 Z M390,156" /></clipPath>
<path d="M452,182 C454.4453125,172 458.109375,167 463,167" style="fill:none;stroke:rgb(85,142,213)" clip-path="url(#clip54)" />
<clipPath id="clip55"><path d="M388,139 L645,139 L645,200 L388,200 Z M390,156 L390,181 L439,181 L439,156 Z M390,156 Z M390,156" /></clipPath>
<path d="M452,182 C454.4453125,192.6679688 458.109375,198 463,198" style="fill:none;stroke:rgb(85,142,213)" clip-path="url(#clip55)" />
<clipPath id="clip56"><path d="M387,138 L646,138 L646,201 L387,201 L387,138 Z" /></clipPath>
<path d="M439,182 L452,182" style="fill:none;stroke:rgb(85,142,213)" clip-path="url(#clip56)" />
<clipPath id="clip57"><path d="M387,153 L443,153 L443,185 L387,185 L387,153 Z" /></clipPath>
<path d="M390,182 L439,182 Z M390,182" style="fill:none;stroke:rgb(85,142,213);stroke-width:3" clip-path="url(#clip57)" />
<text x="401" y="172" style="font:10px 微软雅黑">长度</text>
<clipPath id="clip58"><path d="M441,163 L454,163 L454,176 L441,176 L441,163 Z" /></clipPath>
<path d="M451.5,169 C451.5,166.515625 449.484375,164.5 447,164.5 C444.515625,164.5 442.5,166.515625 442.5,169 C442.5,171.484375 444.515625,173.5 447,173.5 C449.484375,173.5 451.5,171.484375 451.5,169 Z M451.5,169" style="fill:rgb(250,250,250);stroke:none" clip-path="url(#clip58)" />
<clipPath id="clip59"><path d="M441,163 L454,163 L454,176 L441,176 L441,163 Z" /></clipPath>
<path d="M451.5,169 C451.5,166.515625 449.484375,164.5 447,164.5 C444.515625,164.5 442.5,166.515625 442.5,169 C442.5,171.484375 444.515625,173.5 447,173.5 C449.484375,173.5 451.5,171.484375 451.5,169 Z M451.5,169" style="fill:none;stroke:rgb(85,142,213)" clip-path="url(#clip59)" />
<clipPath id="clip60"><path d="M441,163 L454,163 L454,176 L441,176 L441,163 Z" /></clipPath>
<path d="M445,169 L449,169" style="fill:none;stroke:rgb(150,160,200)" clip-path="url(#clip60)" />
<clipPath id="clip61"><path d="M460,138 L568,138 L568,170 L460,170 L460,138 Z" /></clipPath>
<path d="M463,167 L564,167 Z M463,167" style="fill:none;stroke:rgb(85,142,213);stroke-width:3" clip-path="url(#clip61)" />
<text x="474" y="157" style="font:10px 微软雅黑">表中元素个数</text>
<clipPath id="clip62"><path d="M461,170 L645,170 L645,200 L461,200 Z M463,172 L463,197 L528,197 L528,172 Z M463,172 Z M463,172" /></clipPath>
<path d="M541,198 C543.4453125,198 547.109375,198 552,198" style="fill:none;stroke:rgb(85,142,213)" clip-path="url(#clip62)" />
<clipPath id="clip63"><path d="M460,169 L646,169 L646,201 L460,201 L460,169 Z" /></clipPath>
<path d="M528,198 L541,198" style="fill:none;stroke:rgb(85,142,213)" clip-path="url(#clip63)" />
<clipPath id="clip64"><path d="M460,169 L532,169 L532,201 L460,201 L460,169 Z" /></clipPath>
<path d="M463,198 L528,198 Z M463,198" style="fill:none;stroke:rgb(85,142,213);stroke-width:3" clip-path="url(#clip64)" />
<text x="474" y="188" style="font:10px 微软雅黑">空表 ( )</text>
<clipPath id="clip65"><path d="M530,179 L543,179 L543,192 L530,192 L530,179 Z" /></clipPath>
<path d="M540.5,185 C540.5,182.515625 538.484375,180.5 536,180.5 C533.515625,180.5 531.5,182.515625 531.5,185 C531.5,187.484375 533.515625,189.5 536,189.5 C538.484375,189.5 540.5,187.484375 540.5,185 Z M540.5,185" style="fill:rgb(250,250,250);stroke:none" clip-path="url(#clip65)" />
<clipPath id="clip66"><path d="M530,179 L543,179 L543,192 L530,192 L530,179 Z" /></clipPath>
<path d="M540.5,185 C540.5,182.515625 538.484375,180.5 536,180.5 C533.515625,180.5 531.5,182.515625 531.5,185 C531.5,187.484375 533.515625,189.5 536,189.5 C538.484375,189.5 540.5,187.484375 540.5,185 Z M540.5,185" style="fill:none;stroke:rgb(85,142,213)" clip-path="url(#clip66)" />
<clipPath id="clip67"><path d="M530,179 L543,179 L543,192 L530,192 L530,179 Z" /></clipPath>
<path d="M534,185 L538,185" style="fill:none;stroke:rgb(150,160,200)" clip-path="url(#clip67)" />
<clipPath id="clip68"><path d="M549,169 L646,169 L646,201 L549,201 L549,169 Z" /></clipPath>
<path d="M552,198 L642,198 Z M552,198" style="fill:none;stroke:rgb(85,142,213);stroke-width:3" clip-path="url(#clip68)" />
<text x="563" y="188" style="font:10px 微软雅黑">与 (( )) 不同</text>
<clipPath id="clip69"><path d="M388,201 L645,201 L645,262 L388,262 Z M390,218 L390,243 L439,243 L439,218 Z M390,218 Z M390,218" /></clipPath>
<path d="M452,244 C454.4453125,234 458.109375,229 463,229" style="fill:none;stroke:rgb(85,142,213)" clip-path="url(#clip69)" />
<clipPath id="clip70"><path d="M388,201 L645,201 L645,262 L388,262 Z M390,218 L390,243 L439,243 L439,218 Z M390,218 Z M390,218" /></clipPath>
<path d="M452,244 C454.4453125,254.6679688 458.109375,260 463,260" style="fill:none;stroke:rgb(85,142,213)" clip-path="url(#clip70)" />
<clipPath id="clip71"><path d="M387,200 L646,200 L646,263 L387,263 L387,200 Z" /></clipPath>
<path d="M439,244 L452,244" style="fill:none;stroke:rgb(85,142,213)" clip-path="url(#clip71)" />
<clipPath id="clip72"><path d="M387,215 L443,215 L443,247 L387,247 L387,215 Z" /></clipPath>
<path d="M390,244 L439,244 Z M390,244" style="fill:none;stroke:rgb(85,142,213);stroke-width:3" clip-path="url(#clip72)" />
<text x="401" y="234" style="font:10px 微软雅黑">表头</text>
<clipPath id="clip73"><path d="M441,225 L454,225 L454,238 L441,238 L441,225 Z" /></clipPath>
<path d="M451.5,231 C451.5,228.515625 449.484375,226.5 447,226.5 C444.515625,226.5 442.5,228.515625 442.5,231 C442.5,233.484375 444.515625,235.5 447,235.5 C449.484375,235.5 451.5,233.484375 451.5,231 Z M451.5,231" style="fill:rgb(250,250,250);stroke:none" clip-path="url(#clip73)" />
<clipPath id="clip74"><path d="M441,225 L454,225 L454,238 L441,238 L441,225 Z" /></clipPath>
<path d="M451.5,231 C451.5,228.515625 449.484375,226.5 447,226.5 C444.515625,226.5 442.5,228.515625 442.5,231 C442.5,233.484375 444.515625,235.5 447,235.5 C449.484375,235.5 451.5,233.484375 451.5,231 Z M451.5,231" style="fill:none;stroke:rgb(85,142,213)" clip-path="url(#clip74)" />
<clipPath id="clip75"><path d="M441,225 L454,225 L454,238 L441,238 L441,225 Z" /></clipPath>
<path d="M445,231 L449,231" style="fill:none;stroke:rgb(150,160,200)" clip-path="url(#clip75)" />
<clipPath id="clip76"><path d="M460,200 L555,200 L555,232 L460,232 L460,200 Z" /></clipPath>
<path d="M463,229 L551,229 Z M463,229" style="fill:none;stroke:rgb(85,142,213);stroke-width:3" clip-path="url(#clip76)" />
<text x="474" y="219" style="font:10px 微软雅黑">第一个元素</text>
<clipPath id="clip77"><path d="M460,231 L646,231 L646,263 L460,263 L460,231 Z" /></clipPath>
<path d="M463,260 L642,260 Z M463,260" style="fill:none;stroke:rgb(85,142,213);stroke-width:3" clip-path="url(#clip77)" />
<text x="474" y="250" style="font:10px 微软雅黑">可能是原子，也可能是列表</text>
<clipPath id="clip78"><path d="M388,263 L684,263 L684,324 L388,324 Z M390,280 L390,305 L439,305 L439,280 Z M390,280 Z M390,280" /></clipPath>
<path d="M452,306 C454.4453125,296 458.109375,291 463,291" style="fill:none;stroke:rgb(85,142,213)" clip-path="url(#clip78)" />
<clipPath id="clip79"><path d="M388,263 L684,263 L684,324 L388,324 Z M390,280 L390,305 L439,305 L439,280 Z M390,280 Z M390,280" /></clipPath>
<path d="M452,306 C454.4453125,316.6679688 458.109375,322 463,322" style="fill:none;stroke:rgb(85,142,213)" clip-path="url(#clip79)" />
<clipPath id="clip80"><path d="M387,262 L685,262 L685,325 L387,325 L387,262 Z" /></clipPath>
<path d="M439,306 L452,306" style="fill:none;stroke:rgb(85,142,213)" clip-path="url(#clip80)" />
<clipPath id="clip81"><path d="M387,277 L443,277 L443,309 L387,309 L387,277 Z" /></clipPath>
<path d="M390,306 L439,306 Z M390,306" style="fill:none;stroke:rgb(85,142,213);stroke-width:3" clip-path="url(#clip81)" />
<text x="401" y="296" style="font:10px 微软雅黑">表尾</text>
<clipPath id="clip82"><path d="M441,287 L454,287 L454,300 L441,300 L441,287 Z" /></clipPath>
<path d="M451.5,293 C451.5,290.515625 449.484375,288.5 447,288.5 C444.515625,288.5 442.5,290.515625 442.5,293 C442.5,295.484375 444.515625,297.5 447,297.5 C449.484375,297.5 451.5,295.484375 451.5,293 Z M451.5,293" style="fill:rgb(250,250,250);stroke:none" clip-path="url(#clip82)" />
<clipPath id="clip83"><path d="M441,287 L454,287 L454,300 L441,300 L441,287 Z" /></clipPath>
<path d="M451.5,293 C451.5,290.515625 449.484375,288.5 447,288.5 C444.515625,288.5 442.5,290.515625 442.5,293 C442.5,295.484375 444.515625,297.5 447,297.5 C449.484375,297.5 451.5,295.484375 451.5,293 Z M451.5,293" style="fill:none;stroke:rgb(85,142,213)" clip-path="url(#clip83)" />
<clipPath id="clip84"><path d="M441,287 L454,287 L454,300 L441,300 L441,287 Z" /></clipPath>
<path d="M445,293 L449,293" style="fill:none;stroke:rgb(150,160,200)" clip-path="url(#clip84)" />
<clipPath id="clip85"><path d="M460,262 L685,262 L685,294 L460,294 L460,262 Z" /></clipPath>
<path d="M463,291 L681,291 Z M463,291" style="fill:none;stroke:rgb(85,142,213);stroke-width:3" clip-path="url(#clip85)" />
<text x="474" y="281" style="font:10px 微软雅黑">除第一个之外的其余元素组成的表</text>
<clipPath id="clip86"><path d="M460,293 L555,293 L555,325 L460,325 L460,293 Z" /></clipPath>
<path d="M463,322 L551,322 Z M463,322" style="fill:none;stroke:rgb(85,142,213);stroke-width:3" clip-path="url(#clip86)" />
<text x="474" y="312" style="font:10px 微软雅黑">必定是列表</text>
<clipPath id="clip87"><path d="M315,325 L559,325 L559,417 L315,417 Z M317,358 L317,383 L366,383 L366,358 Z M317,358 Z M317,358" /></clipPath>
<path d="M379,384 C381.4453125,363.3320313 385.109375,353 390,353" style="fill:none;stroke:rgb(85,142,213)" clip-path="url(#clip87)" />
<clipPath id="clip88"><path d="M315,325 L559,325 L559,417 L315,417 Z M317,358 L317,383 L366,383 L366,358 Z M317,358 Z M317,358" /></clipPath>
<path d="M379,384 C381.4453125,384 385.109375,384 390,384" style="fill:none;stroke:rgb(85,142,213)" clip-path="url(#clip88)" />
<clipPath id="clip89"><path d="M315,325 L559,325 L559,417 L315,417 Z M317,358 L317,383 L366,383 L366,358 Z M317,358 Z M317,358" /></clipPath>
<path d="M379,384 C381.4453125,404.6679688 385.109375,415 390,415" style="fill:none;stroke:rgb(85,142,213)" clip-path="url(#clip89)" />
<clipPath id="clip90"><path d="M314,324 L560,324 L560,418 L314,418 L314,324 Z" /></clipPath>
<path d="M366,384 L379,384" style="fill:none;stroke:rgb(85,142,213)" clip-path="url(#clip90)" />
<clipPath id="clip91"><path d="M314,355 L370,355 L370,387 L314,387 L314,355 Z" /></clipPath>
<path d="M317,384 L366,384 Z M317,384" style="fill:none;stroke:rgb(85,142,213);stroke-width:3" clip-path="url(#clip91)" />
<text x="328" y="374" style="font:10px 微软雅黑">特点</text>
<clipPath id="clip92"><path d="M368,365 L381,365 L381,378 L368,378 L368,365 Z" /></clipPath>
<path d="M378.5,371 C378.5,368.515625 376.484375,366.5 374,366.5 C371.515625,366.5 369.5,368.515625 369.5,371 C369.5,373.484375 371.515625,375.5 374,375.5 C376.484375,375.5 378.5,373.484375 378.5,371 Z M378.5,371" style="fill:rgb(250,250,250);stroke:none" clip-path="url(#clip92)" />
<clipPath id="clip93"><path d="M368,365 L381,365 L381,378 L368,378 L368,365 Z" /></clipPath>
<path d="M378.5,371 C378.5,368.515625 376.484375,366.5 374,366.5 C371.515625,366.5 369.5,368.515625 369.5,371 C369.5,373.484375 371.515625,375.5 374,375.5 C376.484375,375.5 378.5,373.484375 378.5,371 Z M378.5,371" style="fill:none;stroke:rgb(85,142,213)" clip-path="url(#clip93)" />
<clipPath id="clip94"><path d="M368,365 L381,365 L381,378 L368,378 L368,365 Z" /></clipPath>
<path d="M372,371 L376,371" style="fill:none;stroke:rgb(150,160,200)" clip-path="url(#clip94)" />
<clipPath id="clip95"><path d="M387,324 L547,324 L547,356 L387,356 L387,324 Z" /></clipPath>
<path d="M390,353 L543,353 Z M390,353" style="fill:none;stroke:rgb(85,142,213);stroke-width:3" clip-path="url(#clip95)" />
<text x="401" y="343" style="font:10px 微软雅黑">列表的元素可以是子表</text>
<clipPath id="clip96"><path d="M387,355 L560,355 L560,387 L387,387 L387,355 Z" /></clipPath>
<path d="M390,384 L556,384 Z M390,384" style="fill:none;stroke:rgb(85,142,213);stroke-width:3" clip-path="url(#clip96)" />
<text x="401" y="374" style="font:10px 微软雅黑">列表可以为其他列表共享</text>
<clipPath id="clip97"><path d="M387,386 L547,386 L547,418 L387,418 L387,386 Z" /></clipPath>
<path d="M390,415 L543,415 Z M390,415" style="fill:none;stroke:rgb(85,142,213);stroke-width:3" clip-path="url(#clip97)" />
<text x="401" y="405" style="font:10px 微软雅黑">列表可是是一个递归表</text>
<clipPath id="clip98"><path d="M222,447 L887,447 L887,632 L222,632 Z M228,532 C225.2382813,532 223,534.2382813 223,537 L223,567 C223,569.7617188 225.2382813,572 228,572 L383,572 C385.7617188,572 388,569.7617188 388,567 L388,537 C388,534.2382813 385.7617188,532 383,532 Z M228,532 Z M228,532" /></clipPath>
<path d="M401,552 C403.2226563,500.6679688 406.5546875,475 411,475" style="fill:none;stroke:rgb(85,142,213)" clip-path="url(#clip98)" />
<clipPath id="clip99"><path d="M222,447 L887,447 L887,632 L222,632 Z M228,532 C225.2382813,532 223,534.2382813 223,537 L223,567 C223,569.7617188 225.2382813,572 228,572 L383,572 C385.7617188,572 388,569.7617188 388,567 L388,537 C388,534.2382813 385.7617188,532 383,532 Z M228,532 Z M228,532" /></clipPath>
<path d="M401,552 C403.2226563,562.6679688 406.5546875,568 411,568" style="fill:none;stroke:rgb(85,142,213)" clip-path="url(#clip99)" />
<clipPath id="clip100"><path d="M222,447 L887,447 L887,632 L222,632 Z M228,532 C225.2382813,532 223,534.2382813 223,537 L223,567 C223,569.7617188 225.2382813,572 228,572 L383,572 C385.7617188,572 388,569.7617188 388,567 L388,537 C388,534.2382813 385.7617188,532 383,532 Z M228,532 Z M228,532" /></clipPath>
<path d="M401,552 C403.2226563,604 406.5546875,630 411,630" style="fill:none;stroke:rgb(85,142,213)" clip-path="url(#clip100)" />
<clipPath id="clip101"><path d="M221,446 L888,446 L888,633 L221,633 L221,446 Z" /></clipPath>
<path d="M388,552 L401,552" style="fill:none;stroke:rgb(85,142,213)" clip-path="url(#clip101)" />
<clipPath id="clip102"><path d="M221,530 L391,530 L391,575 L221,575 L221,530 Z" /></clipPath>
<path d="M228,532 C225.2382813,532 223,534.2382813 223,537 L223,567 C223,569.7617188 225.2382813,572 228,572 L383,572 C385.7617188,572 388,569.7617188 388,567 L388,537 C388,534.2382813 385.7617188,532 383,532 Z M228,532" style="fill:rgb(220,230,242);stroke:none" clip-path="url(#clip102)" />
<clipPath id="clip103"><path d="M221,530 L391,530 L391,575 L221,575 L221,530 Z" /></clipPath>
<path d="M228,532 C225.2382813,532 223,534.2382813 223,537 L223,567 C223,569.7617188 225.2382813,572 228,572 L383,572 C385.7617188,572 388,569.7617188 388,567 L388,537 C388,534.2382813 385.7617188,532 383,532 Z M228,532" style="fill:none;stroke:rgb(85,142,213);stroke-width:2" clip-path="url(#clip103)" />
<text x="237" y="555" style="font:13px 微软雅黑">广义表的存储结构</text>
<clipPath id="clip104"><path d="M389,546 L402,546 L402,559 L389,559 L389,546 Z" /></clipPath>
<path d="M399.5,552 C399.5,549.515625 397.484375,547.5 395,547.5 C392.515625,547.5 390.5,549.515625 390.5,552 C390.5,554.484375 392.515625,556.5 395,556.5 C397.484375,556.5 399.5,554.484375 399.5,552 Z M399.5,552" style="fill:rgb(250,250,250);stroke:none" clip-path="url(#clip104)" />
<clipPath id="clip105"><path d="M389,546 L402,546 L402,559 L389,559 L389,546 Z" /></clipPath>
<path d="M399.5,552 C399.5,549.515625 397.484375,547.5 395,547.5 C392.515625,547.5 390.5,549.515625 390.5,552 C390.5,554.484375 392.515625,556.5 395,556.5 C397.484375,556.5 399.5,554.484375 399.5,552 Z M399.5,552" style="fill:none;stroke:rgb(85,142,213)" clip-path="url(#clip105)" />
<clipPath id="clip106"><path d="M389,546 L402,546 L402,559 L389,559 L389,546 Z" /></clipPath>
<path d="M393,552 L397,552" style="fill:none;stroke:rgb(150,160,200)" clip-path="url(#clip106)" />
<clipPath id="clip107"><path d="M408,446 L568,446 L568,478 L408,478 L408,446 Z" /></clipPath>
<path d="M411,475 L564,475 Z M411,475" style="fill:none;stroke:rgb(85,142,213);stroke-width:3" clip-path="url(#clip107)" />
<text x="422" y="465" style="font:10px 微软雅黑">通常采用链式存储结构</text>
<clipPath id="clip108"><path d="M409,478 L887,478 L887,601 L409,601 Z M411,542 L411,567 L486,567 L486,542 Z M411,542 Z M411,542" /></clipPath>
<path d="M499,568 C501.4453125,547.3320313 505.109375,537 510,537" style="fill:none;stroke:rgb(85,142,213)" clip-path="url(#clip108)" />
<clipPath id="clip109"><path d="M409,478 L887,478 L887,601 L409,601 Z M411,542 L411,567 L486,567 L486,542 Z M411,542 Z M411,542" /></clipPath>
<path d="M499,568 C501.4453125,588.6679688 505.109375,599 510,599" style="fill:none;stroke:rgb(85,142,213)" clip-path="url(#clip109)" />
<clipPath id="clip110"><path d="M408,477 L888,477 L888,602 L408,602 L408,477 Z" /></clipPath>
<path d="M486,568 L499,568" style="fill:none;stroke:rgb(85,142,213)" clip-path="url(#clip110)" />
<clipPath id="clip111"><path d="M408,539 L490,539 L490,571 L408,571 L408,539 Z" /></clipPath>
<path d="M411,568 L486,568 Z M411,568" style="fill:none;stroke:rgb(85,142,213);stroke-width:3" clip-path="url(#clip111)" />
<text x="422" y="557" style="font:10px 微软雅黑">两种结点</text>
<clipPath id="clip112"><path d="M488,549 L501,549 L501,562 L488,562 L488,549 Z" /></clipPath>
<path d="M498.5,555 C498.5,552.515625 496.484375,550.5 494,550.5 C491.515625,550.5 489.5,552.515625 489.5,555 C489.5,557.484375 491.515625,559.5 494,559.5 C496.484375,559.5 498.5,557.484375 498.5,555 Z M498.5,555" style="fill:rgb(250,250,250);stroke:none" clip-path="url(#clip112)" />
<clipPath id="clip113"><path d="M488,549 L501,549 L501,562 L488,562 L488,549 Z" /></clipPath>
<path d="M498.5,555 C498.5,552.515625 496.484375,550.5 494,550.5 C491.515625,550.5 489.5,552.515625 489.5,555 C489.5,557.484375 491.515625,559.5 494,559.5 C496.484375,559.5 498.5,557.484375 498.5,555 Z M498.5,555" style="fill:none;stroke:rgb(85,142,213)" clip-path="url(#clip113)" />
<clipPath id="clip114"><path d="M488,549 L501,549 L501,562 L488,562 L488,549 Z" /></clipPath>
<path d="M492,555 L496,555" style="fill:none;stroke:rgb(150,160,200)" clip-path="url(#clip114)" />
<clipPath id="clip115"><path d="M508,478 L887,478 L887,570 L508,570 Z M510,511 L510,536 L711,536 L711,511 Z M510,511 Z M510,511" /></clipPath>
<path d="M724,537 C726.4453125,516.3320313 730.109375,506 735,506" style="fill:none;stroke:rgb(85,142,213)" clip-path="url(#clip115)" />
<clipPath id="clip116"><path d="M508,478 L887,478 L887,570 L508,570 Z M510,511 L510,536 L711,536 L711,511 Z M510,511 Z M510,511" /></clipPath>
<path d="M724,537 C726.4453125,537 730.109375,537 735,537" style="fill:none;stroke:rgb(85,142,213)" clip-path="url(#clip116)" />
<clipPath id="clip117"><path d="M508,478 L887,478 L887,570 L508,570 Z M510,511 L510,536 L711,536 L711,511 Z M510,511 Z M510,511" /></clipPath>
<path d="M724,537 C726.4453125,557.6679688 730.109375,568 735,568" style="fill:none;stroke:rgb(85,142,213)" clip-path="url(#clip117)" />
<clipPath id="clip118"><path d="M507,477 L888,477 L888,571 L507,571 L507,477 Z" /></clipPath>
<path d="M711,537 L724,537" style="fill:none;stroke:rgb(85,142,213)" clip-path="url(#clip118)" />
<clipPath id="clip119"><path d="M507,508 L715,508 L715,540 L507,540 L507,508 Z" /></clipPath>
<path d="M510,537 L711,537 Z M510,537" style="fill:none;stroke:rgb(85,142,213);stroke-width:3" clip-path="url(#clip119)" />
<text x="521" y="527" style="font:10px 微软雅黑">表结点 ( tag=1, ptr ( hp, tp ) )</text>
<clipPath id="clip120"><path d="M713,518 L726,518 L726,531 L713,531 L713,518 Z" /></clipPath>
<path d="M723.5,524 C723.5,521.515625 721.484375,519.5 719,519.5 C716.515625,519.5 714.5,521.515625 714.5,524 C714.5,526.484375 716.515625,528.5 719,528.5 C721.484375,528.5 723.5,526.484375 723.5,524 Z M723.5,524" style="fill:rgb(250,250,250);stroke:none" clip-path="url(#clip120)" />
<clipPath id="clip121"><path d="M713,518 L726,518 L726,531 L713,531 L713,518 Z" /></clipPath>
<path d="M723.5,524 C723.5,521.515625 721.484375,519.5 719,519.5 C716.515625,519.5 714.5,521.515625 714.5,524 C714.5,526.484375 716.515625,528.5 719,528.5 C721.484375,528.5 723.5,526.484375 723.5,524 Z M723.5,524" style="fill:none;stroke:rgb(85,142,213)" clip-path="url(#clip121)" />
<clipPath id="clip122"><path d="M713,518 L726,518 L726,531 L713,531 L713,518 Z" /></clipPath>
<path d="M717,524 L721,524" style="fill:none;stroke:rgb(150,160,200)" clip-path="url(#clip122)" />
<clipPath id="clip123"><path d="M732,477 L855,477 L855,509 L732,509 L732,477 Z" /></clipPath>
<path d="M735,506 L851,506 Z M735,506" style="fill:none;stroke:rgb(85,142,213);stroke-width:3" clip-path="url(#clip123)" />
<text x="746" y="496" style="font:10px 微软雅黑">ptr.hp 指向表头</text>
<clipPath id="clip124"><path d="M732,508 L888,508 L888,540 L732,540 L732,508 Z" /></clipPath>
<path d="M735,537 L884,537 Z M735,537" style="fill:none;stroke:rgb(85,142,213);stroke-width:3" clip-path="url(#clip124)" />
<text x="746" y="527" style="font:10px 微软雅黑">ptr 是表结点的指针域</text>
<clipPath id="clip125"><path d="M732,539 L852,539 L852,571 L732,571 L732,539 Z" /></clipPath>
<path d="M735,568 L848,568 Z M735,568" style="fill:none;stroke:rgb(85,142,213);stroke-width:3" clip-path="url(#clip125)" />
<text x="746" y="557" style="font:10px 微软雅黑">ptr.tp 指向表尾</text>
<clipPath id="clip126"><path d="M507,570 L686,570 L686,602 L507,602 L507,570 Z" /></clipPath>
<path d="M510,599 L682,599 Z M510,599" style="fill:none;stroke:rgb(85,142,213);stroke-width:3" clip-path="url(#clip126)" />
<text x="521" y="588" style="font:10px 微软雅黑">原子结点 ( tag=0, atom )</text>
<clipPath id="clip127"><path d="M408,601 L490,601 L490,633 L408,633 L408,601 Z" /></clipPath>
<path d="M411,630 L486,630 Z M411,630" style="fill:none;stroke:rgb(85,142,213);stroke-width:3" clip-path="url(#clip127)" />
<text x="422" y="619" style="font:10px 微软雅黑">头尾链表</text>
<clipPath id="clip128"><path d="M162,662 L802,662 L802,971 L162,971 Z M168,747 C165.2382813,747 163,749.2382813 163,752 L163,782 C163,784.7617188 165.2382813,787 168,787 L323,787 C325.7617188,787 328,784.7617188 328,782 L328,752 C328,749.2382813 325.7617188,747 323,747 Z M168,747 Z M168,747" /></clipPath>
<path d="M341,767 C343.2226563,715.6679688 346.5546875,690 351,690" style="fill:none;stroke:rgb(85,142,213)" clip-path="url(#clip128)" />
<clipPath id="clip129"><path d="M162,662 L802,662 L802,971 L162,971 Z M168,747 C165.2382813,747 163,749.2382813 163,752 L163,782 C163,784.7617188 165.2382813,787 168,787 L323,787 C325.7617188,787 328,784.7617188 328,782 L328,752 C328,749.2382813 325.7617188,747 323,747 Z M168,747 Z M168,747" /></clipPath>
<path d="M341,767 C343.2226563,819 346.5546875,845 351,845" style="fill:none;stroke:rgb(85,142,213)" clip-path="url(#clip129)" />
<clipPath id="clip130"><path d="M161,661 L803,661 L803,972 L161,972 L161,661 Z" /></clipPath>
<path d="M328,767 L341,767" style="fill:none;stroke:rgb(85,142,213)" clip-path="url(#clip130)" />
<clipPath id="clip131"><path d="M161,745 L331,745 L331,790 L161,790 L161,745 Z" /></clipPath>
<path d="M168,747 C165.2382813,747 163,749.2382813 163,752 L163,782 C163,784.7617188 165.2382813,787 168,787 L323,787 C325.7617188,787 328,784.7617188 328,782 L328,752 C328,749.2382813 325.7617188,747 323,747 Z M168,747" style="fill:rgb(220,230,242);stroke:none" clip-path="url(#clip131)" />
<clipPath id="clip132"><path d="M161,745 L331,745 L331,790 L161,790 L161,745 Z" /></clipPath>
<path d="M168,747 C165.2382813,747 163,749.2382813 163,752 L163,782 C163,784.7617188 165.2382813,787 168,787 L323,787 C325.7617188,787 328,784.7617188 328,782 L328,752 C328,749.2382813 325.7617188,747 323,747 Z M168,747" style="fill:none;stroke:rgb(85,142,213);stroke-width:2" clip-path="url(#clip132)" />
<text x="177" y="770" style="font:13px 微软雅黑">广义表的递归算法</text>
<clipPath id="clip133"><path d="M329,761 L342,761 L342,774 L329,774 L329,761 Z" /></clipPath>
<path d="M339.5,767 C339.5,764.515625 337.484375,762.5 335,762.5 C332.515625,762.5 330.5,764.515625 330.5,767 C330.5,769.484375 332.515625,771.5 335,771.5 C337.484375,771.5 339.5,769.484375 339.5,767 Z M339.5,767" style="fill:rgb(250,250,250);stroke:none" clip-path="url(#clip133)" />
<clipPath id="clip134"><path d="M329,761 L342,761 L342,774 L329,774 L329,761 Z" /></clipPath>
<path d="M339.5,767 C339.5,764.515625 337.484375,762.5 335,762.5 C332.515625,762.5 330.5,764.515625 330.5,767 C330.5,769.484375 332.515625,771.5 335,771.5 C337.484375,771.5 339.5,769.484375 339.5,767 Z M339.5,767" style="fill:none;stroke:rgb(85,142,213)" clip-path="url(#clip134)" />
<clipPath id="clip135"><path d="M329,761 L342,761 L342,774 L329,774 L329,761 Z" /></clipPath>
<path d="M333,767 L337,767" style="fill:none;stroke:rgb(150,160,200)" clip-path="url(#clip135)" />
<clipPath id="clip136"><path d="M349,662 L658,662 L658,692 L349,692 Z M351,664 L351,689 L504,689 L504,664 Z M351,664 Z M351,664" /></clipPath>
<path d="M517,690 C519.4453125,690 523.109375,690 528,690" style="fill:none;stroke:rgb(85,142,213)" clip-path="url(#clip136)" />
<clipPath id="clip137"><path d="M348,661 L659,661 L659,693 L348,693 L348,661 Z" /></clipPath>
<path d="M504,690 L517,690" style="fill:none;stroke:rgb(85,142,213)" clip-path="url(#clip137)" />
<clipPath id="clip138"><path d="M348,661 L508,661 L508,693 L348,693 L348,661 Z" /></clipPath>
<path d="M351,690 L504,690 Z M351,690" style="fill:none;stroke:rgb(85,142,213);stroke-width:3" clip-path="url(#clip138)" />
<text x="362" y="679" style="font:10px 微软雅黑">广义表本身为递归结构</text>
<clipPath id="clip139"><path d="M506,671 L519,671 L519,684 L506,684 L506,671 Z" /></clipPath>
<path d="M516.5,677 C516.5,674.515625 514.484375,672.5 512,672.5 C509.515625,672.5 507.5,674.515625 507.5,677 C507.5,679.484375 509.515625,681.5 512,681.5 C514.484375,681.5 516.5,679.484375 516.5,677 Z M516.5,677" style="fill:rgb(250,250,250);stroke:none" clip-path="url(#clip139)" />
<clipPath id="clip140"><path d="M506,671 L519,671 L519,684 L506,684 L506,671 Z" /></clipPath>
<path d="M516.5,677 C516.5,674.515625 514.484375,672.5 512,672.5 C509.515625,672.5 507.5,674.515625 507.5,677 C507.5,679.484375 509.515625,681.5 512,681.5 C514.484375,681.5 516.5,679.484375 516.5,677 Z M516.5,677" style="fill:none;stroke:rgb(85,142,213)" clip-path="url(#clip140)" />
<clipPath id="clip141"><path d="M506,671 L519,671 L519,684 L506,684 L506,671 Z" /></clipPath>
<path d="M510,677 L514,677" style="fill:none;stroke:rgb(150,160,200)" clip-path="url(#clip141)" />
<clipPath id="clip142"><path d="M525,661 L659,661 L659,693 L525,693 L525,661 Z" /></clipPath>
<path d="M528,690 L655,690 Z M528,690" style="fill:none;stroke:rgb(85,142,213);stroke-width:3" clip-path="url(#clip142)" />
<text x="539" y="679" style="font:10px 微软雅黑">适合采用递归算法</text>
<clipPath id="clip143"><path d="M349,693 L802,693 L802,971 L349,971 Z M351,819 L351,844 L400,844 L400,819 Z M351,819 Z M351,819" /></clipPath>
<path d="M413,845 C415.4453125,783 419.109375,752 424,752" style="fill:none;stroke:rgb(85,142,213)" clip-path="url(#clip143)" />
<clipPath id="clip144"><path d="M349,693 L802,693 L802,971 L349,971 Z M351,819 L351,844 L400,844 L400,819 Z M351,819 Z M351,819" /></clipPath>
<path d="M413,845 C415.4453125,839.6679688 419.109375,837 424,837" style="fill:none;stroke:rgb(85,142,213)" clip-path="url(#clip144)" />
<clipPath id="clip145"><path d="M349,693 L802,693 L802,971 L349,971 Z M351,819 L351,844 L400,844 L400,819 Z M351,819 Z M351,819" /></clipPath>
<path d="M413,845 C415.4453125,907 419.109375,938 424,938" style="fill:none;stroke:rgb(85,142,213)" clip-path="url(#clip145)" />
<clipPath id="clip146"><path d="M348,692 L803,692 L803,972 L348,972 L348,692 Z" /></clipPath>
<path d="M400,845 L413,845" style="fill:none;stroke:rgb(85,142,213)" clip-path="url(#clip146)" />
<clipPath id="clip147"><path d="M348,816 L404,816 L404,848 L348,848 L348,816 Z" /></clipPath>
<path d="M351,845 L400,845 Z M351,845" style="fill:none;stroke:rgb(85,142,213);stroke-width:3" clip-path="url(#clip147)" />
<text x="362" y="834" style="font:10px 微软雅黑">算法</text>
<clipPath id="clip148"><path d="M402,826 L415,826 L415,839 L402,839 L402,826 Z" /></clipPath>
<path d="M412.5,832 C412.5,829.515625 410.484375,827.5 408,827.5 C405.515625,827.5 403.5,829.515625 403.5,832 C403.5,834.484375 405.515625,836.5 408,836.5 C410.484375,836.5 412.5,834.484375 412.5,832 Z M412.5,832" style="fill:rgb(250,250,250);stroke:none" clip-path="url(#clip148)" />
<clipPath id="clip149"><path d="M402,826 L415,826 L415,839 L402,839 L402,826 Z" /></clipPath>
<path d="M412.5,832 C412.5,829.515625 410.484375,827.5 408,827.5 C405.515625,827.5 403.5,829.515625 403.5,832 C403.5,834.484375 405.515625,836.5 408,836.5 C410.484375,836.5 412.5,834.484375 412.5,832 Z M412.5,832" style="fill:none;stroke:rgb(85,142,213)" clip-path="url(#clip149)" />
<clipPath id="clip150"><path d="M402,826 L415,826 L415,839 L402,839 L402,826 Z" /></clipPath>
<path d="M406,832 L410,832" style="fill:none;stroke:rgb(150,160,200)" clip-path="url(#clip150)" />
<clipPath id="clip151"><path d="M422,693 L802,693 L802,785 L422,785 Z M424,726 L424,751 L538,751 L538,726 Z M424,726 Z M424,726" /></clipPath>
<path d="M551,752 C553.4453125,731.3320313 557.109375,721 562,721" style="fill:none;stroke:rgb(85,142,213)" clip-path="url(#clip151)" />
<clipPath id="clip152"><path d="M422,693 L802,693 L802,785 L422,785 Z M424,726 L424,751 L538,751 L538,726 Z M424,726 Z M424,726" /></clipPath>
<path d="M551,752 C553.4453125,752 557.109375,752 562,752" style="fill:none;stroke:rgb(85,142,213)" clip-path="url(#clip152)" />
<clipPath id="clip153"><path d="M422,693 L802,693 L802,785 L422,785 Z M424,726 L424,751 L538,751 L538,726 Z M424,726 Z M424,726" /></clipPath>
<path d="M551,752 C553.4453125,772.6679688 557.109375,783 562,783" style="fill:none;stroke:rgb(85,142,213)" clip-path="url(#clip153)" />
<clipPath id="clip154"><path d="M421,692 L803,692 L803,786 L421,786 L421,692 Z" /></clipPath>
<path d="M538,752 L551,752" style="fill:none;stroke:rgb(85,142,213)" clip-path="url(#clip154)" />
<clipPath id="clip155"><path d="M421,723 L542,723 L542,755 L421,755 L421,723 Z" /></clipPath>
<path d="M424,752 L538,752 Z M424,752" style="fill:none;stroke:rgb(85,142,213);stroke-width:3" clip-path="url(#clip155)" />
<text x="435" y="741" style="font:10px 微软雅黑">求广义表的深度</text>
<clipPath id="clip156"><path d="M540,733 L553,733 L553,746 L540,746 L540,733 Z" /></clipPath>
<path d="M550.5,739 C550.5,736.515625 548.484375,734.5 546,734.5 C543.515625,734.5 541.5,736.515625 541.5,739 C541.5,741.484375 543.515625,743.5 546,743.5 C548.484375,743.5 550.5,741.484375 550.5,739 Z M550.5,739" style="fill:rgb(250,250,250);stroke:none" clip-path="url(#clip156)" />
<clipPath id="clip157"><path d="M540,733 L553,733 L553,746 L540,746 L540,733 Z" /></clipPath>
<path d="M550.5,739 C550.5,736.515625 548.484375,734.5 546,734.5 C543.515625,734.5 541.5,736.515625 541.5,739 C541.5,741.484375 543.515625,743.5 546,743.5 C548.484375,743.5 550.5,741.484375 550.5,739 Z M550.5,739" style="fill:none;stroke:rgb(85,142,213)" clip-path="url(#clip157)" />
<clipPath id="clip158"><path d="M540,733 L553,733 L553,746 L540,746 L540,733 Z" /></clipPath>
<path d="M544,739 L548,739" style="fill:none;stroke:rgb(150,160,200)" clip-path="url(#clip158)" />
<clipPath id="clip159"><path d="M559,692 L636,692 L636,724 L559,724 L559,692 Z" /></clipPath>
<path d="M562,721 L632,721 Z M562,721" style="fill:none;stroke:rgb(85,142,213);stroke-width:3" clip-path="url(#clip159)" />
<text x="573" y="710" style="font:10px 微软雅黑">原子：0</text>
<clipPath id="clip160"><path d="M559,723 L636,723 L636,755 L559,755 L559,723 Z" /></clipPath>
<path d="M562,752 L632,752 Z M562,752" style="fill:none;stroke:rgb(85,142,213);stroke-width:3" clip-path="url(#clip160)" />
<text x="573" y="741" style="font:10px 微软雅黑">空表：1</text>
<clipPath id="clip161"><path d="M559,754 L803,754 L803,786 L559,786 L559,754 Z" /></clipPath>
<path d="M562,783 L799,783 Z M562,783" style="fill:none;stroke:rgb(85,142,213);stroke-width:3" clip-path="url(#clip161)" />
<text x="573" y="772" style="font:10px 微软雅黑">递归：1+max{ a_i 的深度 | i=1,...,n }</text>
<clipPath id="clip162"><path d="M422,786 L791,786 L791,878 L422,878 Z M424,811 L424,836 L512,836 L512,811 Z M424,811 Z M424,811" /></clipPath>
<path d="M525,837 C527.4453125,821.6679688 531.109375,814 536,814" style="fill:none;stroke:rgb(85,142,213)" clip-path="url(#clip162)" />
<clipPath id="clip163"><path d="M422,786 L791,786 L791,878 L422,878 Z M424,811 L424,836 L512,836 L512,811 Z M424,811 Z M424,811" /></clipPath>
<path d="M525,837 C527.4453125,852.3320313 531.109375,860 536,860" style="fill:none;stroke:rgb(85,142,213)" clip-path="url(#clip163)" />
<clipPath id="clip164"><path d="M421,785 L792,785 L792,879 L421,879 L421,785 Z" /></clipPath>
<path d="M512,837 L525,837" style="fill:none;stroke:rgb(85,142,213)" clip-path="url(#clip164)" />
<clipPath id="clip165"><path d="M421,808 L516,808 L516,840 L421,840 L421,808 Z" /></clipPath>
<path d="M424,837 L512,837 Z M424,837" style="fill:none;stroke:rgb(85,142,213);stroke-width:3" clip-path="url(#clip165)" />
<text x="435" y="826" style="font:10px 微软雅黑">复制广义表</text>
<clipPath id="clip166"><path d="M514,818 L527,818 L527,831 L514,831 L514,818 Z" /></clipPath>
<path d="M524.5,824 C524.5,821.515625 522.484375,819.5 520,819.5 C517.515625,819.5 515.5,821.515625 515.5,824 C515.5,826.484375 517.515625,828.5 520,828.5 C522.484375,828.5 524.5,826.484375 524.5,824 Z M524.5,824" style="fill:rgb(250,250,250);stroke:none" clip-path="url(#clip166)" />
<clipPath id="clip167"><path d="M514,818 L527,818 L527,831 L514,831 L514,818 Z" /></clipPath>
<path d="M524.5,824 C524.5,821.515625 522.484375,819.5 520,819.5 C517.515625,819.5 515.5,821.515625 515.5,824 C515.5,826.484375 517.515625,828.5 520,828.5 C522.484375,828.5 524.5,826.484375 524.5,824 Z M524.5,824" style="fill:none;stroke:rgb(85,142,213)" clip-path="url(#clip167)" />
<clipPath id="clip168"><path d="M514,818 L527,818 L527,831 L514,831 L514,818 Z" /></clipPath>
<path d="M518,824 L522,824" style="fill:none;stroke:rgb(150,160,200)" clip-path="url(#clip168)" />
<clipPath id="clip169"><path d="M533,785 L628,785 L628,817 L533,817 L533,785 Z" /></clipPath>
<path d="M536,814 L624,814 Z M536,814" style="fill:none;stroke:rgb(85,142,213);stroke-width:3" clip-path="url(#clip169)" />
<text x="547" y="803" style="font:10px 微软雅黑">空表：空表</text>
<clipPath id="clip170"><path d="M534,817 L791,817 L791,878 L534,878 Z M536,834 L536,859 L598,859 L598,834 Z M536,834 Z M536,834" /></clipPath>
<path d="M611,860 C613.4453125,850 617.109375,845 622,845" style="fill:none;stroke:rgb(85,142,213)" clip-path="url(#clip170)" />
<clipPath id="clip171"><path d="M534,817 L791,817 L791,878 L534,878 Z M536,834 L536,859 L598,859 L598,834 Z M536,834 Z M536,834" /></clipPath>
<path d="M611,860 C613.4453125,870.6679688 617.109375,876 622,876" style="fill:none;stroke:rgb(85,142,213)" clip-path="url(#clip171)" />
<clipPath id="clip172"><path d="M533,816 L792,816 L792,879 L533,879 L533,816 Z" /></clipPath>
<path d="M598,860 L611,860" style="fill:none;stroke:rgb(85,142,213)" clip-path="url(#clip172)" />
<clipPath id="clip173"><path d="M533,831 L602,831 L602,863 L533,863 L533,831 Z" /></clipPath>
<path d="M536,860 L598,860 Z M536,860" style="fill:none;stroke:rgb(85,142,213);stroke-width:3" clip-path="url(#clip173)" />
<text x="547" y="849" style="font:10px 微软雅黑">非空表</text>
<clipPath id="clip174"><path d="M600,841 L613,841 L613,854 L600,854 L600,841 Z" /></clipPath>
<path d="M610.5,847 C610.5,844.515625 608.484375,842.5 606,842.5 C603.515625,842.5 601.5,844.515625 601.5,847 C601.5,849.484375 603.515625,851.5 606,851.5 C608.484375,851.5 610.5,849.484375 610.5,847 Z M610.5,847" style="fill:rgb(250,250,250);stroke:none" clip-path="url(#clip174)" />
<clipPath id="clip175"><path d="M600,841 L613,841 L613,854 L600,854 L600,841 Z" /></clipPath>
<path d="M610.5,847 C610.5,844.515625 608.484375,842.5 606,842.5 C603.515625,842.5 601.5,844.515625 601.5,847 C601.5,849.484375 603.515625,851.5 606,851.5 C608.484375,851.5 610.5,849.484375 610.5,847 Z M610.5,847" style="fill:none;stroke:rgb(85,142,213)" clip-path="url(#clip175)" />
<clipPath id="clip176"><path d="M600,841 L613,841 L613,854 L600,854 L600,841 Z" /></clipPath>
<path d="M604,847 L608,847" style="fill:none;stroke:rgb(150,160,200)" clip-path="url(#clip176)" />
<clipPath id="clip177"><path d="M619,816 L766,816 L766,848 L619,848 L619,816 Z" /></clipPath>
<path d="M622,845 L762,845 Z M622,845" style="fill:none;stroke:rgb(85,142,213);stroke-width:3" clip-path="url(#clip177)" />
<text x="633" y="834" style="font:10px 微软雅黑">原子：复制单个原子</text>
<clipPath id="clip178"><path d="M619,847 L792,847 L792,879 L619,879 L619,847 Z" /></clipPath>
<path d="M622,876 L788,876 Z M622,876" style="fill:none;stroke:rgb(85,142,213);stroke-width:3" clip-path="url(#clip178)" />
<text x="633" y="865" style="font:10px 微软雅黑">表：复制表头，复制表尾</text>
<clipPath id="clip179"><path d="M422,879 L718,879 L718,971 L422,971 Z M424,912 L424,937 L512,937 L512,912 Z M424,912 Z M424,912" /></clipPath>
<path d="M525,938 C527.4453125,917.3320313 531.109375,907 536,907" style="fill:none;stroke:rgb(85,142,213)" clip-path="url(#clip179)" />
<clipPath id="clip180"><path d="M422,879 L718,879 L718,971 L422,971 Z M424,912 L424,937 L512,937 L512,912 Z M424,912 Z M424,912" /></clipPath>
<path d="M525,938 C527.4453125,938 531.109375,938 536,938" style="fill:none;stroke:rgb(85,142,213)" clip-path="url(#clip180)" />
<clipPath id="clip181"><path d="M422,879 L718,879 L718,971 L422,971 Z M424,912 L424,937 L512,937 L512,912 Z M424,912 Z M424,912" /></clipPath>
<path d="M525,938 C527.4453125,958.6679688 531.109375,969 536,969" style="fill:none;stroke:rgb(85,142,213)" clip-path="url(#clip181)" />
<clipPath id="clip182"><path d="M421,878 L719,878 L719,972 L421,972 L421,878 Z" /></clipPath>
<path d="M512,938 L525,938" style="fill:none;stroke:rgb(85,142,213)" clip-path="url(#clip182)" />
<clipPath id="clip183"><path d="M421,909 L516,909 L516,941 L421,941 L421,909 Z" /></clipPath>
<path d="M424,938 L512,938 Z M424,938" style="fill:none;stroke:rgb(85,142,213);stroke-width:3" clip-path="url(#clip183)" />
<text x="435" y="927" style="font:10px 微软雅黑">建立广义表</text>
<clipPath id="clip184"><path d="M514,919 L527,919 L527,932 L514,932 L514,919 Z" /></clipPath>
<path d="M524.5,925 C524.5,922.515625 522.484375,920.5 520,920.5 C517.515625,920.5 515.5,922.515625 515.5,925 C515.5,927.484375 517.515625,929.5 520,929.5 C522.484375,929.5 524.5,927.484375 524.5,925 Z M524.5,925" style="fill:rgb(250,250,250);stroke:none" clip-path="url(#clip184)" />
<clipPath id="clip185"><path d="M514,919 L527,919 L527,932 L514,932 L514,919 Z" /></clipPath>
<path d="M524.5,925 C524.5,922.515625 522.484375,920.5 520,920.5 C517.515625,920.5 515.5,922.515625 515.5,925 C515.5,927.484375 517.515625,929.5 520,929.5 C522.484375,929.5 524.5,927.484375 524.5,925 Z M524.5,925" style="fill:none;stroke:rgb(85,142,213)" clip-path="url(#clip185)" />
<clipPath id="clip186"><path d="M514,919 L527,919 L527,932 L514,932 L514,919 Z" /></clipPath>
<path d="M518,925 L522,925" style="fill:none;stroke:rgb(150,160,200)" clip-path="url(#clip186)" />
<clipPath id="clip187"><path d="M533,878 L654,878 L654,910 L533,910 L533,878 Z" /></clipPath>
<path d="M536,907 L650,907 Z M536,907" style="fill:none;stroke:rgb(85,142,213);stroke-width:3" clip-path="url(#clip187)" />
<text x="547" y="896" style="font:10px 微软雅黑">空串：建立空表</text>
<clipPath id="clip188"><path d="M533,909 L693,909 L693,941 L533,941 L533,909 Z" /></clipPath>
<path d="M536,938 L689,938 Z M536,938" style="fill:none;stroke:rgb(85,142,213);stroke-width:3" clip-path="url(#clip188)" />
<text x="547" y="927" style="font:10px 微软雅黑">单字符：建立原子结点</text>
<clipPath id="clip189"><path d="M533,940 L719,940 L719,972 L533,972 L533,940 Z" /></clipPath>
<path d="M536,969 L715,969 Z M536,969" style="fill:none;stroke:rgb(85,142,213);stroke-width:3" clip-path="url(#clip189)" />
<text x="547" y="958" style="font:10px 微软雅黑">递归：建立表头，建立表尾</text>
</svg>
