<?xml version="1.0" encoding="UTF-8" standalone="no"?>
<!DOCTYPE svg PUBLIC "-//W3C//DTD SVG 1.1//EN"
 "http://www.w3.org/Graphics/SVG/1.1/DTD/svg11.dtd">
<!-- Generated by graphviz version 2.40.1 (20161225.0304)
 -->
<!-- Title: G Pages: 1 -->
<svg width="478pt" height="100pt"
 viewBox="0.00 0.00 478.07 99.50" xmlns="http://www.w3.org/2000/svg" xmlns:xlink="http://www.w3.org/1999/xlink">
<g id="graph0" class="graph" transform="scale(1 1) rotate(0) translate(4 95.5)">
<title>G</title>
<polygon fill="#ffffff" stroke="transparent" points="-4,4 -4,-95.5 474.0684,-95.5 474.0684,4 -4,4"/>
<!-- L -->
<g id="node1" class="node">
<title>L</title>
<text text-anchor="middle" x="27" y="-14.3" font-family="Times,serif" font-size="14.00" fill="#000000">L</text>
</g>
<!-- b -->
<g id="node2" class="node">
<title>b</title>
<polygon fill="none" stroke="#000000" points="90,-.5 90,-36.5 157.3318,-36.5 157.3318,-.5 90,-.5"/>
<text text-anchor="middle" x="113.9159" y="-14.4" font-family="Times,serif" font-size="14.00" fill="#000000">　　</text>
<polyline fill="none" stroke="#000000" points="137.8318,-.7 137.8318,-36.5 "/>
<text text-anchor="middle" x="147.5818" y="-14.4" font-family="Times,serif" font-size="14.00" fill="#000000"> </text>
</g>
<!-- L&#45;&gt;b -->
<g id="edge1" class="edge">
<title>L&#45;&gt;b</title>
<path fill="none" stroke="#000000" d="M54.1841,-18.5C62.1312,-18.5 71.0285,-18.5 79.7338,-18.5"/>
<polygon fill="#000000" stroke="#000000" points="79.7964,-22.0001 89.7964,-18.5 79.7964,-15.0001 79.7964,-22.0001"/>
</g>
<!-- c -->
<g id="node3" class="node">
<title>c</title>
<polygon fill="none" stroke="#000000" points="193.3318,-.5 193.3318,-36.5 259.8936,-36.5 259.8936,-.5 193.3318,-.5"/>
<text text-anchor="middle" x="216.8627" y="-14.4" font-family="Times,serif" font-size="14.00" fill="#000000">　　</text>
<polyline fill="none" stroke="#000000" points="240.3936,-.7 240.3936,-36.5 "/>
<text text-anchor="middle" x="250.1436" y="-14.4" font-family="Times,serif" font-size="14.00" fill="#000000"> </text>
</g>
<!-- b&#45;&gt;c -->
<g id="edge2" class="edge">
<title>b:a2&#45;&gt;c:a1</title>
<path fill="none" stroke="#000000" d="M157.3318,-18.5C169.4254,-18.5 174.7164,-18.5 183.4087,-18.5"/>
<polygon fill="#000000" stroke="#000000" points="183.6127,-22.0001 193.6127,-18.5 183.6127,-15.0001 183.6127,-22.0001"/>
</g>
<!-- d -->
<g id="node4" class="node">
<title>d</title>
<polygon fill="none" stroke="#000000" points="295.8936,-.5 295.8936,-36.5 362.4554,-36.5 362.4554,-.5 295.8936,-.5"/>
<text text-anchor="middle" x="319.4245" y="-14.4" font-family="Times,serif" font-size="14.00" fill="#000000">　　</text>
<polyline fill="none" stroke="#000000" points="342.9554,-.7 342.9554,-36.5 "/>
<text text-anchor="middle" x="352.7054" y="-14.4" font-family="Times,serif" font-size="14.00" fill="#000000"> </text>
</g>
<!-- c&#45;&gt;d -->
<g id="edge3" class="edge">
<title>c:a2&#45;&gt;d:a1</title>
<path fill="none" stroke="#000000" d="M259.6127,-18.5C271.9269,-18.5 277.2422,-18.5 286.1664,-18.5"/>
<polygon fill="#000000" stroke="#000000" points="286.1745,-22.0001 296.1745,-18.5 286.1745,-15.0001 286.1745,-22.0001"/>
</g>
<!-- e -->
<g id="node5" class="node">
<title>e</title>
<polygon fill="none" stroke="#000000" points="398.4554,-.5 398.4554,-36.5 470.0684,-36.5 470.0684,-.5 398.4554,-.5"/>
<text text-anchor="middle" x="422.3713" y="-14.4" font-family="Times,serif" font-size="14.00" fill="#000000">　　</text>
<polyline fill="none" stroke="#000000" points="446.2872,-.7 446.2872,-36.5 "/>
<text text-anchor="middle" x="458.1778" y="-14.4" font-family="Times,serif" font-size="14.00" fill="#000000">/\</text>
</g>
<!-- d&#45;&gt;e -->
<g id="edge4" class="edge">
<title>d:a2&#45;&gt;e:a1</title>
<path fill="none" stroke="#000000" d="M362.1745,-18.5C374.2681,-18.5 379.5591,-18.5 388.2514,-18.5"/>
<polygon fill="#000000" stroke="#000000" points="388.4554,-22.0001 398.4554,-18.5 388.4554,-15.0001 388.4554,-22.0001"/>
</g>
<!-- LL -->
<g id="node6" class="node">
<title>LL</title>
<text text-anchor="middle" x="27" y="-69.3" font-family="Times,serif" font-size="14.00" fill="#000000">L</text>
</g>
<!-- A -->
<g id="node7" class="node">
<title>A</title>
<text text-anchor="middle" x="123.6659" y="-69.3" font-family="Times,serif" font-size="14.00" fill="#000000">/\</text>
</g>
<!-- LL&#45;&gt;A -->
<g id="edge5" class="edge">
<title>LL&#45;&gt;A</title>
<path fill="none" stroke="#000000" d="M54.1841,-73.5C64.0682,-73.5 75.4222,-73.5 86.0485,-73.5"/>
<polygon fill="#000000" stroke="#000000" points="86.351,-77.0001 96.3509,-73.5 86.3509,-70.0001 86.351,-77.0001"/>
</g>
</g>
</svg>
