<?xml version="1.0" encoding="UTF-8" standalone="no"?>
<!DOCTYPE svg PUBLIC "-//W3C//DTD SVG 1.1//EN"
 "http://www.w3.org/Graphics/SVG/1.1/DTD/svg11.dtd">
<!-- Generated by graphviz version 2.40.1 (20161225.0304)
 -->
<!-- Title: G Pages: 1 -->
<svg width="534pt" height="100pt"
 viewBox="0.00 0.00 533.63 100.00" xmlns="http://www.w3.org/2000/svg" xmlns:xlink="http://www.w3.org/1999/xlink">
<g id="graph0" class="graph" transform="scale(1 1) rotate(0) translate(4 96)">
<title>G</title>
<polygon fill="#ffffff" stroke="transparent" points="-4,4 -4,-96 529.635,-96 529.635,4 -4,4"/>
<!-- L -->
<g id="node1" class="node">
<title>L</title>
<text text-anchor="middle" x="27" y="-14.3" font-family="Times,serif" font-size="14.00" fill="#000000">L</text>
</g>
<!-- a -->
<g id="node2" class="node">
<title>a</title>
<polygon fill="none" stroke="#000000" points="92.1406,-.5 92.1406,-36.5 146.3124,-36.5 146.3124,-.5 92.1406,-.5"/>
<text text-anchor="middle" x="109.4765" y="-14.4" font-family="Times,serif" font-size="14.00" fill="#000000">/ / /</text>
<polyline fill="none" stroke="#000000" points="126.8124,-.7 126.8124,-36.5 "/>
<text text-anchor="middle" x="136.5624" y="-14.4" font-family="Times,serif" font-size="14.00" fill="#000000"> </text>
</g>
<!-- L&#45;&gt;a -->
<g id="edge1" class="edge">
<title>L&#45;&gt;a</title>
<path fill="none" stroke="#000000" d="M54.1722,-18.5C62.8197,-18.5 72.5429,-18.5 81.7841,-18.5"/>
<polygon fill="#000000" stroke="#000000" points="81.9299,-22.0001 91.9298,-18.5 81.9298,-15.0001 81.9299,-22.0001"/>
</g>
<!-- b -->
<g id="node3" class="node">
<title>b</title>
<polygon fill="none" stroke="#000000" points="184.453,-.5 184.453,-36.5 241.6782,-36.5 241.6782,-.5 184.453,-.5"/>
<text text-anchor="middle" x="203.3156" y="-14.4" font-family="Times,serif" font-size="14.00" fill="#000000">　　</text>
<polyline fill="none" stroke="#000000" points="222.1782,-.7 222.1782,-36.5 "/>
<text text-anchor="middle" x="231.9282" y="-14.4" font-family="Times,serif" font-size="14.00" fill="#000000"> </text>
</g>
<!-- a&#45;&gt;b -->
<g id="edge2" class="edge">
<title>a:a2&#45;&gt;b:a1</title>
<path fill="none" stroke="#000000" d="M146.2265,-18.5C159.2341,-18.5 164.7725,-18.5 174.279,-18.5"/>
<polygon fill="#000000" stroke="#000000" points="174.453,-22.0001 184.453,-18.5 174.453,-15.0001 174.453,-22.0001"/>
</g>
<!-- c -->
<g id="node4" class="node">
<title>c</title>
<polygon fill="none" stroke="#000000" points="277.6782,-.5 277.6782,-36.5 334.9034,-36.5 334.9034,-.5 277.6782,-.5"/>
<text text-anchor="middle" x="296.5408" y="-14.4" font-family="Times,serif" font-size="14.00" fill="#000000">　　</text>
<polyline fill="none" stroke="#000000" points="315.4034,-.7 315.4034,-36.5 "/>
<text text-anchor="middle" x="325.1534" y="-14.4" font-family="Times,serif" font-size="14.00" fill="#000000"> </text>
</g>
<!-- b&#45;&gt;c -->
<g id="edge3" class="edge">
<title>b:a2&#45;&gt;c:a1</title>
<path fill="none" stroke="#000000" d="M241.6782,-18.5C253.6782,-18.5 258.9282,-18.5 267.5532,-18.5"/>
<polygon fill="#000000" stroke="#000000" points="267.6782,-22.0001 277.6782,-18.5 267.6782,-15.0001 267.6782,-22.0001"/>
</g>
<!-- d -->
<g id="node5" class="node">
<title>d</title>
<polygon fill="none" stroke="#000000" points="370.9034,-.5 370.9034,-36.5 428.1286,-36.5 428.1286,-.5 370.9034,-.5"/>
<text text-anchor="middle" x="389.766" y="-14.4" font-family="Times,serif" font-size="14.00" fill="#000000">　　</text>
<polyline fill="none" stroke="#000000" points="408.6286,-.7 408.6286,-36.5 "/>
<text text-anchor="middle" x="418.3786" y="-14.4" font-family="Times,serif" font-size="14.00" fill="#000000"> </text>
</g>
<!-- c&#45;&gt;d -->
<g id="edge4" class="edge">
<title>c:a2&#45;&gt;d:a1</title>
<path fill="none" stroke="#000000" d="M334.9034,-18.5C346.9034,-18.5 352.1534,-18.5 360.7784,-18.5"/>
<polygon fill="#000000" stroke="#000000" points="360.9034,-22.0001 370.9034,-18.5 360.9034,-15.0001 360.9034,-22.0001"/>
</g>
<!-- e -->
<g id="node6" class="node">
<title>e</title>
<polygon fill="none" stroke="#000000" points="464.1286,-.5 464.1286,-36.5 525.635,-36.5 525.635,-.5 464.1286,-.5"/>
<text text-anchor="middle" x="482.9912" y="-14.4" font-family="Times,serif" font-size="14.00" fill="#000000">　　</text>
<polyline fill="none" stroke="#000000" points="501.8538,-.7 501.8538,-36.5 "/>
<text text-anchor="middle" x="513.7444" y="-14.4" font-family="Times,serif" font-size="14.00" fill="#000000">/\</text>
</g>
<!-- d&#45;&gt;e -->
<g id="edge5" class="edge">
<title>d:a2&#45;&gt;e:a1</title>
<path fill="none" stroke="#000000" d="M428.1286,-18.5C440.1286,-18.5 445.3786,-18.5 454.0036,-18.5"/>
<polygon fill="#000000" stroke="#000000" points="454.1286,-22.0001 464.1286,-18.5 454.1286,-15.0001 454.1286,-22.0001"/>
</g>
<!-- LL -->
<g id="node7" class="node">
<title>LL</title>
<text text-anchor="middle" x="27" y="-69.3" font-family="Times,serif" font-size="14.00" fill="#000000">L</text>
</g>
<!-- A -->
<g id="node8" class="node">
<title>A</title>
<polygon fill="none" stroke="#000000" points="90,-55.5 90,-91.5 148.453,-91.5 148.453,-55.5 90,-55.5"/>
<text text-anchor="middle" x="107.3359" y="-69.4" font-family="Times,serif" font-size="14.00" fill="#000000">/ / /</text>
<polyline fill="none" stroke="#000000" points="124.6718,-55.7 124.6718,-91.5 "/>
<text text-anchor="middle" x="136.5624" y="-69.4" font-family="Times,serif" font-size="14.00" fill="#000000">/\</text>
</g>
<!-- LL&#45;&gt;A -->
<g id="edge6" class="edge">
<title>LL&#45;&gt;A</title>
<path fill="none" stroke="#000000" d="M54.1722,-73.5C62.1804,-73.5 71.1112,-73.5 79.7273,-73.5"/>
<polygon fill="#000000" stroke="#000000" points="79.998,-77.0001 89.998,-73.5 79.9979,-70.0001 79.998,-77.0001"/>
</g>
</g>
</svg>
