<?xml version="1.0" encoding="UTF-8" standalone="no"?>
<!DOCTYPE svg PUBLIC "-//W3C//DTD SVG 1.1//EN"
 "http://www.w3.org/Graphics/SVG/1.1/DTD/svg11.dtd">
<!-- Generated by graphviz version 2.40.1 (20161225.0304)
 -->
<!-- Title: G Pages: 1 -->
<svg width="568pt" height="45pt"
 viewBox="0.00 0.00 568.24 45.00" xmlns="http://www.w3.org/2000/svg" xmlns:xlink="http://www.w3.org/1999/xlink">
<g id="graph0" class="graph" transform="scale(1 1) rotate(0) translate(4 41)">
<title>G</title>
<polygon fill="#ffffff" stroke="transparent" points="-4,4 -4,-41 564.2402,-41 564.2402,4 -4,4"/>
<!-- L -->
<g id="node1" class="node">
<title>L</title>
<text text-anchor="middle" x="27" y="-14.3" font-family="Times,serif" font-size="14.00" fill="#000000">L</text>
</g>
<!-- a -->
<g id="node2" class="node">
<title>a</title>
<polygon fill="none" stroke="#000000" points="90,-.5 90,-36.5 144.1718,-36.5 144.1718,-.5 90,-.5"/>
<text text-anchor="middle" x="107.3359" y="-14.4" font-family="Times,serif" font-size="14.00" fill="#000000">/ / /</text>
<polyline fill="none" stroke="#000000" points="124.6718,-.7 124.6718,-36.5 "/>
<text text-anchor="middle" x="134.4218" y="-14.4" font-family="Times,serif" font-size="14.00" fill="#000000"> </text>
</g>
<!-- L&#45;&gt;a -->
<g id="edge1" class="edge">
<title>L&#45;&gt;a</title>
<path fill="none" stroke="#000000" d="M54.0287,-18.5C62.0611,-18.5 71.0085,-18.5 79.581,-18.5"/>
<polygon fill="#000000" stroke="#000000" points="79.7649,-22.0001 89.7649,-18.5 79.7648,-15.0001 79.7649,-22.0001"/>
</g>
<!-- b -->
<g id="node3" class="node">
<title>b</title>
<polygon fill="none" stroke="#000000" points="180.1718,-.5 180.1718,-36.5 247.5036,-36.5 247.5036,-.5 180.1718,-.5"/>
<text text-anchor="middle" x="204.0877" y="-14.4" font-family="Times,serif" font-size="14.00" fill="#000000">　A　</text>
<polyline fill="none" stroke="#000000" points="228.0036,-.7 228.0036,-36.5 "/>
<text text-anchor="middle" x="237.7536" y="-14.4" font-family="Times,serif" font-size="14.00" fill="#000000"> </text>
</g>
<!-- a&#45;&gt;b -->
<g id="edge2" class="edge">
<title>a:a2&#45;&gt;b:a1</title>
<path fill="none" stroke="#000000" d="M144.0859,-18.5C156.1145,-18.5 161.3771,-18.5 170.0226,-18.5"/>
<polygon fill="#000000" stroke="#000000" points="170.1718,-22.0001 180.1718,-18.5 170.1718,-15.0001 170.1718,-22.0001"/>
</g>
<!-- c -->
<g id="node4" class="node">
<title>c</title>
<polygon fill="none" stroke="#000000" points="283.5036,-.5 283.5036,-36.5 350.0654,-36.5 350.0654,-.5 283.5036,-.5"/>
<text text-anchor="middle" x="307.0345" y="-14.4" font-family="Times,serif" font-size="14.00" fill="#000000">　B　</text>
<polyline fill="none" stroke="#000000" points="330.5654,-.7 330.5654,-36.5 "/>
<text text-anchor="middle" x="340.3154" y="-14.4" font-family="Times,serif" font-size="14.00" fill="#000000"> </text>
</g>
<!-- b&#45;&gt;c -->
<g id="edge3" class="edge">
<title>b:a2&#45;&gt;c:a1</title>
<path fill="none" stroke="#000000" d="M247.5036,-18.5C259.5972,-18.5 264.8882,-18.5 273.5805,-18.5"/>
<polygon fill="#000000" stroke="#000000" points="273.7845,-22.0001 283.7845,-18.5 273.7845,-15.0001 273.7845,-22.0001"/>
</g>
<!-- d -->
<g id="node5" class="node">
<title>d</title>
<polygon fill="none" stroke="#000000" points="386.0654,-.5 386.0654,-36.5 452.6272,-36.5 452.6272,-.5 386.0654,-.5"/>
<text text-anchor="middle" x="409.5963" y="-14.4" font-family="Times,serif" font-size="14.00" fill="#000000">　C　</text>
<polyline fill="none" stroke="#000000" points="433.1272,-.7 433.1272,-36.5 "/>
<text text-anchor="middle" x="442.8772" y="-14.4" font-family="Times,serif" font-size="14.00" fill="#000000"> </text>
</g>
<!-- c&#45;&gt;d -->
<g id="edge4" class="edge">
<title>c:a2&#45;&gt;d:a1</title>
<path fill="none" stroke="#000000" d="M349.7845,-18.5C362.0987,-18.5 367.414,-18.5 376.3382,-18.5"/>
<polygon fill="#000000" stroke="#000000" points="376.3463,-22.0001 386.3463,-18.5 376.3463,-15.0001 376.3463,-22.0001"/>
</g>
<!-- e -->
<g id="node6" class="node">
<title>e</title>
<polygon fill="none" stroke="#000000" points="488.6272,-.5 488.6272,-36.5 560.2402,-36.5 560.2402,-.5 488.6272,-.5"/>
<text text-anchor="middle" x="512.5431" y="-14.4" font-family="Times,serif" font-size="14.00" fill="#000000">　D　</text>
<polyline fill="none" stroke="#000000" points="536.459,-.7 536.459,-36.5 "/>
<text text-anchor="middle" x="548.3496" y="-14.4" font-family="Times,serif" font-size="14.00" fill="#000000">/\</text>
</g>
<!-- d&#45;&gt;e -->
<g id="edge5" class="edge">
<title>d:a2&#45;&gt;e:a1</title>
<path fill="none" stroke="#000000" d="M452.3463,-18.5C464.4399,-18.5 469.7309,-18.5 478.4232,-18.5"/>
<polygon fill="#000000" stroke="#000000" points="478.6272,-22.0001 488.6272,-18.5 478.6272,-15.0001 478.6272,-22.0001"/>
</g>
</g>
</svg>
