<?xml version="1.0" encoding="UTF-8" standalone="no"?>
<!DOCTYPE svg PUBLIC "-//W3C//DTD SVG 1.1//EN"
 "http://www.w3.org/Graphics/SVG/1.1/DTD/svg11.dtd">
<!-- Generated by graphviz version 2.40.1 (20161225.0304)
 -->
<!-- Title: G Pages: 1 -->
<svg width="234pt" height="150pt"
 viewBox="0.00 0.00 234.00 150.00" xmlns="http://www.w3.org/2000/svg" xmlns:xlink="http://www.w3.org/1999/xlink">
<g id="graph0" class="graph" transform="scale(1 1) rotate(0) translate(4 146)">
<title>G</title>
<polygon fill="#ffffff" stroke="transparent" points="-4,4 -4,-146 230,-146 230,4 -4,4"/>
<g id="clust1" class="cluster">
<title>cluster_0</title>
<polygon fill="none" stroke="#000000" points="8,-8 8,-134 218,-134 218,-8 8,-8"/>
</g>
<!-- A -->
<g id="node1" class="node">
<title>A</title>
<polygon fill="none" stroke="#000000" points="16.5,-89.5 16.5,-125.5 209.5,-125.5 209.5,-89.5 16.5,-89.5"/>
<text text-anchor="middle" x="28" y="-103.3" font-family="Times,serif" font-size="14.00" fill="#000000">1</text>
<polyline fill="none" stroke="#000000" points="39.5,-89.5 39.5,-125.5 "/>
<text text-anchor="middle" x="51" y="-103.3" font-family="Times,serif" font-size="14.00" fill="#000000">2</text>
<polyline fill="none" stroke="#000000" points="62.5,-89.5 62.5,-125.5 "/>
<text text-anchor="middle" x="74" y="-103.3" font-family="Times,serif" font-size="14.00" fill="#000000">3</text>
<polyline fill="none" stroke="#000000" points="85.5,-89.5 85.5,-125.5 "/>
<text text-anchor="middle" x="97" y="-103.3" font-family="Times,serif" font-size="14.00" fill="#000000">4</text>
<polyline fill="none" stroke="#000000" points="108.5,-89.5 108.5,-125.5 "/>
<text text-anchor="middle" x="120" y="-103.3" font-family="Times,serif" font-size="14.00" fill="#000000">5</text>
<polyline fill="none" stroke="#000000" points="131.5,-89.5 131.5,-125.5 "/>
<text text-anchor="middle" x="141.25" y="-103.3" font-family="Times,serif" font-size="14.00" fill="#000000"> </text>
<polyline fill="none" stroke="#000000" points="151,-89.5 151,-125.5 "/>
<text text-anchor="middle" x="160.75" y="-103.3" font-family="Times,serif" font-size="14.00" fill="#000000"> </text>
<polyline fill="none" stroke="#000000" points="170.5,-89.5 170.5,-125.5 "/>
<text text-anchor="middle" x="180.25" y="-103.3" font-family="Times,serif" font-size="14.00" fill="#000000"> </text>
<polyline fill="none" stroke="#000000" points="190,-89.5 190,-125.5 "/>
<text text-anchor="middle" x="199.75" y="-103.3" font-family="Times,serif" font-size="14.00" fill="#000000"> </text>
</g>
<!-- B -->
<g id="node2" class="node">
<title>B</title>
<polygon fill="none" stroke="#000000" points="20.25,-16.5 20.25,-52.5 209.75,-52.5 209.75,-16.5 20.25,-16.5"/>
<text text-anchor="middle" x="31.75" y="-30.3" font-family="Times,serif" font-size="14.00" fill="#000000">1</text>
<polyline fill="none" stroke="#000000" points="43.25,-16.5 43.25,-52.5 "/>
<text text-anchor="middle" x="54.75" y="-30.3" font-family="Times,serif" font-size="14.00" fill="#000000">2</text>
<polyline fill="none" stroke="#000000" points="66.25,-16.5 66.25,-52.5 "/>
<text text-anchor="middle" x="77.75" y="-30.3" font-family="Times,serif" font-size="14.00" fill="#000000">4</text>
<polyline fill="none" stroke="#000000" points="89.25,-16.5 89.25,-52.5 "/>
<text text-anchor="middle" x="100.75" y="-30.3" font-family="Times,serif" font-size="14.00" fill="#000000">5</text>
<polyline fill="none" stroke="#000000" points="112.25,-16.5 112.25,-52.5 "/>
<text text-anchor="middle" x="122" y="-30.3" font-family="Times,serif" font-size="14.00" fill="#000000"> </text>
<polyline fill="none" stroke="#000000" points="131.75,-16.5 131.75,-52.5 "/>
<text text-anchor="middle" x="141.5" y="-30.3" font-family="Times,serif" font-size="14.00" fill="#000000"> </text>
<polyline fill="none" stroke="#000000" points="151.25,-16.5 151.25,-52.5 "/>
<text text-anchor="middle" x="161" y="-30.3" font-family="Times,serif" font-size="14.00" fill="#000000"> </text>
<polyline fill="none" stroke="#000000" points="170.75,-16.5 170.75,-52.5 "/>
<text text-anchor="middle" x="180.5" y="-30.3" font-family="Times,serif" font-size="14.00" fill="#000000"> </text>
<polyline fill="none" stroke="#000000" points="190.25,-16.5 190.25,-52.5 "/>
<text text-anchor="middle" x="200" y="-30.3" font-family="Times,serif" font-size="14.00" fill="#000000"> </text>
</g>
<!-- A&#45;&gt;B -->
<g id="edge1" class="edge">
<title>A:a4&#45;&gt;B:b4</title>
<path fill="none" stroke="#000000" d="M97,-89.5C97,-75.0579 85.4033,-71.8815 80.3298,-62.3681"/>
<polygon fill="#000000" stroke="#000000" points="83.7042,-61.4282 78,-52.5 76.8915,-63.0367 83.7042,-61.4282"/>
</g>
<!-- A&#45;&gt;B -->
<g id="edge2" class="edge">
<title>A:a5&#45;&gt;B:b5</title>
<path fill="none" stroke="#000000" d="M120,-89.5C120,-75.0579 108.4033,-71.8815 103.3298,-62.3681"/>
<polygon fill="#000000" stroke="#000000" points="106.7042,-61.4282 101,-52.5 99.8915,-63.0367 106.7042,-61.4282"/>
</g>
</g>
</svg>
