<?xml version="1.0" encoding="UTF-8" standalone="no"?>
<!DOCTYPE svg PUBLIC "-//W3C//DTD SVG 1.1//EN"
 "http://www.w3.org/Graphics/SVG/1.1/DTD/svg11.dtd">
<!-- Generated by graphviz version 2.40.1 (20161225.0304)
 -->
<!-- Title: G Pages: 1 -->
<svg width="236pt" height="150pt"
 viewBox="0.00 0.00 236.00 150.00" xmlns="http://www.w3.org/2000/svg" xmlns:xlink="http://www.w3.org/1999/xlink">
<g id="graph0" class="graph" transform="scale(1 1) rotate(0) translate(4 146)">
<title>G</title>
<polygon fill="#ffffff" stroke="transparent" points="-4,4 -4,-146 232,-146 232,4 -4,4"/>
<g id="clust1" class="cluster">
<title>cluster_0</title>
<polygon fill="none" stroke="#000000" points="8,-8 8,-134 220,-134 220,-8 8,-8"/>
</g>
<!-- A -->
<g id="node1" class="node">
<title>A</title>
<polygon fill="none" stroke="#000000" points="18.5,-89.5 18.5,-125.5 211.5,-125.5 211.5,-89.5 18.5,-89.5"/>
<text text-anchor="middle" x="30" y="-103.3" font-family="Times,serif" font-size="14.00" fill="#000000">1</text>
<polyline fill="none" stroke="#000000" points="41.5,-89.5 41.5,-125.5 "/>
<text text-anchor="middle" x="53" y="-103.3" font-family="Times,serif" font-size="14.00" fill="#000000">2</text>
<polyline fill="none" stroke="#000000" points="64.5,-89.5 64.5,-125.5 "/>
<text text-anchor="middle" x="76" y="-103.3" font-family="Times,serif" font-size="14.00" fill="#000000">3</text>
<polyline fill="none" stroke="#000000" points="87.5,-89.5 87.5,-125.5 "/>
<text text-anchor="middle" x="99" y="-103.3" font-family="Times,serif" font-size="14.00" fill="#000000">4</text>
<polyline fill="none" stroke="#000000" points="110.5,-89.5 110.5,-125.5 "/>
<text text-anchor="middle" x="122" y="-103.3" font-family="Times,serif" font-size="14.00" fill="#000000">5</text>
<polyline fill="none" stroke="#000000" points="133.5,-89.5 133.5,-125.5 "/>
<text text-anchor="middle" x="143.25" y="-103.3" font-family="Times,serif" font-size="14.00" fill="#000000"> </text>
<polyline fill="none" stroke="#000000" points="153,-89.5 153,-125.5 "/>
<text text-anchor="middle" x="162.75" y="-103.3" font-family="Times,serif" font-size="14.00" fill="#000000"> </text>
<polyline fill="none" stroke="#000000" points="172.5,-89.5 172.5,-125.5 "/>
<text text-anchor="middle" x="182.25" y="-103.3" font-family="Times,serif" font-size="14.00" fill="#000000"> </text>
<polyline fill="none" stroke="#000000" points="192,-89.5 192,-125.5 "/>
<text text-anchor="middle" x="201.75" y="-103.3" font-family="Times,serif" font-size="14.00" fill="#000000"> </text>
</g>
<!-- B -->
<g id="node2" class="node">
<title>B</title>
<polygon fill="none" stroke="#000000" points="15.75,-16.5 15.75,-52.5 212.25,-52.5 212.25,-16.5 15.75,-16.5"/>
<text text-anchor="middle" x="27.25" y="-30.3" font-family="Times,serif" font-size="14.00" fill="#000000">1</text>
<polyline fill="none" stroke="#000000" points="38.75,-16.5 38.75,-52.5 "/>
<text text-anchor="middle" x="50.25" y="-30.3" font-family="Times,serif" font-size="14.00" fill="#000000">2</text>
<polyline fill="none" stroke="#000000" points="61.75,-16.5 61.75,-52.5 "/>
<text text-anchor="middle" x="73.25" y="-30.3" font-family="Times,serif" font-size="14.00" fill="#000000">e</text>
<polyline fill="none" stroke="#000000" points="84.75,-16.5 84.75,-52.5 "/>
<text text-anchor="middle" x="96.25" y="-30.3" font-family="Times,serif" font-size="14.00" fill="#000000">3</text>
<polyline fill="none" stroke="#000000" points="107.75,-16.5 107.75,-52.5 "/>
<text text-anchor="middle" x="119.25" y="-30.3" font-family="Times,serif" font-size="14.00" fill="#000000">4</text>
<polyline fill="none" stroke="#000000" points="130.75,-16.5 130.75,-52.5 "/>
<text text-anchor="middle" x="142.25" y="-30.3" font-family="Times,serif" font-size="14.00" fill="#000000">5</text>
<polyline fill="none" stroke="#000000" points="153.75,-16.5 153.75,-52.5 "/>
<text text-anchor="middle" x="163.5" y="-30.3" font-family="Times,serif" font-size="14.00" fill="#000000"> </text>
<polyline fill="none" stroke="#000000" points="173.25,-16.5 173.25,-52.5 "/>
<text text-anchor="middle" x="183" y="-30.3" font-family="Times,serif" font-size="14.00" fill="#000000"> </text>
<polyline fill="none" stroke="#000000" points="192.75,-16.5 192.75,-52.5 "/>
<text text-anchor="middle" x="202.5" y="-30.3" font-family="Times,serif" font-size="14.00" fill="#000000"> </text>
</g>
<!-- A&#45;&gt;B -->
<g id="edge1" class="edge">
<title>A:a3&#45;&gt;B:b3</title>
<path fill="none" stroke="#000000" d="M76,-89.5C76,-74.896 88.207,-71.9371 93.5476,-62.4279"/>
<polygon fill="#000000" stroke="#000000" points="96.9997,-63.0476 96,-52.5 90.2039,-61.3688 96.9997,-63.0476"/>
</g>
<!-- A&#45;&gt;B -->
<g id="edge2" class="edge">
<title>A:a4&#45;&gt;B:b4</title>
<path fill="none" stroke="#000000" d="M99,-89.5C99,-74.896 111.207,-71.9371 116.5476,-62.4279"/>
<polygon fill="#000000" stroke="#000000" points="119.9997,-63.0476 119,-52.5 113.2039,-61.3688 119.9997,-63.0476"/>
</g>
<!-- A&#45;&gt;B -->
<g id="edge3" class="edge">
<title>A:a5&#45;&gt;B:b5</title>
<path fill="none" stroke="#000000" d="M122,-89.5C122,-74.896 134.207,-71.9371 139.5476,-62.4279"/>
<polygon fill="#000000" stroke="#000000" points="142.9997,-63.0476 142,-52.5 136.2039,-61.3688 142.9997,-63.0476"/>
</g>
</g>
</svg>
