<?xml version="1.0" encoding="UTF-8" standalone="no"?>
<!DOCTYPE svg PUBLIC "-//W3C//DTD SVG 1.1//EN"
 "http://www.w3.org/Graphics/SVG/1.1/DTD/svg11.dtd">
<!-- Generated by graphviz version 2.40.1 (20161225.0304)
 -->
<!-- Title: G Pages: 1 -->
<svg width="153pt" height="140pt"
 viewBox="0.00 0.00 152.88 140.20" xmlns="http://www.w3.org/2000/svg" xmlns:xlink="http://www.w3.org/1999/xlink">
<g id="graph0" class="graph" transform="scale(1 1) rotate(0) translate(4 136.2)">
<title>G</title>
<polygon fill="#ffffff" stroke="transparent" points="-4,4 -4,-136.2 148.8808,-136.2 148.8808,4 -4,4"/>
<!-- A -->
<g id="node1" class="node">
<title>A</title>
<polygon fill="none" stroke="#000000" points="0,-56.9 0,-131.3 54.8808,-131.3 54.8808,-56.9 0,-56.9"/>
<text text-anchor="middle" x="27.4404" y="-114.7" font-family="Times,serif" font-size="14.00" fill="#000000">elem</text>
<polyline fill="none" stroke="#000000" points="0,-106.5 54.8808,-106.5 "/>
<text text-anchor="middle" x="27.4404" y="-89.9" font-family="Times,serif" font-size="14.00" fill="#000000">listsize</text>
<polyline fill="none" stroke="#000000" points="0,-81.7 54.8808,-81.7 "/>
<text text-anchor="middle" x="27.4404" y="-65.1" font-family="Times,serif" font-size="14.00" fill="#000000">length</text>
</g>
<!-- B -->
<g id="node2" class="node">
<title>B</title>
<polygon fill="none" stroke="#000000" points="90.8808,-.5 90.8808,-131.7 144.8808,-131.7 144.8808,-.5 90.8808,-.5"/>
<text text-anchor="middle" x="117.8808" y="-115.1" font-family="Times,serif" font-size="14.00" fill="#000000"> </text>
<polyline fill="none" stroke="#000000" points="90.8808,-106.9 144.8808,-106.9 "/>
<text text-anchor="middle" x="117.8808" y="-90.3" font-family="Times,serif" font-size="14.00" fill="#000000"> </text>
<polyline fill="none" stroke="#000000" points="90.8808,-82.1 144.8808,-82.1 "/>
<text text-anchor="middle" x="117.8808" y="-49.5" font-family="Times,serif" font-size="14.00" fill="#000000">...</text>
<polyline fill="none" stroke="#000000" points="90.8808,-25.3 144.8808,-25.3 "/>
<text text-anchor="middle" x="117.8808" y="-8.7" font-family="Times,serif" font-size="14.00" fill="#000000"> </text>
</g>
<!-- A&#45;&gt;B -->
<g id="edge1" class="edge">
<title>A:a&#45;&gt;B:b</title>
<path fill="none" stroke="#000000" d="M54.4404,-119.1C66.5872,-119.1 71.9014,-119.1 80.6319,-119.1"/>
<polygon fill="#000000" stroke="#000000" points="80.8808,-122.6001 90.8808,-119.1 80.8808,-115.6001 80.8808,-122.6001"/>
</g>
</g>
</svg>
