<?xml version="1.0" encoding="UTF-8" standalone="no"?>
<!DOCTYPE svg PUBLIC "-//W3C//DTD SVG 1.1//EN"
 "http://www.w3.org/Graphics/SVG/1.1/DTD/svg11.dtd">
<!-- Generated by graphviz version 2.40.1 (20161225.0304)
 -->
<!-- Title: G Pages: 1 -->
<svg width="692pt" height="44pt"
 viewBox="0.00 0.00 692.00 44.00" xmlns="http://www.w3.org/2000/svg" xmlns:xlink="http://www.w3.org/1999/xlink">
<g id="graph0" class="graph" transform="scale(1 1) rotate(0) translate(4 40)">
<title>G</title>
<polygon fill="#ffffff" stroke="transparent" points="-4,4 -4,-40 688,-40 688,4 -4,4"/>
<!-- a -->
<g id="node1" class="node">
<title>a</title>
<ellipse fill="none" stroke="#000000" cx="18" cy="-18" rx="18" ry="18"/>
</g>
<!-- b -->
<g id="node2" class="node">
<title>b</title>
<ellipse fill="none" stroke="#000000" cx="126" cy="-18" rx="18" ry="18"/>
</g>
<!-- a&#45;&#45;b -->
<g id="edge1" class="edge">
<title>a&#45;&#45;b</title>
<path fill="none" stroke="#000000" d="M36.3207,-18C56.301,-18 88.0769,-18 107.9498,-18"/>
</g>
<!-- c -->
<g id="node3" class="node">
<title>c</title>
<ellipse fill="none" stroke="#000000" cx="234" cy="-18" rx="18" ry="18"/>
</g>
<!-- b&#45;&#45;c -->
<g id="edge2" class="edge">
<title>b&#45;&#45;c</title>
<path fill="none" stroke="#000000" d="M144.3207,-18C164.301,-18 196.0769,-18 215.9498,-18"/>
</g>
<!-- d -->
<g id="node4" class="node">
<title>d</title>
<ellipse fill="none" stroke="#000000" cx="342" cy="-18" rx="18" ry="18"/>
</g>
<!-- c&#45;&#45;d -->
<g id="edge3" class="edge">
<title>c&#45;&#45;d</title>
<path fill="none" stroke="#000000" d="M252.3207,-18C272.301,-18 304.0769,-18 323.9498,-18"/>
</g>
<!-- e -->
<g id="node5" class="node">
<title>e</title>
<ellipse fill="none" stroke="#000000" cx="450" cy="-18" rx="18" ry="18"/>
</g>
<!-- d&#45;&#45;e -->
<g id="edge4" class="edge">
<title>d&#45;&#45;e</title>
<path fill="none" stroke="#000000" d="M360.3207,-18C380.301,-18 412.0769,-18 431.9498,-18"/>
</g>
<!-- f -->
<g id="node6" class="node">
<title>f</title>
<ellipse fill="none" stroke="#000000" cx="558" cy="-18" rx="18" ry="18"/>
</g>
<!-- e&#45;&#45;f -->
<g id="edge5" class="edge">
<title>e&#45;&#45;f</title>
<path fill="none" stroke="#000000" d="M468.3207,-18C488.301,-18 520.0769,-18 539.9498,-18"/>
</g>
<!-- g -->
<g id="node7" class="node">
<title>g</title>
<ellipse fill="none" stroke="#000000" cx="666" cy="-18" rx="18" ry="18"/>
</g>
<!-- f&#45;&#45;g -->
<g id="edge6" class="edge">
<title>f&#45;&#45;g</title>
<path fill="none" stroke="#000000" d="M576.3207,-18C596.301,-18 628.0769,-18 647.9498,-18"/>
</g>
</g>
</svg>
