<?xml version="1.0" encoding="UTF-8" standalone="no"?>
<!DOCTYPE svg PUBLIC "-//W3C//DTD SVG 1.1//EN"
 "http://www.w3.org/Graphics/SVG/1.1/DTD/svg11.dtd">
<!-- Generated by graphviz version 2.40.1 (20161225.0304)
 -->
<!-- Title: G Pages: 1 -->
<svg width="233pt" height="188pt"
 viewBox="0.00 0.00 233.00 188.00" xmlns="http://www.w3.org/2000/svg" xmlns:xlink="http://www.w3.org/1999/xlink">
<g id="graph0" class="graph" transform="scale(1 1) rotate(0) translate(4 184)">
<title>G</title>
<polygon fill="#ffffff" stroke="transparent" points="-4,4 -4,-184 229,-184 229,4 -4,4"/>
<!-- a -->
<g id="node1" class="node">
<title>a</title>
<ellipse fill="none" stroke="#000000" cx="126" cy="-162" rx="18" ry="18"/>
</g>
<!-- b -->
<g id="node2" class="node">
<title>b</title>
<ellipse fill="none" stroke="#000000" cx="45" cy="-90" rx="18" ry="18"/>
</g>
<!-- a&#45;&#45;b -->
<g id="edge1" class="edge">
<title>a&#45;&#45;b</title>
<path fill="none" stroke="#000000" d="M112.2595,-149.7862C97.2743,-136.466 73.4423,-115.2821 58.5376,-102.0334"/>
</g>
<!-- c -->
<g id="node3" class="node">
<title>c</title>
<ellipse fill="none" stroke="#000000" cx="99" cy="-90" rx="18" ry="18"/>
</g>
<!-- a&#45;&#45;c -->
<g id="edge2" class="edge">
<title>a&#45;&#45;c</title>
<path fill="none" stroke="#000000" d="M119.6014,-144.937C115.2974,-133.4596 109.6471,-118.3922 105.3527,-106.9405"/>
</g>
<!-- d -->
<g id="node4" class="node">
<title>d</title>
<ellipse fill="none" stroke="#000000" cx="153" cy="-90" rx="18" ry="18"/>
</g>
<!-- a&#45;&#45;d -->
<g id="edge3" class="edge">
<title>a&#45;&#45;d</title>
<path fill="none" stroke="#000000" d="M132.3986,-144.937C136.7026,-133.4596 142.3529,-118.3922 146.6473,-106.9405"/>
</g>
<!-- h -->
<g id="node8" class="node">
<title>h</title>
<ellipse fill="none" stroke="#000000" cx="207" cy="-90" rx="18" ry="18"/>
</g>
<!-- a&#45;&#45;h -->
<g id="edge7" class="edge">
<title>a&#45;&#45;h</title>
<path fill="none" stroke="#000000" d="M139.7405,-149.7862C154.7257,-136.466 178.5577,-115.2821 193.4624,-102.0334"/>
</g>
<!-- e -->
<g id="node5" class="node">
<title>e</title>
<ellipse fill="none" stroke="#000000" cx="18" cy="-18" rx="18" ry="18"/>
</g>
<!-- b&#45;&#45;e -->
<g id="edge4" class="edge">
<title>b&#45;&#45;e</title>
<path fill="none" stroke="#000000" d="M38.6014,-72.937C34.2974,-61.4596 28.6471,-46.3922 24.3527,-34.9405"/>
</g>
<!-- f -->
<g id="node6" class="node">
<title>f</title>
<ellipse fill="none" stroke="#000000" cx="72" cy="-18" rx="18" ry="18"/>
</g>
<!-- b&#45;&#45;f -->
<g id="edge5" class="edge">
<title>b&#45;&#45;f</title>
<path fill="none" stroke="#000000" d="M51.3986,-72.937C55.7026,-61.4596 61.3529,-46.3922 65.6473,-34.9405"/>
</g>
<!-- g -->
<g id="node7" class="node">
<title>g</title>
<ellipse fill="none" stroke="#000000" cx="153" cy="-18" rx="18" ry="18"/>
</g>
<!-- d&#45;&#45;g -->
<g id="edge6" class="edge">
<title>d&#45;&#45;g</title>
<path fill="none" stroke="#000000" d="M153,-71.8314C153,-61 153,-47.2876 153,-36.4133"/>
</g>
</g>
</svg>
