<?xml version="1.0" encoding="UTF-8" standalone="no"?>
<!DOCTYPE svg PUBLIC "-//W3C//DTD SVG 1.1//EN"
 "http://www.w3.org/Graphics/SVG/1.1/DTD/svg11.dtd">
<!-- Generated by graphviz version 2.40.1 (20161225.0304)
 -->
<!-- Title: G Pages: 1 -->
<svg width="306pt" height="207pt"
 viewBox="0.00 0.00 305.85 207.47" xmlns="http://www.w3.org/2000/svg" xmlns:xlink="http://www.w3.org/1999/xlink">
<g id="graph0" class="graph" transform="scale(1 1) rotate(0) translate(4 203.4746)">
<title>G</title>
<polygon fill="#ffffff" stroke="transparent" points="-4,4 -4,-203.4746 301.851,-203.4746 301.851,4 -4,4"/>
<!-- a -->
<g id="node1" class="node">
<title>a</title>
<ellipse fill="none" stroke="#000000" cx="173.4736" cy="-99.7373" rx="18" ry="18"/>
</g>
<!-- b -->
<g id="node2" class="node">
<title>b</title>
<ellipse fill="none" stroke="#000000" cx="114.0879" cy="-18" rx="18" ry="18"/>
</g>
<!-- a&#45;&#45;b -->
<g id="edge1" class="edge">
<title>a&#45;&#45;b</title>
<path fill="none" stroke="#000000" d="M162.8566,-85.1243C152.114,-70.3384 135.5944,-47.6012 124.8132,-32.7621"/>
</g>
<!-- c -->
<g id="node3" class="node">
<title>c</title>
<ellipse fill="none" stroke="#000000" cx="114.0879" cy="-181.4746" rx="18" ry="18"/>
</g>
<!-- a&#45;&#45;c -->
<g id="edge2" class="edge">
<title>a&#45;&#45;c</title>
<path fill="none" stroke="#000000" d="M162.8566,-114.3503C152.114,-129.1362 135.5944,-151.8734 124.8132,-166.7125"/>
</g>
<!-- d -->
<g id="node4" class="node">
<title>d</title>
<ellipse fill="none" stroke="#000000" cx="279.851" cy="-134.1148" rx="18" ry="18"/>
</g>
<!-- a&#45;&#45;d -->
<g id="edge3" class="edge">
<title>a&#45;&#45;d</title>
<path fill="none" stroke="#000000" d="M191.0396,-105.414C210.8677,-111.8218 242.9193,-122.1797 262.6118,-128.5436"/>
</g>
<!-- g -->
<g id="node6" class="node">
<title>g</title>
<ellipse fill="none" stroke="#000000" cx="279.851" cy="-65.3598" rx="18" ry="18"/>
</g>
<!-- a&#45;&#45;g -->
<g id="edge9" class="edge">
<title>a&#45;&#45;g</title>
<path fill="none" stroke="#000000" d="M191.0396,-94.0605C210.8677,-87.6528 242.9193,-77.2949 262.6118,-70.9309"/>
</g>
<!-- h -->
<g id="node7" class="node">
<title>h</title>
<ellipse fill="none" stroke="#000000" cx="18" cy="-150.2537" rx="18" ry="18"/>
</g>
<!-- a&#45;&#45;h -->
<g id="edge6" class="edge">
<title>a&#45;&#45;h</title>
<path fill="none" stroke="#000000" d="M156.2411,-105.3364C126.3559,-115.0467 65.2485,-134.9017 35.3096,-144.6295"/>
</g>
<!-- f -->
<g id="node5" class="node">
<title>f</title>
<ellipse fill="none" stroke="#000000" cx="18" cy="-49.2209" rx="18" ry="18"/>
</g>
<!-- b&#45;&#45;f -->
<g id="edge4" class="edge">
<title>b&#45;&#45;f</title>
<path fill="none" stroke="#000000" d="M96.9093,-23.5817C79.5274,-29.2294 52.7983,-37.9142 35.3538,-43.5823"/>
</g>
<!-- c&#45;&#45;h -->
<g id="edge7" class="edge">
<title>c&#45;&#45;h</title>
<path fill="none" stroke="#000000" d="M96.9093,-175.8929C79.5274,-170.2452 52.7983,-161.5603 35.3538,-155.8923"/>
</g>
<!-- d&#45;&#45;g -->
<g id="edge5" class="edge">
<title>d&#45;&#45;g</title>
<path fill="none" stroke="#000000" d="M279.851,-116.0502C279.851,-106.0239 279.851,-93.5876 279.851,-83.5424"/>
</g>
<!-- f&#45;&#45;h -->
<g id="edge8" class="edge">
<title>f&#45;&#45;h</title>
<path fill="none" stroke="#000000" d="M18,-67.2835C18,-85.5599 18,-113.6647 18,-132.0068"/>
</g>
</g>
</svg>
